<ttFont>
    <TTGlyph name=".notdef" xMin="30" yMin="-205" xMax="596" yMax="1045">
      <contour>
        <pt x="596" y="1045" on="1"/>
        <pt x="596" y="-205" on="1"/>
        <pt x="30" y="-205" on="1"/>
        <pt x="30" y="1045" on="1"/>
      </contour>
      <contour>
        <pt x="122" y="959" on="1"/>
        <pt x="122" y="-120" on="1"/>
        <pt x="504" y="-120" on="1"/>
        <pt x="504" y="959" on="1"/>
      </contour>
    </TTGlyph>
    <TTGlyph name="A" xMin="-4" yMin="0" xMax="538" yMax="818">
      <contour>
        <pt x="-4" y="0" on="1"/>
        <pt x="144" y="818" on="1"/>
        <pt x="391" y="818" on="1"/>
        <pt x="538" y="0" on="1"/>
        <pt x="369" y="0" on="1"/>
        <pt x="344" y="164" on="1"/>
        <pt x="190" y="164" on="1"/>
        <pt x="166" y="0" on="1"/>
      </contour>
      <contour>
        <pt x="217" y="343" on="1"/>
        <pt x="317" y="343" on="1"/>
        <pt x="267" y="673" on="1"/>
      </contour>
    </TTGlyph>
    <TTGlyph name="AE" xMin="-13" yMin="-3" xMax="697" yMax="818">
      <contour>
        <pt x="697" y="-3" on="1"/>
        <pt x="669" y="-2" on="0"/>
        <pt x="581" y="-1" on="0"/>
        <pt x="481" y="0" on="0"/>
        <pt x="379" y="1" on="0"/>
        <pt x="339" y="1" on="1"/>
        <pt x="340" y="24" on="0"/>
        <pt x="341" y="110" on="0"/>
        <pt x="341" y="164" on="1"/>
        <pt x="194" y="164" on="1"/>
        <pt x="157" y="0" on="1"/>
        <pt x="-13" y="0" on="1"/>
        <pt x="201" y="818" on="1"/>
        <pt x="692" y="818" on="1"/>
        <pt x="692" y="659" on="1"/>
        <pt x="501" y="659" on="1"/>
        <pt x="501" y="533" on="1"/>
        <pt x="664" y="533" on="1"/>
        <pt x="664" y="384" on="1"/>
        <pt x="501" y="384" on="1"/>
        <pt x="501" y="265" on="1"/>
        <pt x="693" y="265" on="1"/>
        <pt x="694" y="242" on="0"/>
        <pt x="696" y="194" on="0"/>
        <pt x="697" y="134" on="0"/>
        <pt x="697" y="53" on="0"/>
      </contour>
      <contour>
        <pt x="234" y="343" on="1"/>
        <pt x="341" y="343" on="1"/>
        <pt x="341" y="428" on="0"/>
        <pt x="340" y="596" on="0"/>
        <pt x="340" y="665" on="1"/>
        <pt x="308" y="665" on="1"/>
      </contour>
    </TTGlyph>
    <TTGlyph name="AEacute" xMin="-13" yMin="-3" xMax="697" yMax="1040">
      <contour>
        <pt x="697" y="-3" on="1"/>
        <pt x="669" y="-2" on="0"/>
        <pt x="581" y="-1" on="0"/>
        <pt x="481" y="0" on="0"/>
        <pt x="379" y="1" on="0"/>
        <pt x="339" y="1" on="1"/>
        <pt x="340" y="24" on="0"/>
        <pt x="341" y="110" on="0"/>
        <pt x="341" y="164" on="1"/>
        <pt x="194" y="164" on="1"/>
        <pt x="157" y="0" on="1"/>
        <pt x="-13" y="0" on="1"/>
        <pt x="201" y="818" on="1"/>
        <pt x="692" y="818" on="1"/>
        <pt x="692" y="659" on="1"/>
        <pt x="501" y="659" on="1"/>
        <pt x="501" y="533" on="1"/>
        <pt x="664" y="533" on="1"/>
        <pt x="664" y="384" on="1"/>
        <pt x="501" y="384" on="1"/>
        <pt x="501" y="265" on="1"/>
        <pt x="693" y="265" on="1"/>
        <pt x="694" y="242" on="0"/>
        <pt x="696" y="194" on="0"/>
        <pt x="697" y="134" on="0"/>
        <pt x="697" y="53" on="0"/>
      </contour>
      <contour>
        <pt x="234" y="343" on="1"/>
        <pt x="341" y="343" on="1"/>
        <pt x="341" y="428" on="0"/>
        <pt x="340" y="596" on="0"/>
        <pt x="340" y="665" on="1"/>
        <pt x="308" y="665" on="1"/>
      </contour>
      <contour>
        <pt x="437" y="1040" on="1"/>
        <pt x="583" y="1040" on="1"/>
        <pt x="455" y="849" on="1"/>
        <pt x="364" y="849" on="1"/>
      </contour>
    </TTGlyph>
    <TTGlyph name="Aacute" xMin="-4" yMin="0" xMax="538" yMax="1040">
      <contour>
        <pt x="-4" y="0" on="1"/>
        <pt x="144" y="818" on="1"/>
        <pt x="391" y="818" on="1"/>
        <pt x="538" y="0" on="1"/>
        <pt x="369" y="0" on="1"/>
        <pt x="344" y="164" on="1"/>
        <pt x="190" y="164" on="1"/>
        <pt x="166" y="0" on="1"/>
      </contour>
      <contour>
        <pt x="217" y="343" on="1"/>
        <pt x="317" y="343" on="1"/>
        <pt x="267" y="673" on="1"/>
      </contour>
      <contour>
        <pt x="277" y="1040" on="1"/>
        <pt x="423" y="1040" on="1"/>
        <pt x="295" y="849" on="1"/>
        <pt x="204" y="849" on="1"/>
      </contour>
    </TTGlyph>
    <TTGlyph name="Abreve" xMin="-4" yMin="0" xMax="538" yMax="1016">
      <contour>
        <pt x="-4" y="0" on="1"/>
        <pt x="144" y="818" on="1"/>
        <pt x="391" y="818" on="1"/>
        <pt x="538" y="0" on="1"/>
        <pt x="369" y="0" on="1"/>
        <pt x="344" y="164" on="1"/>
        <pt x="190" y="164" on="1"/>
        <pt x="166" y="0" on="1"/>
      </contour>
      <contour>
        <pt x="217" y="343" on="1"/>
        <pt x="317" y="343" on="1"/>
        <pt x="267" y="673" on="1"/>
      </contour>
      <contour>
        <pt x="413" y="1016" on="1"/>
        <pt x="413" y="981" on="0"/>
        <pt x="388" y="927" on="0"/>
        <pt x="348" y="891" on="0"/>
        <pt x="295" y="872" on="0"/>
        <pt x="267" y="872" on="1"/>
        <pt x="238" y="872" on="0"/>
        <pt x="186" y="891" on="0"/>
        <pt x="146" y="927" on="0"/>
        <pt x="121" y="981" on="0"/>
        <pt x="121" y="1016" on="1"/>
        <pt x="190" y="1016" on="1"/>
        <pt x="192" y="978" on="0"/>
        <pt x="235" y="932" on="0"/>
        <pt x="267" y="932" on="1"/>
        <pt x="299" y="932" on="0"/>
        <pt x="342" y="978" on="0"/>
        <pt x="344" y="1016" on="1"/>
      </contour>
    </TTGlyph>
    <TTGlyph name="Acircumflex" xMin="-4" yMin="0" xMax="538" yMax="1045">
      <contour>
        <pt x="-4" y="0" on="1"/>
        <pt x="144" y="818" on="1"/>
        <pt x="391" y="818" on="1"/>
        <pt x="538" y="0" on="1"/>
        <pt x="369" y="0" on="1"/>
        <pt x="344" y="164" on="1"/>
        <pt x="190" y="164" on="1"/>
        <pt x="166" y="0" on="1"/>
      </contour>
      <contour>
        <pt x="217" y="343" on="1"/>
        <pt x="317" y="343" on="1"/>
        <pt x="267" y="673" on="1"/>
      </contour>
      <contour>
        <pt x="267" y="1045" on="1"/>
        <pt x="438" y="932" on="1"/>
        <pt x="408" y="864" on="1"/>
        <pt x="267" y="932" on="1"/>
        <pt x="126" y="864" on="1"/>
        <pt x="96" y="932" on="1"/>
      </contour>
    </TTGlyph>
    <TTGlyph name="Adieresis" xMin="-4" yMin="0" xMax="538" yMax="1012">
      <contour>
        <pt x="-4" y="0" on="1"/>
        <pt x="144" y="818" on="1"/>
        <pt x="391" y="818" on="1"/>
        <pt x="538" y="0" on="1"/>
        <pt x="369" y="0" on="1"/>
        <pt x="344" y="164" on="1"/>
        <pt x="190" y="164" on="1"/>
        <pt x="166" y="0" on="1"/>
      </contour>
      <contour>
        <pt x="217" y="343" on="1"/>
        <pt x="317" y="343" on="1"/>
        <pt x="267" y="673" on="1"/>
      </contour>
      <contour>
        <pt x="101" y="939" on="1"/>
        <pt x="101" y="978" on="0"/>
        <pt x="148" y="1012" on="0"/>
        <pt x="175" y="1012" on="1"/>
        <pt x="207" y="1012" on="0"/>
        <pt x="244" y="970" on="0"/>
        <pt x="244" y="939" on="1"/>
        <pt x="244" y="907" on="0"/>
        <pt x="205" y="866" on="0"/>
        <pt x="176" y="866" on="1"/>
        <pt x="164" y="866" on="0"/>
        <pt x="138" y="874" on="0"/>
        <pt x="115" y="891" on="0"/>
        <pt x="101" y="919" on="0"/>
      </contour>
      <contour>
        <pt x="290" y="940" on="1"/>
        <pt x="290" y="959" on="0"/>
        <pt x="303" y="986" on="0"/>
        <pt x="324" y="1004" on="0"/>
        <pt x="350" y="1012" on="0"/>
        <pt x="363" y="1012" on="1"/>
        <pt x="395" y="1012" on="0"/>
        <pt x="433" y="970" on="0"/>
        <pt x="433" y="939" on="1"/>
        <pt x="433" y="907" on="0"/>
        <pt x="394" y="866" on="0"/>
        <pt x="365" y="866" on="1"/>
        <pt x="353" y="866" on="0"/>
        <pt x="327" y="874" on="0"/>
        <pt x="304" y="891" on="0"/>
        <pt x="290" y="919" on="0"/>
      </contour>
    </TTGlyph>
    <TTGlyph name="Agrave" xMin="-4" yMin="0" xMax="538" yMax="1040">
      <contour>
        <pt x="-4" y="0" on="1"/>
        <pt x="144" y="818" on="1"/>
        <pt x="391" y="818" on="1"/>
        <pt x="538" y="0" on="1"/>
        <pt x="369" y="0" on="1"/>
        <pt x="344" y="164" on="1"/>
        <pt x="190" y="164" on="1"/>
        <pt x="166" y="0" on="1"/>
      </contour>
      <contour>
        <pt x="217" y="343" on="1"/>
        <pt x="317" y="343" on="1"/>
        <pt x="267" y="673" on="1"/>
      </contour>
      <contour>
        <pt x="330" y="849" on="1"/>
        <pt x="239" y="849" on="1"/>
        <pt x="111" y="1040" on="1"/>
        <pt x="257" y="1040" on="1"/>
      </contour>
    </TTGlyph>
    <TTGlyph name="Amacron" xMin="-4" yMin="0" xMax="538" yMax="995">
      <contour>
        <pt x="-4" y="0" on="1"/>
        <pt x="144" y="818" on="1"/>
        <pt x="391" y="818" on="1"/>
        <pt x="538" y="0" on="1"/>
        <pt x="369" y="0" on="1"/>
        <pt x="344" y="164" on="1"/>
        <pt x="190" y="164" on="1"/>
        <pt x="166" y="0" on="1"/>
      </contour>
      <contour>
        <pt x="217" y="343" on="1"/>
        <pt x="317" y="343" on="1"/>
        <pt x="267" y="673" on="1"/>
      </contour>
      <contour>
        <pt x="440" y="995" on="1"/>
        <pt x="440" y="901" on="1"/>
        <pt x="110" y="901" on="1"/>
        <pt x="110" y="995" on="1"/>
      </contour>
    </TTGlyph>
    <TTGlyph name="Aogonek" xMin="-4" yMin="-205" xMax="538" yMax="818">
      <contour>
        <pt x="532" y="-183" on="1"/>
        <pt x="469" y="-205" on="0"/>
        <pt x="426" y="-205" on="1"/>
        <pt x="386" y="-205" on="0"/>
        <pt x="340" y="-167" on="0"/>
        <pt x="340" y="-135" on="1"/>
        <pt x="340" y="-106" on="0"/>
        <pt x="378" y="-35" on="0"/>
        <pt x="413" y="0" on="1"/>
        <pt x="369" y="0" on="1"/>
        <pt x="344" y="164" on="1"/>
        <pt x="190" y="164" on="1"/>
        <pt x="166" y="0" on="1"/>
        <pt x="-4" y="0" on="1"/>
        <pt x="144" y="818" on="1"/>
        <pt x="391" y="818" on="1"/>
        <pt x="538" y="0" on="1"/>
        <pt x="498" y="0" on="1"/>
        <pt x="468" y="-28" on="0"/>
        <pt x="430" y="-91" on="0"/>
        <pt x="430" y="-111" on="1"/>
        <pt x="430" y="-132" on="0"/>
        <pt x="452" y="-132" on="1"/>
        <pt x="466" y="-132" on="0"/>
        <pt x="506" y="-124" on="0"/>
        <pt x="525" y="-116" on="1"/>
      </contour>
      <contour>
        <pt x="217" y="343" on="1"/>
        <pt x="317" y="343" on="1"/>
        <pt x="267" y="673" on="1"/>
      </contour>
    </TTGlyph>
    <TTGlyph name="Aring" xMin="-4" yMin="0" xMax="538" yMax="1044">
      <contour>
        <pt x="-4" y="0" on="1"/>
        <pt x="144" y="818" on="1"/>
        <pt x="391" y="818" on="1"/>
        <pt x="538" y="0" on="1"/>
        <pt x="369" y="0" on="1"/>
        <pt x="344" y="164" on="1"/>
        <pt x="190" y="164" on="1"/>
        <pt x="166" y="0" on="1"/>
      </contour>
      <contour>
        <pt x="217" y="343" on="1"/>
        <pt x="317" y="343" on="1"/>
        <pt x="267" y="673" on="1"/>
      </contour>
      <contour>
        <pt x="267" y="897" on="1"/>
        <pt x="290" y="897" on="0"/>
        <pt x="317" y="925" on="0"/>
        <pt x="317" y="948" on="1"/>
        <pt x="317" y="971" on="0"/>
        <pt x="290" y="998" on="0"/>
        <pt x="267" y="998" on="1"/>
        <pt x="244" y="998" on="0"/>
        <pt x="215" y="971" on="0"/>
        <pt x="215" y="948" on="1"/>
        <pt x="215" y="925" on="0"/>
        <pt x="244" y="897" on="0"/>
      </contour>
      <contour>
        <pt x="267" y="849" on="1"/>
        <pt x="216" y="849" on="0"/>
        <pt x="164" y="908" on="0"/>
        <pt x="164" y="948" on="1"/>
        <pt x="164" y="988" on="0"/>
        <pt x="216" y="1044" on="0"/>
        <pt x="267" y="1044" on="1"/>
        <pt x="318" y="1044" on="0"/>
        <pt x="368" y="988" on="0"/>
        <pt x="368" y="948" on="1"/>
        <pt x="368" y="908" on="0"/>
        <pt x="318" y="849" on="0"/>
      </contour>
    </TTGlyph>
    <TTGlyph name="Aringacute" xMin="-4" yMin="0" xMax="538" yMax="1045">
      <contour>
        <pt x="267" y="910" on="1"/>
        <pt x="315" y="910" on="0"/>
        <pt x="364" y="855" on="0"/>
        <pt x="364" y="818" on="1"/>
        <pt x="391" y="818" on="1"/>
        <pt x="538" y="0" on="1"/>
        <pt x="369" y="0" on="1"/>
        <pt x="344" y="164" on="1"/>
        <pt x="190" y="164" on="1"/>
        <pt x="166" y="0" on="1"/>
        <pt x="-4" y="0" on="1"/>
        <pt x="144" y="818" on="1"/>
        <pt x="168" y="818" on="1"/>
        <pt x="168" y="855" on="0"/>
        <pt x="219" y="910" on="0"/>
      </contour>
      <contour>
        <pt x="217" y="343" on="1"/>
        <pt x="317" y="343" on="1"/>
        <pt x="267" y="673" on="1"/>
      </contour>
      <contour>
        <pt x="254" y="1045" on="1"/>
        <pt x="361" y="1045" on="1"/>
        <pt x="307" y="929" on="1"/>
        <pt x="232" y="929" on="1"/>
      </contour>
      <contour>
        <pt x="267" y="767" on="1"/>
        <pt x="290" y="767" on="0"/>
        <pt x="317" y="795" on="0"/>
        <pt x="317" y="818" on="1"/>
        <pt x="317" y="841" on="0"/>
        <pt x="290" y="868" on="0"/>
        <pt x="267" y="868" on="1"/>
        <pt x="244" y="868" on="0"/>
        <pt x="215" y="841" on="0"/>
        <pt x="215" y="818" on="1"/>
        <pt x="215" y="795" on="0"/>
        <pt x="244" y="767" on="0"/>
      </contour>
    </TTGlyph>
    <TTGlyph name="Atilde" xMin="-4" yMin="0" xMax="538" yMax="1017">
      <contour>
        <pt x="-4" y="0" on="1"/>
        <pt x="144" y="818" on="1"/>
        <pt x="391" y="818" on="1"/>
        <pt x="538" y="0" on="1"/>
        <pt x="369" y="0" on="1"/>
        <pt x="344" y="164" on="1"/>
        <pt x="190" y="164" on="1"/>
        <pt x="166" y="0" on="1"/>
      </contour>
      <contour>
        <pt x="217" y="343" on="1"/>
        <pt x="317" y="343" on="1"/>
        <pt x="267" y="673" on="1"/>
      </contour>
      <contour>
        <pt x="85" y="989" on="1"/>
        <pt x="111" y="1004" on="0"/>
        <pt x="156" y="1017" on="0"/>
        <pt x="177" y="1017" on="1"/>
        <pt x="205" y="1017" on="0"/>
        <pt x="252" y="999" on="0"/>
        <pt x="296" y="978" on="0"/>
        <pt x="339" y="960" on="0"/>
        <pt x="363" y="960" on="1"/>
        <pt x="384" y="960" on="0"/>
        <pt x="435" y="981" on="0"/>
        <pt x="464" y="1007" on="1"/>
        <pt x="464" y="899" on="1"/>
        <pt x="435" y="877" on="0"/>
        <pt x="384" y="860" on="0"/>
        <pt x="362" y="860" on="1"/>
        <pt x="335" y="860" on="0"/>
        <pt x="289" y="878" on="0"/>
        <pt x="244" y="900" on="0"/>
        <pt x="200" y="918" on="0"/>
        <pt x="176" y="918" on="1"/>
        <pt x="155" y="918" on="0"/>
        <pt x="111" y="901" on="0"/>
        <pt x="85" y="879" on="1"/>
      </contour>
    </TTGlyph>
    <TTGlyph name="B" xMin="24" yMin="-11" xMax="577" yMax="830">
      <contour>
        <pt x="185" y="553" on="1"/>
        <pt x="199" y="551" on="0"/>
        <pt x="217" y="551" on="0"/>
        <pt x="227" y="551" on="1"/>
        <pt x="281" y="551" on="0"/>
        <pt x="345" y="591" on="0"/>
        <pt x="345" y="624" on="1"/>
        <pt x="345" y="654" on="0"/>
        <pt x="290" y="686" on="0"/>
        <pt x="237" y="686" on="1"/>
        <pt x="220" y="686" on="0"/>
        <pt x="193" y="683" on="0"/>
        <pt x="185" y="680" on="1"/>
      </contour>
      <contour>
        <pt x="28" y="0" on="1"/>
        <pt x="29" y="46" on="0"/>
        <pt x="30" y="133" on="0"/>
        <pt x="31" y="218" on="0"/>
        <pt x="31" y="304" on="0"/>
        <pt x="31" y="350" on="1"/>
        <pt x="31" y="481" on="0"/>
        <pt x="28" y="721" on="0"/>
        <pt x="24" y="815" on="1"/>
        <pt x="80" y="823" on="0"/>
        <pt x="198" y="830" on="0"/>
        <pt x="245" y="830" on="1"/>
        <pt x="523" y="830" on="0"/>
        <pt x="523" y="669" on="1"/>
        <pt x="523" y="606" on="0"/>
        <pt x="450" y="517" on="0"/>
        <pt x="390" y="507" on="1"/>
        <pt x="487" y="489" on="0"/>
        <pt x="577" y="376" on="0"/>
        <pt x="577" y="273" on="1"/>
        <pt x="577" y="128" on="0"/>
        <pt x="397" y="-11" on="0"/>
        <pt x="207" y="-11" on="1"/>
        <pt x="170" y="-11" on="0"/>
        <pt x="79" y="-6" on="0"/>
      </contour>
      <contour>
        <pt x="185" y="269" on="1"/>
        <pt x="195" y="266" on="0"/>
        <pt x="235" y="262" on="0"/>
        <pt x="254" y="262" on="1"/>
        <pt x="317" y="262" on="0"/>
        <pt x="382" y="302" on="0"/>
        <pt x="382" y="339" on="1"/>
        <pt x="382" y="377" on="0"/>
        <pt x="313" y="417" on="0"/>
        <pt x="252" y="417" on="1"/>
        <pt x="239" y="417" on="0"/>
        <pt x="208" y="415" on="0"/>
        <pt x="185" y="413" on="1"/>
      </contour>
    </TTGlyph>
    <TTGlyph name="C" xMin="10" yMin="-11" xMax="500" yMax="830">
      <contour>
        <pt x="387" y="830" on="1"/>
        <pt x="423" y="830" on="0"/>
        <pt x="476" y="821" on="0"/>
        <pt x="499" y="813" on="1"/>
        <pt x="499" y="796" on="0"/>
        <pt x="500" y="758" on="0"/>
        <pt x="500" y="736" on="1"/>
        <pt x="500" y="714" on="0"/>
        <pt x="499" y="665" on="0"/>
        <pt x="499" y="644" on="1"/>
        <pt x="461" y="668" on="0"/>
        <pt x="408" y="668" on="1"/>
        <pt x="358" y="668" on="0"/>
        <pt x="291" y="631" on="0"/>
        <pt x="250" y="573" on="0"/>
        <pt x="233" y="504" on="0"/>
        <pt x="233" y="473" on="1"/>
        <pt x="233" y="431" on="0"/>
        <pt x="259" y="357" on="0"/>
        <pt x="306" y="302" on="0"/>
        <pt x="369" y="270" on="0"/>
        <pt x="406" y="270" on="1"/>
        <pt x="423" y="270" on="0"/>
        <pt x="476" y="280" on="0"/>
        <pt x="499" y="294" on="1"/>
        <pt x="499" y="259" on="0"/>
        <pt x="500" y="183" on="0"/>
        <pt x="500" y="147" on="1"/>
        <pt x="500" y="109" on="0"/>
        <pt x="499" y="37" on="0"/>
        <pt x="499" y="1" on="1"/>
        <pt x="443" y="-11" on="0"/>
        <pt x="385" y="-11" on="1"/>
        <pt x="297" y="-11" on="0"/>
        <pt x="158" y="47" on="0"/>
        <pt x="61" y="156" on="0"/>
        <pt x="10" y="311" on="0"/>
        <pt x="10" y="407" on="1"/>
        <pt x="10" y="499" on="0"/>
        <pt x="58" y="654" on="0"/>
        <pt x="153" y="767" on="0"/>
        <pt x="294" y="830" on="0"/>
      </contour>
    </TTGlyph>
    <TTGlyph name="Cacute" xMin="10" yMin="-11" xMax="519" yMax="1040">
      <contour>
        <pt x="387" y="830" on="1"/>
        <pt x="423" y="830" on="0"/>
        <pt x="476" y="821" on="0"/>
        <pt x="499" y="813" on="1"/>
        <pt x="499" y="796" on="0"/>
        <pt x="500" y="758" on="0"/>
        <pt x="500" y="736" on="1"/>
        <pt x="500" y="714" on="0"/>
        <pt x="499" y="665" on="0"/>
        <pt x="499" y="644" on="1"/>
        <pt x="461" y="668" on="0"/>
        <pt x="408" y="668" on="1"/>
        <pt x="358" y="668" on="0"/>
        <pt x="291" y="631" on="0"/>
        <pt x="250" y="573" on="0"/>
        <pt x="233" y="504" on="0"/>
        <pt x="233" y="473" on="1"/>
        <pt x="233" y="431" on="0"/>
        <pt x="259" y="357" on="0"/>
        <pt x="306" y="302" on="0"/>
        <pt x="369" y="270" on="0"/>
        <pt x="406" y="270" on="1"/>
        <pt x="423" y="270" on="0"/>
        <pt x="476" y="280" on="0"/>
        <pt x="499" y="294" on="1"/>
        <pt x="499" y="259" on="0"/>
        <pt x="500" y="183" on="0"/>
        <pt x="500" y="147" on="1"/>
        <pt x="500" y="109" on="0"/>
        <pt x="499" y="37" on="0"/>
        <pt x="499" y="1" on="1"/>
        <pt x="443" y="-11" on="0"/>
        <pt x="385" y="-11" on="1"/>
        <pt x="297" y="-11" on="0"/>
        <pt x="158" y="47" on="0"/>
        <pt x="61" y="156" on="0"/>
        <pt x="10" y="311" on="0"/>
        <pt x="10" y="407" on="1"/>
        <pt x="10" y="499" on="0"/>
        <pt x="58" y="654" on="0"/>
        <pt x="153" y="767" on="0"/>
        <pt x="294" y="830" on="0"/>
      </contour>
      <contour>
        <pt x="373" y="1040" on="1"/>
        <pt x="519" y="1040" on="1"/>
        <pt x="391" y="849" on="1"/>
        <pt x="300" y="849" on="1"/>
      </contour>
    </TTGlyph>
    <TTGlyph name="Ccaron" xMin="10" yMin="-11" xMax="534" yMax="1045">
      <contour>
        <pt x="387" y="830" on="1"/>
        <pt x="423" y="830" on="0"/>
        <pt x="476" y="821" on="0"/>
        <pt x="499" y="813" on="1"/>
        <pt x="499" y="796" on="0"/>
        <pt x="500" y="758" on="0"/>
        <pt x="500" y="736" on="1"/>
        <pt x="500" y="714" on="0"/>
        <pt x="499" y="665" on="0"/>
        <pt x="499" y="644" on="1"/>
        <pt x="461" y="668" on="0"/>
        <pt x="408" y="668" on="1"/>
        <pt x="358" y="668" on="0"/>
        <pt x="291" y="631" on="0"/>
        <pt x="250" y="573" on="0"/>
        <pt x="233" y="504" on="0"/>
        <pt x="233" y="473" on="1"/>
        <pt x="233" y="431" on="0"/>
        <pt x="259" y="357" on="0"/>
        <pt x="306" y="302" on="0"/>
        <pt x="369" y="270" on="0"/>
        <pt x="406" y="270" on="1"/>
        <pt x="423" y="270" on="0"/>
        <pt x="476" y="280" on="0"/>
        <pt x="499" y="294" on="1"/>
        <pt x="499" y="259" on="0"/>
        <pt x="500" y="183" on="0"/>
        <pt x="500" y="147" on="1"/>
        <pt x="500" y="109" on="0"/>
        <pt x="499" y="37" on="0"/>
        <pt x="499" y="1" on="1"/>
        <pt x="443" y="-11" on="0"/>
        <pt x="385" y="-11" on="1"/>
        <pt x="297" y="-11" on="0"/>
        <pt x="158" y="47" on="0"/>
        <pt x="61" y="156" on="0"/>
        <pt x="10" y="311" on="0"/>
        <pt x="10" y="407" on="1"/>
        <pt x="10" y="499" on="0"/>
        <pt x="58" y="654" on="0"/>
        <pt x="153" y="767" on="0"/>
        <pt x="294" y="830" on="0"/>
      </contour>
      <contour>
        <pt x="192" y="977" on="1"/>
        <pt x="222" y="1045" on="1"/>
        <pt x="363" y="976" on="1"/>
        <pt x="504" y="1045" on="1"/>
        <pt x="534" y="977" on="1"/>
        <pt x="363" y="863" on="1"/>
      </contour>
    </TTGlyph>
    <TTGlyph name="Ccedilla" xMin="10" yMin="-205" xMax="500" yMax="830">
      <contour>
        <pt x="387" y="830" on="1"/>
        <pt x="423" y="830" on="0"/>
        <pt x="476" y="821" on="0"/>
        <pt x="499" y="813" on="1"/>
        <pt x="499" y="796" on="0"/>
        <pt x="500" y="758" on="0"/>
        <pt x="500" y="736" on="1"/>
        <pt x="500" y="714" on="0"/>
        <pt x="499" y="665" on="0"/>
        <pt x="499" y="644" on="1"/>
        <pt x="461" y="668" on="0"/>
        <pt x="408" y="668" on="1"/>
        <pt x="358" y="668" on="0"/>
        <pt x="291" y="631" on="0"/>
        <pt x="250" y="573" on="0"/>
        <pt x="233" y="504" on="0"/>
        <pt x="233" y="473" on="1"/>
        <pt x="233" y="431" on="0"/>
        <pt x="259" y="357" on="0"/>
        <pt x="306" y="302" on="0"/>
        <pt x="369" y="270" on="0"/>
        <pt x="406" y="270" on="1"/>
        <pt x="423" y="270" on="0"/>
        <pt x="476" y="280" on="0"/>
        <pt x="499" y="294" on="1"/>
        <pt x="499" y="259" on="0"/>
        <pt x="500" y="183" on="0"/>
        <pt x="500" y="147" on="1"/>
        <pt x="500" y="109" on="0"/>
        <pt x="499" y="37" on="0"/>
        <pt x="499" y="1" on="1"/>
        <pt x="443" y="-11" on="0"/>
        <pt x="385" y="-11" on="1"/>
        <pt x="297" y="-11" on="0"/>
        <pt x="158" y="47" on="0"/>
        <pt x="61" y="156" on="0"/>
        <pt x="10" y="311" on="0"/>
        <pt x="10" y="407" on="1"/>
        <pt x="10" y="499" on="0"/>
        <pt x="58" y="654" on="0"/>
        <pt x="153" y="767" on="0"/>
        <pt x="294" y="830" on="0"/>
      </contour>
      <contour>
        <pt x="428" y="-54" on="1"/>
        <pt x="368" y="-205" on="1"/>
        <pt x="272" y="-205" on="1"/>
        <pt x="296" y="-55" on="1"/>
      </contour>
    </TTGlyph>
    <TTGlyph name="Ccircumflex" xMin="10" yMin="-11" xMax="534" yMax="1045">
      <contour>
        <pt x="387" y="830" on="1"/>
        <pt x="423" y="830" on="0"/>
        <pt x="476" y="821" on="0"/>
        <pt x="499" y="813" on="1"/>
        <pt x="499" y="796" on="0"/>
        <pt x="500" y="758" on="0"/>
        <pt x="500" y="736" on="1"/>
        <pt x="500" y="714" on="0"/>
        <pt x="499" y="665" on="0"/>
        <pt x="499" y="644" on="1"/>
        <pt x="461" y="668" on="0"/>
        <pt x="408" y="668" on="1"/>
        <pt x="358" y="668" on="0"/>
        <pt x="291" y="631" on="0"/>
        <pt x="250" y="573" on="0"/>
        <pt x="233" y="504" on="0"/>
        <pt x="233" y="473" on="1"/>
        <pt x="233" y="431" on="0"/>
        <pt x="259" y="357" on="0"/>
        <pt x="306" y="302" on="0"/>
        <pt x="369" y="270" on="0"/>
        <pt x="406" y="270" on="1"/>
        <pt x="423" y="270" on="0"/>
        <pt x="476" y="280" on="0"/>
        <pt x="499" y="294" on="1"/>
        <pt x="499" y="259" on="0"/>
        <pt x="500" y="183" on="0"/>
        <pt x="500" y="147" on="1"/>
        <pt x="500" y="109" on="0"/>
        <pt x="499" y="37" on="0"/>
        <pt x="499" y="1" on="1"/>
        <pt x="443" y="-11" on="0"/>
        <pt x="385" y="-11" on="1"/>
        <pt x="297" y="-11" on="0"/>
        <pt x="158" y="47" on="0"/>
        <pt x="61" y="156" on="0"/>
        <pt x="10" y="311" on="0"/>
        <pt x="10" y="407" on="1"/>
        <pt x="10" y="499" on="0"/>
        <pt x="58" y="654" on="0"/>
        <pt x="153" y="767" on="0"/>
        <pt x="294" y="830" on="0"/>
      </contour>
      <contour>
        <pt x="363" y="1045" on="1"/>
        <pt x="534" y="932" on="1"/>
        <pt x="504" y="864" on="1"/>
        <pt x="363" y="932" on="1"/>
        <pt x="222" y="864" on="1"/>
        <pt x="192" y="932" on="1"/>
      </contour>
    </TTGlyph>
    <TTGlyph name="Cdotaccent" xMin="10" yMin="-11" xMax="500" yMax="1026">
      <contour>
        <pt x="387" y="830" on="1"/>
        <pt x="423" y="830" on="0"/>
        <pt x="476" y="821" on="0"/>
        <pt x="499" y="813" on="1"/>
        <pt x="499" y="796" on="0"/>
        <pt x="500" y="758" on="0"/>
        <pt x="500" y="736" on="1"/>
        <pt x="500" y="714" on="0"/>
        <pt x="499" y="665" on="0"/>
        <pt x="499" y="644" on="1"/>
        <pt x="461" y="668" on="0"/>
        <pt x="408" y="668" on="1"/>
        <pt x="358" y="668" on="0"/>
        <pt x="291" y="631" on="0"/>
        <pt x="250" y="573" on="0"/>
        <pt x="233" y="504" on="0"/>
        <pt x="233" y="473" on="1"/>
        <pt x="233" y="431" on="0"/>
        <pt x="259" y="357" on="0"/>
        <pt x="306" y="302" on="0"/>
        <pt x="369" y="270" on="0"/>
        <pt x="406" y="270" on="1"/>
        <pt x="423" y="270" on="0"/>
        <pt x="476" y="280" on="0"/>
        <pt x="499" y="294" on="1"/>
        <pt x="499" y="259" on="0"/>
        <pt x="500" y="183" on="0"/>
        <pt x="500" y="147" on="1"/>
        <pt x="500" y="109" on="0"/>
        <pt x="499" y="37" on="0"/>
        <pt x="499" y="1" on="1"/>
        <pt x="443" y="-11" on="0"/>
        <pt x="385" y="-11" on="1"/>
        <pt x="297" y="-11" on="0"/>
        <pt x="158" y="47" on="0"/>
        <pt x="61" y="156" on="0"/>
        <pt x="10" y="311" on="0"/>
        <pt x="10" y="407" on="1"/>
        <pt x="10" y="499" on="0"/>
        <pt x="58" y="654" on="0"/>
        <pt x="153" y="767" on="0"/>
        <pt x="294" y="830" on="0"/>
      </contour>
      <contour>
        <pt x="277" y="939" on="1"/>
        <pt x="277" y="983" on="0"/>
        <pt x="332" y="1026" on="0"/>
        <pt x="365" y="1026" on="1"/>
        <pt x="402" y="1026" on="0"/>
        <pt x="449" y="979" on="0"/>
        <pt x="449" y="942" on="1"/>
        <pt x="449" y="901" on="0"/>
        <pt x="396" y="854" on="0"/>
        <pt x="361" y="854" on="1"/>
        <pt x="345" y="854" on="0"/>
        <pt x="315" y="865" on="0"/>
        <pt x="291" y="886" on="0"/>
        <pt x="277" y="918" on="0"/>
      </contour>
    </TTGlyph>
    <TTGlyph name="D" xMin="24" yMin="-11" xMax="615" yMax="830">
      <contour>
        <pt x="24" y="815" on="1"/>
        <pt x="81" y="823" on="0"/>
        <pt x="185" y="830" on="0"/>
        <pt x="222" y="830" on="1"/>
        <pt x="310" y="830" on="0"/>
        <pt x="458" y="782" on="0"/>
        <pt x="514" y="720" on="1"/>
        <pt x="565" y="662" on="0"/>
        <pt x="615" y="497" on="0"/>
        <pt x="615" y="402" on="1"/>
        <pt x="615" y="309" on="0"/>
        <pt x="567" y="157" on="0"/>
        <pt x="468" y="49" on="0"/>
        <pt x="318" y="-11" on="0"/>
        <pt x="216" y="-11" on="1"/>
        <pt x="193" y="-11" on="0"/>
        <pt x="90" y="-7" on="0"/>
        <pt x="28" y="0" on="1"/>
        <pt x="29" y="46" on="0"/>
        <pt x="30" y="133" on="0"/>
        <pt x="31" y="218" on="0"/>
        <pt x="31" y="304" on="0"/>
        <pt x="31" y="350" on="1"/>
        <pt x="31" y="481" on="0"/>
        <pt x="28" y="721" on="0"/>
      </contour>
      <contour>
        <pt x="218" y="664" on="1"/>
        <pt x="208" y="664" on="0"/>
        <pt x="191" y="662" on="0"/>
        <pt x="183" y="661" on="1"/>
        <pt x="182" y="614" on="0"/>
        <pt x="182" y="521" on="0"/>
        <pt x="182" y="474" on="1"/>
        <pt x="182" y="451" on="0"/>
        <pt x="183" y="399" on="0"/>
        <pt x="184" y="344" on="0"/>
        <pt x="186" y="289" on="0"/>
        <pt x="186" y="265" on="1"/>
        <pt x="195" y="263" on="0"/>
        <pt x="213" y="262" on="0"/>
        <pt x="220" y="262" on="1"/>
        <pt x="257" y="262" on="0"/>
        <pt x="320" y="294" on="0"/>
        <pt x="367" y="349" on="0"/>
        <pt x="393" y="423" on="0"/>
        <pt x="393" y="465" on="1"/>
        <pt x="393" y="496" on="0"/>
        <pt x="376" y="567" on="0"/>
        <pt x="335" y="625" on="0"/>
        <pt x="268" y="664" on="0"/>
      </contour>
    </TTGlyph>
    <TTGlyph name="Dcaron" xMin="24" yMin="-11" xMax="615" yMax="1045">
      <contour>
        <pt x="24" y="815" on="1"/>
        <pt x="81" y="823" on="0"/>
        <pt x="185" y="830" on="0"/>
        <pt x="222" y="830" on="1"/>
        <pt x="310" y="830" on="0"/>
        <pt x="458" y="782" on="0"/>
        <pt x="514" y="720" on="1"/>
        <pt x="565" y="662" on="0"/>
        <pt x="615" y="497" on="0"/>
        <pt x="615" y="402" on="1"/>
        <pt x="615" y="309" on="0"/>
        <pt x="567" y="157" on="0"/>
        <pt x="468" y="49" on="0"/>
        <pt x="318" y="-11" on="0"/>
        <pt x="216" y="-11" on="1"/>
        <pt x="193" y="-11" on="0"/>
        <pt x="90" y="-7" on="0"/>
        <pt x="28" y="0" on="1"/>
        <pt x="29" y="46" on="0"/>
        <pt x="30" y="133" on="0"/>
        <pt x="31" y="218" on="0"/>
        <pt x="31" y="304" on="0"/>
        <pt x="31" y="350" on="1"/>
        <pt x="31" y="481" on="0"/>
        <pt x="28" y="721" on="0"/>
      </contour>
      <contour>
        <pt x="218" y="664" on="1"/>
        <pt x="208" y="664" on="0"/>
        <pt x="191" y="662" on="0"/>
        <pt x="183" y="661" on="1"/>
        <pt x="182" y="614" on="0"/>
        <pt x="182" y="521" on="0"/>
        <pt x="182" y="474" on="1"/>
        <pt x="182" y="451" on="0"/>
        <pt x="183" y="399" on="0"/>
        <pt x="184" y="344" on="0"/>
        <pt x="186" y="289" on="0"/>
        <pt x="186" y="265" on="1"/>
        <pt x="195" y="263" on="0"/>
        <pt x="213" y="262" on="0"/>
        <pt x="220" y="262" on="1"/>
        <pt x="257" y="262" on="0"/>
        <pt x="320" y="294" on="0"/>
        <pt x="367" y="349" on="0"/>
        <pt x="393" y="423" on="0"/>
        <pt x="393" y="465" on="1"/>
        <pt x="393" y="496" on="0"/>
        <pt x="376" y="567" on="0"/>
        <pt x="335" y="625" on="0"/>
        <pt x="268" y="664" on="0"/>
      </contour>
      <contour>
        <pt x="88" y="977" on="1"/>
        <pt x="118" y="1045" on="1"/>
        <pt x="259" y="976" on="1"/>
        <pt x="400" y="1045" on="1"/>
        <pt x="430" y="977" on="1"/>
        <pt x="259" y="863" on="1"/>
      </contour>
    </TTGlyph>
    <TTGlyph name="Dcroat" xMin="4" yMin="-11" xMax="642" yMax="830">
      <contour>
        <pt x="51" y="815" on="1"/>
        <pt x="108" y="823" on="0"/>
        <pt x="212" y="830" on="0"/>
        <pt x="249" y="830" on="1"/>
        <pt x="337" y="830" on="0"/>
        <pt x="485" y="782" on="0"/>
        <pt x="541" y="720" on="1"/>
        <pt x="592" y="662" on="0"/>
        <pt x="642" y="497" on="0"/>
        <pt x="642" y="402" on="1"/>
        <pt x="642" y="309" on="0"/>
        <pt x="594" y="157" on="0"/>
        <pt x="495" y="49" on="0"/>
        <pt x="345" y="-11" on="0"/>
        <pt x="243" y="-11" on="1"/>
        <pt x="220" y="-11" on="0"/>
        <pt x="117" y="-7" on="0"/>
        <pt x="55" y="0" on="1"/>
        <pt x="56" y="46" on="0"/>
        <pt x="57" y="134" on="0"/>
        <pt x="58" y="223" on="0"/>
        <pt x="58" y="317" on="0"/>
        <pt x="58" y="371" on="1"/>
        <pt x="7" y="371" on="1"/>
        <pt x="6" y="394" on="0"/>
        <pt x="4" y="439" on="0"/>
        <pt x="4" y="462" on="1"/>
        <pt x="4" y="485" on="0"/>
        <pt x="6" y="531" on="0"/>
        <pt x="7" y="553" on="1"/>
        <pt x="57" y="553" on="1"/>
        <pt x="56" y="626" on="0"/>
        <pt x="53" y="758" on="0"/>
      </contour>
      <contour>
        <pt x="245" y="664" on="1"/>
        <pt x="235" y="664" on="0"/>
        <pt x="217" y="662" on="0"/>
        <pt x="209" y="661" on="1"/>
        <pt x="209" y="553" on="1"/>
        <pt x="279" y="553" on="1"/>
        <pt x="280" y="530" on="0"/>
        <pt x="280" y="485" on="0"/>
        <pt x="280" y="462" on="1"/>
        <pt x="280" y="439" on="0"/>
        <pt x="280" y="394" on="0"/>
        <pt x="279" y="371" on="1"/>
        <pt x="209" y="371" on="1"/>
        <pt x="209" y="265" on="1"/>
        <pt x="218" y="263" on="0"/>
        <pt x="240" y="262" on="0"/>
        <pt x="247" y="262" on="1"/>
        <pt x="284" y="262" on="0"/>
        <pt x="347" y="294" on="0"/>
        <pt x="394" y="349" on="0"/>
        <pt x="420" y="423" on="0"/>
        <pt x="420" y="465" on="1"/>
        <pt x="420" y="496" on="0"/>
        <pt x="403" y="567" on="0"/>
        <pt x="362" y="625" on="0"/>
        <pt x="295" y="664" on="0"/>
      </contour>
    </TTGlyph>
    <TTGlyph name="Ddotbelow" xMin="24" yMin="-205" xMax="615" yMax="830">
      <contour>
        <pt x="24" y="815" on="1"/>
        <pt x="81" y="823" on="0"/>
        <pt x="185" y="830" on="0"/>
        <pt x="222" y="830" on="1"/>
        <pt x="310" y="830" on="0"/>
        <pt x="458" y="782" on="0"/>
        <pt x="514" y="720" on="1"/>
        <pt x="565" y="662" on="0"/>
        <pt x="615" y="497" on="0"/>
        <pt x="615" y="402" on="1"/>
        <pt x="615" y="309" on="0"/>
        <pt x="567" y="157" on="0"/>
        <pt x="468" y="49" on="0"/>
        <pt x="318" y="-11" on="0"/>
        <pt x="216" y="-11" on="1"/>
        <pt x="193" y="-11" on="0"/>
        <pt x="90" y="-7" on="0"/>
        <pt x="28" y="0" on="1"/>
        <pt x="29" y="46" on="0"/>
        <pt x="30" y="133" on="0"/>
        <pt x="31" y="218" on="0"/>
        <pt x="31" y="304" on="0"/>
        <pt x="31" y="350" on="1"/>
        <pt x="31" y="481" on="0"/>
        <pt x="28" y="721" on="0"/>
      </contour>
      <contour>
        <pt x="218" y="664" on="1"/>
        <pt x="208" y="664" on="0"/>
        <pt x="191" y="662" on="0"/>
        <pt x="183" y="661" on="1"/>
        <pt x="182" y="614" on="0"/>
        <pt x="182" y="521" on="0"/>
        <pt x="182" y="474" on="1"/>
        <pt x="182" y="451" on="0"/>
        <pt x="183" y="399" on="0"/>
        <pt x="184" y="344" on="0"/>
        <pt x="186" y="289" on="0"/>
        <pt x="186" y="265" on="1"/>
        <pt x="195" y="263" on="0"/>
        <pt x="213" y="262" on="0"/>
        <pt x="220" y="262" on="1"/>
        <pt x="257" y="262" on="0"/>
        <pt x="320" y="294" on="0"/>
        <pt x="367" y="349" on="0"/>
        <pt x="393" y="423" on="0"/>
        <pt x="393" y="465" on="1"/>
        <pt x="393" y="496" on="0"/>
        <pt x="376" y="567" on="0"/>
        <pt x="335" y="625" on="0"/>
        <pt x="268" y="664" on="0"/>
      </contour>
      <contour>
        <pt x="233" y="-52" on="1"/>
        <pt x="269" y="-52" on="0"/>
        <pt x="308" y="-100" on="0"/>
        <pt x="308" y="-129" on="1"/>
        <pt x="308" y="-158" on="0"/>
        <pt x="269" y="-205" on="0"/>
        <pt x="233" y="-205" on="1"/>
        <pt x="197" y="-205" on="0"/>
        <pt x="158" y="-158" on="0"/>
        <pt x="158" y="-129" on="1"/>
        <pt x="158" y="-100" on="0"/>
        <pt x="197" y="-52" on="0"/>
      </contour>
    </TTGlyph>
    <TTGlyph name="E" xMin="28" yMin="-3" xMax="398" yMax="821">
      <contour>
        <pt x="398" y="-3" on="1"/>
        <pt x="370" y="-2" on="0"/>
        <pt x="278" y="-1" on="0"/>
        <pt x="173" y="0" on="0"/>
        <pt x="68" y="0" on="0"/>
        <pt x="28" y="0" on="1"/>
        <pt x="29" y="21" on="0"/>
        <pt x="30" y="91" on="0"/>
        <pt x="30" y="181" on="0"/>
        <pt x="30" y="286" on="0"/>
        <pt x="30" y="342" on="1"/>
        <pt x="30" y="418" on="0"/>
        <pt x="29" y="570" on="0"/>
        <pt x="29" y="701" on="0"/>
        <pt x="28" y="797" on="0"/>
        <pt x="28" y="817" on="1"/>
        <pt x="67" y="817" on="0"/>
        <pt x="161" y="817" on="0"/>
        <pt x="259" y="818" on="0"/>
        <pt x="353" y="820" on="0"/>
        <pt x="394" y="821" on="1"/>
        <pt x="394" y="808" on="0"/>
        <pt x="395" y="789" on="0"/>
        <pt x="395" y="772" on="1"/>
        <pt x="395" y="760" on="0"/>
        <pt x="394" y="727" on="0"/>
        <pt x="393" y="692" on="0"/>
        <pt x="392" y="657" on="0"/>
        <pt x="391" y="642" on="1"/>
        <pt x="190" y="642" on="1"/>
        <pt x="190" y="526" on="1"/>
        <pt x="365" y="526" on="1"/>
        <pt x="365" y="377" on="1"/>
        <pt x="190" y="377" on="1"/>
        <pt x="190" y="265" on="1"/>
        <pt x="394" y="265" on="1"/>
        <pt x="395" y="242" on="0"/>
        <pt x="397" y="194" on="0"/>
        <pt x="398" y="134" on="0"/>
        <pt x="398" y="53" on="0"/>
      </contour>
    </TTGlyph>
    <TTGlyph name="Eacute" xMin="28" yMin="-3" xMax="398" yMax="1040">
      <contour>
        <pt x="398" y="-3" on="1"/>
        <pt x="370" y="-2" on="0"/>
        <pt x="278" y="-1" on="0"/>
        <pt x="173" y="0" on="0"/>
        <pt x="68" y="0" on="0"/>
        <pt x="28" y="0" on="1"/>
        <pt x="29" y="21" on="0"/>
        <pt x="30" y="91" on="0"/>
        <pt x="30" y="181" on="0"/>
        <pt x="30" y="286" on="0"/>
        <pt x="30" y="342" on="1"/>
        <pt x="30" y="418" on="0"/>
        <pt x="29" y="570" on="0"/>
        <pt x="29" y="701" on="0"/>
        <pt x="28" y="797" on="0"/>
        <pt x="28" y="817" on="1"/>
        <pt x="67" y="817" on="0"/>
        <pt x="161" y="817" on="0"/>
        <pt x="259" y="818" on="0"/>
        <pt x="353" y="820" on="0"/>
        <pt x="394" y="821" on="1"/>
        <pt x="394" y="808" on="0"/>
        <pt x="395" y="789" on="0"/>
        <pt x="395" y="772" on="1"/>
        <pt x="395" y="760" on="0"/>
        <pt x="394" y="727" on="0"/>
        <pt x="393" y="692" on="0"/>
        <pt x="392" y="657" on="0"/>
        <pt x="391" y="642" on="1"/>
        <pt x="190" y="642" on="1"/>
        <pt x="190" y="526" on="1"/>
        <pt x="365" y="526" on="1"/>
        <pt x="365" y="377" on="1"/>
        <pt x="190" y="377" on="1"/>
        <pt x="190" y="265" on="1"/>
        <pt x="394" y="265" on="1"/>
        <pt x="395" y="242" on="0"/>
        <pt x="397" y="194" on="0"/>
        <pt x="398" y="134" on="0"/>
        <pt x="398" y="53" on="0"/>
      </contour>
      <contour>
        <pt x="234" y="1040" on="1"/>
        <pt x="380" y="1040" on="1"/>
        <pt x="252" y="849" on="1"/>
        <pt x="161" y="849" on="1"/>
      </contour>
    </TTGlyph>
    <TTGlyph name="Ebreve" xMin="28" yMin="-3" xMax="398" yMax="1016">
      <contour>
        <pt x="398" y="-3" on="1"/>
        <pt x="370" y="-2" on="0"/>
        <pt x="278" y="-1" on="0"/>
        <pt x="173" y="0" on="0"/>
        <pt x="68" y="0" on="0"/>
        <pt x="28" y="0" on="1"/>
        <pt x="29" y="21" on="0"/>
        <pt x="30" y="91" on="0"/>
        <pt x="30" y="181" on="0"/>
        <pt x="30" y="286" on="0"/>
        <pt x="30" y="342" on="1"/>
        <pt x="30" y="418" on="0"/>
        <pt x="29" y="570" on="0"/>
        <pt x="29" y="701" on="0"/>
        <pt x="28" y="797" on="0"/>
        <pt x="28" y="817" on="1"/>
        <pt x="67" y="817" on="0"/>
        <pt x="161" y="817" on="0"/>
        <pt x="259" y="818" on="0"/>
        <pt x="353" y="820" on="0"/>
        <pt x="394" y="821" on="1"/>
        <pt x="394" y="808" on="0"/>
        <pt x="395" y="789" on="0"/>
        <pt x="395" y="772" on="1"/>
        <pt x="395" y="760" on="0"/>
        <pt x="394" y="727" on="0"/>
        <pt x="393" y="692" on="0"/>
        <pt x="392" y="657" on="0"/>
        <pt x="391" y="642" on="1"/>
        <pt x="190" y="642" on="1"/>
        <pt x="190" y="526" on="1"/>
        <pt x="365" y="526" on="1"/>
        <pt x="365" y="377" on="1"/>
        <pt x="190" y="377" on="1"/>
        <pt x="190" y="265" on="1"/>
        <pt x="394" y="265" on="1"/>
        <pt x="395" y="242" on="0"/>
        <pt x="397" y="194" on="0"/>
        <pt x="398" y="134" on="0"/>
        <pt x="398" y="53" on="0"/>
      </contour>
      <contour>
        <pt x="370" y="1016" on="1"/>
        <pt x="370" y="981" on="0"/>
        <pt x="345" y="927" on="0"/>
        <pt x="305" y="891" on="0"/>
        <pt x="252" y="872" on="0"/>
        <pt x="224" y="872" on="1"/>
        <pt x="195" y="872" on="0"/>
        <pt x="143" y="891" on="0"/>
        <pt x="103" y="927" on="0"/>
        <pt x="78" y="981" on="0"/>
        <pt x="78" y="1016" on="1"/>
        <pt x="147" y="1016" on="1"/>
        <pt x="149" y="978" on="0"/>
        <pt x="192" y="932" on="0"/>
        <pt x="224" y="932" on="1"/>
        <pt x="256" y="932" on="0"/>
        <pt x="299" y="978" on="0"/>
        <pt x="301" y="1016" on="1"/>
      </contour>
    </TTGlyph>
    <TTGlyph name="Ecaron" xMin="28" yMin="-3" xMax="398" yMax="1045">
      <contour>
        <pt x="398" y="-3" on="1"/>
        <pt x="370" y="-2" on="0"/>
        <pt x="278" y="-1" on="0"/>
        <pt x="173" y="0" on="0"/>
        <pt x="68" y="0" on="0"/>
        <pt x="28" y="0" on="1"/>
        <pt x="29" y="21" on="0"/>
        <pt x="30" y="91" on="0"/>
        <pt x="30" y="181" on="0"/>
        <pt x="30" y="286" on="0"/>
        <pt x="30" y="342" on="1"/>
        <pt x="30" y="418" on="0"/>
        <pt x="29" y="570" on="0"/>
        <pt x="29" y="701" on="0"/>
        <pt x="28" y="797" on="0"/>
        <pt x="28" y="817" on="1"/>
        <pt x="67" y="817" on="0"/>
        <pt x="161" y="817" on="0"/>
        <pt x="259" y="818" on="0"/>
        <pt x="353" y="820" on="0"/>
        <pt x="394" y="821" on="1"/>
        <pt x="394" y="808" on="0"/>
        <pt x="395" y="789" on="0"/>
        <pt x="395" y="772" on="1"/>
        <pt x="395" y="760" on="0"/>
        <pt x="394" y="727" on="0"/>
        <pt x="393" y="692" on="0"/>
        <pt x="392" y="657" on="0"/>
        <pt x="391" y="642" on="1"/>
        <pt x="190" y="642" on="1"/>
        <pt x="190" y="526" on="1"/>
        <pt x="365" y="526" on="1"/>
        <pt x="365" y="377" on="1"/>
        <pt x="190" y="377" on="1"/>
        <pt x="190" y="265" on="1"/>
        <pt x="394" y="265" on="1"/>
        <pt x="395" y="242" on="0"/>
        <pt x="397" y="194" on="0"/>
        <pt x="398" y="134" on="0"/>
        <pt x="398" y="53" on="0"/>
      </contour>
      <contour>
        <pt x="53" y="977" on="1"/>
        <pt x="83" y="1045" on="1"/>
        <pt x="224" y="976" on="1"/>
        <pt x="365" y="1045" on="1"/>
        <pt x="395" y="977" on="1"/>
        <pt x="224" y="863" on="1"/>
      </contour>
    </TTGlyph>
    <TTGlyph name="Ecircumflex" xMin="28" yMin="-3" xMax="398" yMax="1045">
      <contour>
        <pt x="398" y="-3" on="1"/>
        <pt x="370" y="-2" on="0"/>
        <pt x="278" y="-1" on="0"/>
        <pt x="173" y="0" on="0"/>
        <pt x="68" y="0" on="0"/>
        <pt x="28" y="0" on="1"/>
        <pt x="29" y="21" on="0"/>
        <pt x="30" y="91" on="0"/>
        <pt x="30" y="181" on="0"/>
        <pt x="30" y="286" on="0"/>
        <pt x="30" y="342" on="1"/>
        <pt x="30" y="418" on="0"/>
        <pt x="29" y="570" on="0"/>
        <pt x="29" y="701" on="0"/>
        <pt x="28" y="797" on="0"/>
        <pt x="28" y="817" on="1"/>
        <pt x="67" y="817" on="0"/>
        <pt x="161" y="817" on="0"/>
        <pt x="259" y="818" on="0"/>
        <pt x="353" y="820" on="0"/>
        <pt x="394" y="821" on="1"/>
        <pt x="394" y="808" on="0"/>
        <pt x="395" y="789" on="0"/>
        <pt x="395" y="772" on="1"/>
        <pt x="395" y="760" on="0"/>
        <pt x="394" y="727" on="0"/>
        <pt x="393" y="692" on="0"/>
        <pt x="392" y="657" on="0"/>
        <pt x="391" y="642" on="1"/>
        <pt x="190" y="642" on="1"/>
        <pt x="190" y="526" on="1"/>
        <pt x="365" y="526" on="1"/>
        <pt x="365" y="377" on="1"/>
        <pt x="190" y="377" on="1"/>
        <pt x="190" y="265" on="1"/>
        <pt x="394" y="265" on="1"/>
        <pt x="395" y="242" on="0"/>
        <pt x="397" y="194" on="0"/>
        <pt x="398" y="134" on="0"/>
        <pt x="398" y="53" on="0"/>
      </contour>
      <contour>
        <pt x="224" y="1045" on="1"/>
        <pt x="395" y="932" on="1"/>
        <pt x="365" y="864" on="1"/>
        <pt x="224" y="932" on="1"/>
        <pt x="83" y="864" on="1"/>
        <pt x="53" y="932" on="1"/>
      </contour>
    </TTGlyph>
    <TTGlyph name="Edieresis" xMin="28" yMin="-3" xMax="398" yMax="1012">
      <contour>
        <pt x="398" y="-3" on="1"/>
        <pt x="370" y="-2" on="0"/>
        <pt x="278" y="-1" on="0"/>
        <pt x="173" y="0" on="0"/>
        <pt x="68" y="0" on="0"/>
        <pt x="28" y="0" on="1"/>
        <pt x="29" y="21" on="0"/>
        <pt x="30" y="91" on="0"/>
        <pt x="30" y="181" on="0"/>
        <pt x="30" y="286" on="0"/>
        <pt x="30" y="342" on="1"/>
        <pt x="30" y="418" on="0"/>
        <pt x="29" y="570" on="0"/>
        <pt x="29" y="701" on="0"/>
        <pt x="28" y="797" on="0"/>
        <pt x="28" y="817" on="1"/>
        <pt x="67" y="817" on="0"/>
        <pt x="161" y="817" on="0"/>
        <pt x="259" y="818" on="0"/>
        <pt x="353" y="820" on="0"/>
        <pt x="394" y="821" on="1"/>
        <pt x="394" y="808" on="0"/>
        <pt x="395" y="789" on="0"/>
        <pt x="395" y="772" on="1"/>
        <pt x="395" y="760" on="0"/>
        <pt x="394" y="727" on="0"/>
        <pt x="393" y="692" on="0"/>
        <pt x="392" y="657" on="0"/>
        <pt x="391" y="642" on="1"/>
        <pt x="190" y="642" on="1"/>
        <pt x="190" y="526" on="1"/>
        <pt x="365" y="526" on="1"/>
        <pt x="365" y="377" on="1"/>
        <pt x="190" y="377" on="1"/>
        <pt x="190" y="265" on="1"/>
        <pt x="394" y="265" on="1"/>
        <pt x="395" y="242" on="0"/>
        <pt x="397" y="194" on="0"/>
        <pt x="398" y="134" on="0"/>
        <pt x="398" y="53" on="0"/>
      </contour>
      <contour>
        <pt x="58" y="939" on="1"/>
        <pt x="58" y="978" on="0"/>
        <pt x="105" y="1012" on="0"/>
        <pt x="132" y="1012" on="1"/>
        <pt x="164" y="1012" on="0"/>
        <pt x="201" y="970" on="0"/>
        <pt x="201" y="939" on="1"/>
        <pt x="201" y="907" on="0"/>
        <pt x="162" y="866" on="0"/>
        <pt x="133" y="866" on="1"/>
        <pt x="121" y="866" on="0"/>
        <pt x="95" y="874" on="0"/>
        <pt x="72" y="891" on="0"/>
        <pt x="58" y="919" on="0"/>
      </contour>
      <contour>
        <pt x="247" y="940" on="1"/>
        <pt x="247" y="959" on="0"/>
        <pt x="260" y="986" on="0"/>
        <pt x="281" y="1004" on="0"/>
        <pt x="307" y="1012" on="0"/>
        <pt x="320" y="1012" on="1"/>
        <pt x="352" y="1012" on="0"/>
        <pt x="390" y="970" on="0"/>
        <pt x="390" y="939" on="1"/>
        <pt x="390" y="907" on="0"/>
        <pt x="351" y="866" on="0"/>
        <pt x="322" y="866" on="1"/>
        <pt x="310" y="866" on="0"/>
        <pt x="284" y="874" on="0"/>
        <pt x="261" y="891" on="0"/>
        <pt x="247" y="919" on="0"/>
      </contour>
    </TTGlyph>
    <TTGlyph name="Edotaccent" xMin="28" yMin="-3" xMax="398" yMax="1026">
      <contour>
        <pt x="398" y="-3" on="1"/>
        <pt x="370" y="-2" on="0"/>
        <pt x="278" y="-1" on="0"/>
        <pt x="173" y="0" on="0"/>
        <pt x="68" y="0" on="0"/>
        <pt x="28" y="0" on="1"/>
        <pt x="29" y="21" on="0"/>
        <pt x="30" y="91" on="0"/>
        <pt x="30" y="181" on="0"/>
        <pt x="30" y="286" on="0"/>
        <pt x="30" y="342" on="1"/>
        <pt x="30" y="418" on="0"/>
        <pt x="29" y="570" on="0"/>
        <pt x="29" y="701" on="0"/>
        <pt x="28" y="797" on="0"/>
        <pt x="28" y="817" on="1"/>
        <pt x="67" y="817" on="0"/>
        <pt x="161" y="817" on="0"/>
        <pt x="259" y="818" on="0"/>
        <pt x="353" y="820" on="0"/>
        <pt x="394" y="821" on="1"/>
        <pt x="394" y="808" on="0"/>
        <pt x="395" y="789" on="0"/>
        <pt x="395" y="772" on="1"/>
        <pt x="395" y="760" on="0"/>
        <pt x="394" y="727" on="0"/>
        <pt x="393" y="692" on="0"/>
        <pt x="392" y="657" on="0"/>
        <pt x="391" y="642" on="1"/>
        <pt x="190" y="642" on="1"/>
        <pt x="190" y="526" on="1"/>
        <pt x="365" y="526" on="1"/>
        <pt x="365" y="377" on="1"/>
        <pt x="190" y="377" on="1"/>
        <pt x="190" y="265" on="1"/>
        <pt x="394" y="265" on="1"/>
        <pt x="395" y="242" on="0"/>
        <pt x="397" y="194" on="0"/>
        <pt x="398" y="134" on="0"/>
        <pt x="398" y="53" on="0"/>
      </contour>
      <contour>
        <pt x="138" y="939" on="1"/>
        <pt x="138" y="983" on="0"/>
        <pt x="193" y="1026" on="0"/>
        <pt x="226" y="1026" on="1"/>
        <pt x="263" y="1026" on="0"/>
        <pt x="310" y="979" on="0"/>
        <pt x="310" y="942" on="1"/>
        <pt x="310" y="901" on="0"/>
        <pt x="257" y="854" on="0"/>
        <pt x="222" y="854" on="1"/>
        <pt x="206" y="854" on="0"/>
        <pt x="176" y="865" on="0"/>
        <pt x="152" y="886" on="0"/>
        <pt x="138" y="918" on="0"/>
      </contour>
    </TTGlyph>
    <TTGlyph name="Edotbelow" xMin="28" yMin="-205" xMax="398" yMax="821">
      <contour>
        <pt x="398" y="-3" on="1"/>
        <pt x="370" y="-2" on="0"/>
        <pt x="278" y="-1" on="0"/>
        <pt x="173" y="0" on="0"/>
        <pt x="68" y="0" on="0"/>
        <pt x="28" y="0" on="1"/>
        <pt x="29" y="21" on="0"/>
        <pt x="30" y="91" on="0"/>
        <pt x="30" y="181" on="0"/>
        <pt x="30" y="286" on="0"/>
        <pt x="30" y="342" on="1"/>
        <pt x="30" y="418" on="0"/>
        <pt x="29" y="570" on="0"/>
        <pt x="29" y="701" on="0"/>
        <pt x="28" y="797" on="0"/>
        <pt x="28" y="817" on="1"/>
        <pt x="67" y="817" on="0"/>
        <pt x="161" y="817" on="0"/>
        <pt x="259" y="818" on="0"/>
        <pt x="353" y="820" on="0"/>
        <pt x="394" y="821" on="1"/>
        <pt x="394" y="808" on="0"/>
        <pt x="395" y="789" on="0"/>
        <pt x="395" y="772" on="1"/>
        <pt x="395" y="760" on="0"/>
        <pt x="394" y="727" on="0"/>
        <pt x="393" y="692" on="0"/>
        <pt x="392" y="657" on="0"/>
        <pt x="391" y="642" on="1"/>
        <pt x="190" y="642" on="1"/>
        <pt x="190" y="526" on="1"/>
        <pt x="365" y="526" on="1"/>
        <pt x="365" y="377" on="1"/>
        <pt x="190" y="377" on="1"/>
        <pt x="190" y="265" on="1"/>
        <pt x="394" y="265" on="1"/>
        <pt x="395" y="242" on="0"/>
        <pt x="397" y="194" on="0"/>
        <pt x="398" y="134" on="0"/>
        <pt x="398" y="53" on="0"/>
      </contour>
      <contour>
        <pt x="226" y="-52" on="1"/>
        <pt x="262" y="-52" on="0"/>
        <pt x="301" y="-100" on="0"/>
        <pt x="301" y="-129" on="1"/>
        <pt x="301" y="-158" on="0"/>
        <pt x="262" y="-205" on="0"/>
        <pt x="226" y="-205" on="1"/>
        <pt x="190" y="-205" on="0"/>
        <pt x="151" y="-158" on="0"/>
        <pt x="151" y="-129" on="1"/>
        <pt x="151" y="-100" on="0"/>
        <pt x="190" y="-52" on="0"/>
      </contour>
    </TTGlyph>
    <TTGlyph name="Egrave" xMin="28" yMin="-3" xMax="398" yMax="1040">
      <contour>
        <pt x="398" y="-3" on="1"/>
        <pt x="370" y="-2" on="0"/>
        <pt x="278" y="-1" on="0"/>
        <pt x="173" y="0" on="0"/>
        <pt x="68" y="0" on="0"/>
        <pt x="28" y="0" on="1"/>
        <pt x="29" y="21" on="0"/>
        <pt x="30" y="91" on="0"/>
        <pt x="30" y="181" on="0"/>
        <pt x="30" y="286" on="0"/>
        <pt x="30" y="342" on="1"/>
        <pt x="30" y="418" on="0"/>
        <pt x="29" y="570" on="0"/>
        <pt x="29" y="701" on="0"/>
        <pt x="28" y="797" on="0"/>
        <pt x="28" y="817" on="1"/>
        <pt x="67" y="817" on="0"/>
        <pt x="161" y="817" on="0"/>
        <pt x="259" y="818" on="0"/>
        <pt x="353" y="820" on="0"/>
        <pt x="394" y="821" on="1"/>
        <pt x="394" y="808" on="0"/>
        <pt x="395" y="789" on="0"/>
        <pt x="395" y="772" on="1"/>
        <pt x="395" y="760" on="0"/>
        <pt x="394" y="727" on="0"/>
        <pt x="393" y="692" on="0"/>
        <pt x="392" y="657" on="0"/>
        <pt x="391" y="642" on="1"/>
        <pt x="190" y="642" on="1"/>
        <pt x="190" y="526" on="1"/>
        <pt x="365" y="526" on="1"/>
        <pt x="365" y="377" on="1"/>
        <pt x="190" y="377" on="1"/>
        <pt x="190" y="265" on="1"/>
        <pt x="394" y="265" on="1"/>
        <pt x="395" y="242" on="0"/>
        <pt x="397" y="194" on="0"/>
        <pt x="398" y="134" on="0"/>
        <pt x="398" y="53" on="0"/>
      </contour>
      <contour>
        <pt x="287" y="849" on="1"/>
        <pt x="196" y="849" on="1"/>
        <pt x="68" y="1040" on="1"/>
        <pt x="214" y="1040" on="1"/>
      </contour>
    </TTGlyph>
    <TTGlyph name="Emacron" xMin="28" yMin="-3" xMax="398" yMax="995">
      <contour>
        <pt x="398" y="-3" on="1"/>
        <pt x="370" y="-2" on="0"/>
        <pt x="278" y="-1" on="0"/>
        <pt x="173" y="0" on="0"/>
        <pt x="68" y="0" on="0"/>
        <pt x="28" y="0" on="1"/>
        <pt x="29" y="21" on="0"/>
        <pt x="30" y="91" on="0"/>
        <pt x="30" y="181" on="0"/>
        <pt x="30" y="286" on="0"/>
        <pt x="30" y="342" on="1"/>
        <pt x="30" y="418" on="0"/>
        <pt x="29" y="570" on="0"/>
        <pt x="29" y="701" on="0"/>
        <pt x="28" y="797" on="0"/>
        <pt x="28" y="817" on="1"/>
        <pt x="67" y="817" on="0"/>
        <pt x="161" y="817" on="0"/>
        <pt x="259" y="818" on="0"/>
        <pt x="353" y="820" on="0"/>
        <pt x="394" y="821" on="1"/>
        <pt x="394" y="808" on="0"/>
        <pt x="395" y="789" on="0"/>
        <pt x="395" y="772" on="1"/>
        <pt x="395" y="760" on="0"/>
        <pt x="394" y="727" on="0"/>
        <pt x="393" y="692" on="0"/>
        <pt x="392" y="657" on="0"/>
        <pt x="391" y="642" on="1"/>
        <pt x="190" y="642" on="1"/>
        <pt x="190" y="526" on="1"/>
        <pt x="365" y="526" on="1"/>
        <pt x="365" y="377" on="1"/>
        <pt x="190" y="377" on="1"/>
        <pt x="190" y="265" on="1"/>
        <pt x="394" y="265" on="1"/>
        <pt x="395" y="242" on="0"/>
        <pt x="397" y="194" on="0"/>
        <pt x="398" y="134" on="0"/>
        <pt x="398" y="53" on="0"/>
      </contour>
      <contour>
        <pt x="397" y="995" on="1"/>
        <pt x="397" y="901" on="1"/>
        <pt x="67" y="901" on="1"/>
        <pt x="67" y="995" on="1"/>
      </contour>
    </TTGlyph>
    <TTGlyph name="Eng" xMin="27" yMin="-193" xMax="569" yMax="818">
      <contour>
        <pt x="566" y="247" on="1"/>
        <pt x="566" y="175" on="0"/>
        <pt x="564" y="79" on="0"/>
        <pt x="562" y="17" on="0"/>
        <pt x="559" y="-16" on="0"/>
        <pt x="558" y="-26" on="1"/>
        <pt x="547" y="-109" on="0"/>
        <pt x="450" y="-193" on="0"/>
        <pt x="369" y="-193" on="1"/>
        <pt x="346" y="-193" on="0"/>
        <pt x="285" y="-186" on="0"/>
        <pt x="238" y="-177" on="1"/>
        <pt x="235" y="-157" on="0"/>
        <pt x="233" y="-134" on="0"/>
        <pt x="233" y="-119" on="1"/>
        <pt x="233" y="-105" on="0"/>
        <pt x="235" y="-74" on="0"/>
        <pt x="238" y="-52" on="1"/>
        <pt x="259" y="-60" on="0"/>
        <pt x="322" y="-69" on="0"/>
        <pt x="346" y="-69" on="1"/>
        <pt x="381" y="-69" on="0"/>
        <pt x="419" y="-37" on="0"/>
        <pt x="419" y="1" on="1"/>
        <pt x="164" y="489" on="1"/>
        <pt x="164" y="0" on="1"/>
        <pt x="27" y="0" on="1"/>
        <pt x="29" y="103" on="0"/>
        <pt x="31" y="306" on="0"/>
        <pt x="31" y="409" on="1"/>
        <pt x="31" y="512" on="0"/>
        <pt x="29" y="715" on="0"/>
        <pt x="27" y="818" on="1"/>
        <pt x="196" y="818" on="1"/>
        <pt x="426" y="340" on="1"/>
        <pt x="426" y="818" on="1"/>
        <pt x="569" y="818" on="1"/>
      </contour>
    </TTGlyph>
    <TTGlyph name="Eogonek" xMin="28" yMin="-205" xMax="398" yMax="821">
      <contour>
        <pt x="318" y="-183" on="1"/>
        <pt x="255" y="-205" on="0"/>
        <pt x="212" y="-205" on="1"/>
        <pt x="172" y="-205" on="0"/>
        <pt x="126" y="-167" on="0"/>
        <pt x="126" y="-135" on="1"/>
        <pt x="126" y="-106" on="0"/>
        <pt x="164" y="-35" on="0"/>
        <pt x="199" y="0" on="1"/>
        <pt x="28" y="0" on="1"/>
        <pt x="29" y="21" on="0"/>
        <pt x="30" y="91" on="0"/>
        <pt x="30" y="181" on="0"/>
        <pt x="30" y="286" on="0"/>
        <pt x="30" y="342" on="1"/>
        <pt x="30" y="418" on="0"/>
        <pt x="29" y="570" on="0"/>
        <pt x="29" y="701" on="0"/>
        <pt x="28" y="797" on="0"/>
        <pt x="28" y="817" on="1"/>
        <pt x="67" y="817" on="0"/>
        <pt x="161" y="817" on="0"/>
        <pt x="259" y="818" on="0"/>
        <pt x="353" y="820" on="0"/>
        <pt x="394" y="821" on="1"/>
        <pt x="394" y="808" on="0"/>
        <pt x="395" y="789" on="0"/>
        <pt x="395" y="772" on="1"/>
        <pt x="395" y="760" on="0"/>
        <pt x="394" y="727" on="0"/>
        <pt x="393" y="692" on="0"/>
        <pt x="392" y="657" on="0"/>
        <pt x="391" y="642" on="1"/>
        <pt x="190" y="642" on="1"/>
        <pt x="190" y="526" on="1"/>
        <pt x="365" y="526" on="1"/>
        <pt x="365" y="377" on="1"/>
        <pt x="190" y="377" on="1"/>
        <pt x="190" y="265" on="1"/>
        <pt x="394" y="265" on="1"/>
        <pt x="395" y="242" on="0"/>
        <pt x="397" y="195" on="0"/>
        <pt x="398" y="135" on="0"/>
        <pt x="398" y="55" on="0"/>
        <pt x="398" y="-1" on="1"/>
        <pt x="284" y="-1" on="1"/>
        <pt x="254" y="-29" on="0"/>
        <pt x="216" y="-91" on="0"/>
        <pt x="216" y="-111" on="1"/>
        <pt x="216" y="-132" on="0"/>
        <pt x="238" y="-132" on="1"/>
        <pt x="252" y="-132" on="0"/>
        <pt x="292" y="-124" on="0"/>
        <pt x="311" y="-116" on="1"/>
      </contour>
    </TTGlyph>
    <TTGlyph name="Eth" xMin="4" yMin="-11" xMax="642" yMax="830">
      <contour>
        <pt x="51" y="815" on="1"/>
        <pt x="108" y="823" on="0"/>
        <pt x="212" y="830" on="0"/>
        <pt x="249" y="830" on="1"/>
        <pt x="337" y="830" on="0"/>
        <pt x="485" y="782" on="0"/>
        <pt x="541" y="720" on="1"/>
        <pt x="592" y="662" on="0"/>
        <pt x="642" y="497" on="0"/>
        <pt x="642" y="402" on="1"/>
        <pt x="642" y="309" on="0"/>
        <pt x="594" y="157" on="0"/>
        <pt x="495" y="49" on="0"/>
        <pt x="345" y="-11" on="0"/>
        <pt x="243" y="-11" on="1"/>
        <pt x="220" y="-11" on="0"/>
        <pt x="117" y="-7" on="0"/>
        <pt x="55" y="0" on="1"/>
        <pt x="56" y="46" on="0"/>
        <pt x="57" y="134" on="0"/>
        <pt x="58" y="223" on="0"/>
        <pt x="58" y="317" on="0"/>
        <pt x="58" y="371" on="1"/>
        <pt x="7" y="371" on="1"/>
        <pt x="6" y="394" on="0"/>
        <pt x="4" y="439" on="0"/>
        <pt x="4" y="462" on="1"/>
        <pt x="4" y="485" on="0"/>
        <pt x="6" y="531" on="0"/>
        <pt x="7" y="553" on="1"/>
        <pt x="57" y="553" on="1"/>
        <pt x="56" y="626" on="0"/>
        <pt x="53" y="758" on="0"/>
      </contour>
      <contour>
        <pt x="245" y="664" on="1"/>
        <pt x="235" y="664" on="0"/>
        <pt x="217" y="662" on="0"/>
        <pt x="209" y="661" on="1"/>
        <pt x="209" y="553" on="1"/>
        <pt x="279" y="553" on="1"/>
        <pt x="280" y="530" on="0"/>
        <pt x="280" y="485" on="0"/>
        <pt x="280" y="462" on="1"/>
        <pt x="280" y="439" on="0"/>
        <pt x="280" y="394" on="0"/>
        <pt x="279" y="371" on="1"/>
        <pt x="209" y="371" on="1"/>
        <pt x="209" y="265" on="1"/>
        <pt x="218" y="263" on="0"/>
        <pt x="240" y="262" on="0"/>
        <pt x="247" y="262" on="1"/>
        <pt x="284" y="262" on="0"/>
        <pt x="347" y="294" on="0"/>
        <pt x="394" y="349" on="0"/>
        <pt x="420" y="423" on="0"/>
        <pt x="420" y="465" on="1"/>
        <pt x="420" y="496" on="0"/>
        <pt x="403" y="567" on="0"/>
        <pt x="362" y="625" on="0"/>
        <pt x="295" y="664" on="0"/>
      </contour>
    </TTGlyph>
    <TTGlyph name="Etilde" xMin="28" yMin="-3" xMax="421" yMax="1017">
      <contour>
        <pt x="398" y="-3" on="1"/>
        <pt x="370" y="-2" on="0"/>
        <pt x="278" y="-1" on="0"/>
        <pt x="173" y="0" on="0"/>
        <pt x="68" y="0" on="0"/>
        <pt x="28" y="0" on="1"/>
        <pt x="29" y="21" on="0"/>
        <pt x="30" y="91" on="0"/>
        <pt x="30" y="181" on="0"/>
        <pt x="30" y="286" on="0"/>
        <pt x="30" y="342" on="1"/>
        <pt x="30" y="418" on="0"/>
        <pt x="29" y="570" on="0"/>
        <pt x="29" y="701" on="0"/>
        <pt x="28" y="797" on="0"/>
        <pt x="28" y="817" on="1"/>
        <pt x="67" y="817" on="0"/>
        <pt x="161" y="817" on="0"/>
        <pt x="259" y="818" on="0"/>
        <pt x="353" y="820" on="0"/>
        <pt x="394" y="821" on="1"/>
        <pt x="394" y="808" on="0"/>
        <pt x="395" y="789" on="0"/>
        <pt x="395" y="772" on="1"/>
        <pt x="395" y="760" on="0"/>
        <pt x="394" y="727" on="0"/>
        <pt x="393" y="692" on="0"/>
        <pt x="392" y="657" on="0"/>
        <pt x="391" y="642" on="1"/>
        <pt x="190" y="642" on="1"/>
        <pt x="190" y="526" on="1"/>
        <pt x="365" y="526" on="1"/>
        <pt x="365" y="377" on="1"/>
        <pt x="190" y="377" on="1"/>
        <pt x="190" y="265" on="1"/>
        <pt x="394" y="265" on="1"/>
        <pt x="395" y="242" on="0"/>
        <pt x="397" y="194" on="0"/>
        <pt x="398" y="134" on="0"/>
        <pt x="398" y="53" on="0"/>
      </contour>
      <contour>
        <pt x="42" y="989" on="1"/>
        <pt x="68" y="1004" on="0"/>
        <pt x="113" y="1017" on="0"/>
        <pt x="134" y="1017" on="1"/>
        <pt x="162" y="1017" on="0"/>
        <pt x="209" y="999" on="0"/>
        <pt x="253" y="978" on="0"/>
        <pt x="296" y="960" on="0"/>
        <pt x="320" y="960" on="1"/>
        <pt x="341" y="960" on="0"/>
        <pt x="392" y="981" on="0"/>
        <pt x="421" y="1007" on="1"/>
        <pt x="421" y="899" on="1"/>
        <pt x="392" y="877" on="0"/>
        <pt x="341" y="860" on="0"/>
        <pt x="319" y="860" on="1"/>
        <pt x="292" y="860" on="0"/>
        <pt x="246" y="878" on="0"/>
        <pt x="201" y="900" on="0"/>
        <pt x="157" y="918" on="0"/>
        <pt x="133" y="918" on="1"/>
        <pt x="112" y="918" on="0"/>
        <pt x="68" y="901" on="0"/>
        <pt x="42" y="879" on="1"/>
      </contour>
    </TTGlyph>
    <TTGlyph name="Euro" xMin="18" yMin="-11" xMax="559" yMax="830">
      <contour>
        <pt x="250" y="443" on="1"/>
        <pt x="249" y="434" on="0"/>
        <pt x="249" y="416" on="0"/>
        <pt x="249" y="407" on="1"/>
        <pt x="249" y="398" on="0"/>
        <pt x="249" y="380" on="0"/>
        <pt x="250" y="371" on="1"/>
        <pt x="507" y="371" on="1"/>
        <pt x="507" y="262" on="1"/>
        <pt x="270" y="262" on="1"/>
        <pt x="288" y="214" on="0"/>
        <pt x="362" y="150" on="0"/>
        <pt x="429" y="150" on="1"/>
        <pt x="475" y="150" on="0"/>
        <pt x="535" y="167" on="1"/>
        <pt x="559" y="16" on="1"/>
        <pt x="473" y="-11" on="0"/>
        <pt x="400" y="-11" on="1"/>
        <pt x="287" y="-11" on="0"/>
        <pt x="137" y="122" on="0"/>
        <pt x="111" y="262" on="1"/>
        <pt x="18" y="262" on="1"/>
        <pt x="18" y="371" on="1"/>
        <pt x="99" y="371" on="1"/>
        <pt x="98" y="380" on="0"/>
        <pt x="98" y="398" on="0"/>
        <pt x="98" y="407" on="1"/>
        <pt x="98" y="416" on="0"/>
        <pt x="98" y="434" on="0"/>
        <pt x="99" y="443" on="1"/>
        <pt x="18" y="443" on="1"/>
        <pt x="18" y="551" on="1"/>
        <pt x="108" y="551" on="1"/>
        <pt x="132" y="694" on="0"/>
        <pt x="284" y="830" on="0"/>
        <pt x="400" y="830" on="1"/>
        <pt x="473" y="830" on="0"/>
        <pt x="559" y="803" on="1"/>
        <pt x="535" y="652" on="1"/>
        <pt x="506" y="661" on="0"/>
        <pt x="452" y="669" on="0"/>
        <pt x="429" y="669" on="1"/>
        <pt x="394" y="669" on="0"/>
        <pt x="340" y="651" on="0"/>
        <pt x="301" y="620" on="0"/>
        <pt x="275" y="576" on="0"/>
        <pt x="267" y="551" on="1"/>
        <pt x="507" y="551" on="1"/>
        <pt x="507" y="443" on="1"/>
      </contour>
    </TTGlyph>
    <TTGlyph name="F" xMin="28" yMin="0" xMax="395" yMax="822">
      <contour>
        <pt x="28" y="0" on="1"/>
        <pt x="29" y="16" on="0"/>
        <pt x="30" y="93" on="0"/>
        <pt x="30" y="198" on="0"/>
        <pt x="30" y="324" on="0"/>
        <pt x="30" y="390" on="1"/>
        <pt x="30" y="456" on="0"/>
        <pt x="30" y="587" on="0"/>
        <pt x="30" y="701" on="0"/>
        <pt x="29" y="791" on="0"/>
        <pt x="28" y="817" on="1"/>
        <pt x="67" y="817" on="0"/>
        <pt x="161" y="818" on="0"/>
        <pt x="259" y="819" on="0"/>
        <pt x="353" y="821" on="0"/>
        <pt x="394" y="822" on="1"/>
        <pt x="395" y="807" on="0"/>
        <pt x="395" y="779" on="0"/>
        <pt x="395" y="765" on="1"/>
        <pt x="395" y="736" on="0"/>
        <pt x="393" y="674" on="0"/>
        <pt x="391" y="643" on="1"/>
        <pt x="190" y="643" on="1"/>
        <pt x="190" y="493" on="1"/>
        <pt x="357" y="493" on="1"/>
        <pt x="357" y="323" on="1"/>
        <pt x="190" y="323" on="1"/>
        <pt x="190" y="273" on="0"/>
        <pt x="191" y="175" on="0"/>
        <pt x="192" y="89" on="0"/>
        <pt x="194" y="20" on="0"/>
        <pt x="195" y="0" on="1"/>
      </contour>
    </TTGlyph>
    <TTGlyph name="G" xMin="10" yMin="-11" xMax="565" yMax="830">
      <contour>
        <pt x="565" y="455" on="1"/>
        <pt x="565" y="1" on="1"/>
        <pt x="511" y="-6" on="0"/>
        <pt x="428" y="-11" on="0"/>
        <pt x="401" y="-11" on="1"/>
        <pt x="309" y="-11" on="0"/>
        <pt x="163" y="47" on="0"/>
        <pt x="63" y="156" on="0"/>
        <pt x="10" y="311" on="0"/>
        <pt x="10" y="407" on="1"/>
        <pt x="10" y="499" on="0"/>
        <pt x="60" y="654" on="0"/>
        <pt x="159" y="767" on="0"/>
        <pt x="308" y="830" on="0"/>
        <pt x="406" y="830" on="1"/>
        <pt x="448" y="830" on="0"/>
        <pt x="509" y="819" on="0"/>
        <pt x="538" y="810" on="1"/>
        <pt x="538" y="794" on="0"/>
        <pt x="539" y="756" on="0"/>
        <pt x="539" y="734" on="1"/>
        <pt x="539" y="712" on="0"/>
        <pt x="538" y="662" on="0"/>
        <pt x="538" y="642" on="1"/>
        <pt x="489" y="668" on="0"/>
        <pt x="426" y="668" on="1"/>
        <pt x="371" y="668" on="0"/>
        <pt x="297" y="631" on="0"/>
        <pt x="252" y="573" on="0"/>
        <pt x="233" y="502" on="0"/>
        <pt x="233" y="469" on="1"/>
        <pt x="233" y="431" on="0"/>
        <pt x="256" y="359" on="0"/>
        <pt x="302" y="303" on="0"/>
        <pt x="371" y="269" on="0"/>
        <pt x="418" y="269" on="1"/>
        <pt x="423" y="269" on="0"/>
        <pt x="432" y="269" on="0"/>
        <pt x="437" y="270" on="1"/>
        <pt x="437" y="455" on="1"/>
      </contour>
    </TTGlyph>
    <TTGlyph name="Gbreve" xMin="10" yMin="-11" xMax="565" yMax="1016">
      <contour>
        <pt x="565" y="455" on="1"/>
        <pt x="565" y="1" on="1"/>
        <pt x="511" y="-6" on="0"/>
        <pt x="428" y="-11" on="0"/>
        <pt x="401" y="-11" on="1"/>
        <pt x="309" y="-11" on="0"/>
        <pt x="163" y="47" on="0"/>
        <pt x="63" y="156" on="0"/>
        <pt x="10" y="311" on="0"/>
        <pt x="10" y="407" on="1"/>
        <pt x="10" y="499" on="0"/>
        <pt x="60" y="654" on="0"/>
        <pt x="159" y="767" on="0"/>
        <pt x="308" y="830" on="0"/>
        <pt x="406" y="830" on="1"/>
        <pt x="448" y="830" on="0"/>
        <pt x="509" y="819" on="0"/>
        <pt x="538" y="810" on="1"/>
        <pt x="538" y="794" on="0"/>
        <pt x="539" y="756" on="0"/>
        <pt x="539" y="734" on="1"/>
        <pt x="539" y="712" on="0"/>
        <pt x="538" y="662" on="0"/>
        <pt x="538" y="642" on="1"/>
        <pt x="489" y="668" on="0"/>
        <pt x="426" y="668" on="1"/>
        <pt x="371" y="668" on="0"/>
        <pt x="297" y="631" on="0"/>
        <pt x="252" y="573" on="0"/>
        <pt x="233" y="502" on="0"/>
        <pt x="233" y="469" on="1"/>
        <pt x="233" y="431" on="0"/>
        <pt x="256" y="359" on="0"/>
        <pt x="302" y="303" on="0"/>
        <pt x="371" y="269" on="0"/>
        <pt x="418" y="269" on="1"/>
        <pt x="423" y="269" on="0"/>
        <pt x="432" y="269" on="0"/>
        <pt x="437" y="270" on="1"/>
        <pt x="437" y="455" on="1"/>
      </contour>
      <contour>
        <pt x="506" y="1016" on="1"/>
        <pt x="506" y="981" on="0"/>
        <pt x="481" y="927" on="0"/>
        <pt x="441" y="891" on="0"/>
        <pt x="388" y="872" on="0"/>
        <pt x="360" y="872" on="1"/>
        <pt x="331" y="872" on="0"/>
        <pt x="279" y="891" on="0"/>
        <pt x="239" y="927" on="0"/>
        <pt x="214" y="981" on="0"/>
        <pt x="214" y="1016" on="1"/>
        <pt x="283" y="1016" on="1"/>
        <pt x="285" y="978" on="0"/>
        <pt x="328" y="932" on="0"/>
        <pt x="360" y="932" on="1"/>
        <pt x="392" y="932" on="0"/>
        <pt x="435" y="978" on="0"/>
        <pt x="437" y="1016" on="1"/>
      </contour>
    </TTGlyph>
    <TTGlyph name="Gcircumflex" xMin="10" yMin="-11" xMax="565" yMax="1045">
      <contour>
        <pt x="565" y="455" on="1"/>
        <pt x="565" y="1" on="1"/>
        <pt x="511" y="-6" on="0"/>
        <pt x="428" y="-11" on="0"/>
        <pt x="401" y="-11" on="1"/>
        <pt x="309" y="-11" on="0"/>
        <pt x="163" y="47" on="0"/>
        <pt x="63" y="156" on="0"/>
        <pt x="10" y="311" on="0"/>
        <pt x="10" y="407" on="1"/>
        <pt x="10" y="499" on="0"/>
        <pt x="60" y="654" on="0"/>
        <pt x="159" y="767" on="0"/>
        <pt x="308" y="830" on="0"/>
        <pt x="406" y="830" on="1"/>
        <pt x="448" y="830" on="0"/>
        <pt x="509" y="819" on="0"/>
        <pt x="538" y="810" on="1"/>
        <pt x="538" y="794" on="0"/>
        <pt x="539" y="756" on="0"/>
        <pt x="539" y="734" on="1"/>
        <pt x="539" y="712" on="0"/>
        <pt x="538" y="662" on="0"/>
        <pt x="538" y="642" on="1"/>
        <pt x="489" y="668" on="0"/>
        <pt x="426" y="668" on="1"/>
        <pt x="371" y="668" on="0"/>
        <pt x="297" y="631" on="0"/>
        <pt x="252" y="573" on="0"/>
        <pt x="233" y="502" on="0"/>
        <pt x="233" y="469" on="1"/>
        <pt x="233" y="431" on="0"/>
        <pt x="256" y="359" on="0"/>
        <pt x="302" y="303" on="0"/>
        <pt x="371" y="269" on="0"/>
        <pt x="418" y="269" on="1"/>
        <pt x="423" y="269" on="0"/>
        <pt x="432" y="269" on="0"/>
        <pt x="437" y="270" on="1"/>
        <pt x="437" y="455" on="1"/>
      </contour>
      <contour>
        <pt x="360" y="1045" on="1"/>
        <pt x="531" y="932" on="1"/>
        <pt x="501" y="864" on="1"/>
        <pt x="360" y="932" on="1"/>
        <pt x="219" y="864" on="1"/>
        <pt x="189" y="932" on="1"/>
      </contour>
    </TTGlyph>
    <TTGlyph name="Gcommaaccent" xMin="10" yMin="-205" xMax="565" yMax="830">
      <contour>
        <pt x="565" y="455" on="1"/>
        <pt x="565" y="1" on="1"/>
        <pt x="511" y="-6" on="0"/>
        <pt x="428" y="-11" on="0"/>
        <pt x="401" y="-11" on="1"/>
        <pt x="309" y="-11" on="0"/>
        <pt x="163" y="47" on="0"/>
        <pt x="63" y="156" on="0"/>
        <pt x="10" y="311" on="0"/>
        <pt x="10" y="407" on="1"/>
        <pt x="10" y="499" on="0"/>
        <pt x="60" y="654" on="0"/>
        <pt x="159" y="767" on="0"/>
        <pt x="308" y="830" on="0"/>
        <pt x="406" y="830" on="1"/>
        <pt x="448" y="830" on="0"/>
        <pt x="509" y="819" on="0"/>
        <pt x="538" y="810" on="1"/>
        <pt x="538" y="794" on="0"/>
        <pt x="539" y="756" on="0"/>
        <pt x="539" y="734" on="1"/>
        <pt x="539" y="712" on="0"/>
        <pt x="538" y="662" on="0"/>
        <pt x="538" y="642" on="1"/>
        <pt x="489" y="668" on="0"/>
        <pt x="426" y="668" on="1"/>
        <pt x="371" y="668" on="0"/>
        <pt x="297" y="631" on="0"/>
        <pt x="252" y="573" on="0"/>
        <pt x="233" y="502" on="0"/>
        <pt x="233" y="469" on="1"/>
        <pt x="233" y="431" on="0"/>
        <pt x="256" y="359" on="0"/>
        <pt x="302" y="303" on="0"/>
        <pt x="371" y="269" on="0"/>
        <pt x="418" y="269" on="1"/>
        <pt x="423" y="269" on="0"/>
        <pt x="432" y="269" on="0"/>
        <pt x="437" y="270" on="1"/>
        <pt x="437" y="455" on="1"/>
      </contour>
      <contour>
        <pt x="457" y="-55" on="1"/>
        <pt x="397" y="-205" on="1"/>
        <pt x="301" y="-205" on="1"/>
        <pt x="325" y="-55" on="1"/>
      </contour>
    </TTGlyph>
    <TTGlyph name="Gdotaccent" xMin="10" yMin="-11" xMax="565" yMax="1026">
      <contour>
        <pt x="565" y="455" on="1"/>
        <pt x="565" y="1" on="1"/>
        <pt x="511" y="-6" on="0"/>
        <pt x="428" y="-11" on="0"/>
        <pt x="401" y="-11" on="1"/>
        <pt x="309" y="-11" on="0"/>
        <pt x="163" y="47" on="0"/>
        <pt x="63" y="156" on="0"/>
        <pt x="10" y="311" on="0"/>
        <pt x="10" y="407" on="1"/>
        <pt x="10" y="499" on="0"/>
        <pt x="60" y="654" on="0"/>
        <pt x="159" y="767" on="0"/>
        <pt x="308" y="830" on="0"/>
        <pt x="406" y="830" on="1"/>
        <pt x="448" y="830" on="0"/>
        <pt x="509" y="819" on="0"/>
        <pt x="538" y="810" on="1"/>
        <pt x="538" y="794" on="0"/>
        <pt x="539" y="756" on="0"/>
        <pt x="539" y="734" on="1"/>
        <pt x="539" y="712" on="0"/>
        <pt x="538" y="662" on="0"/>
        <pt x="538" y="642" on="1"/>
        <pt x="489" y="668" on="0"/>
        <pt x="426" y="668" on="1"/>
        <pt x="371" y="668" on="0"/>
        <pt x="297" y="631" on="0"/>
        <pt x="252" y="573" on="0"/>
        <pt x="233" y="502" on="0"/>
        <pt x="233" y="469" on="1"/>
        <pt x="233" y="431" on="0"/>
        <pt x="256" y="359" on="0"/>
        <pt x="302" y="303" on="0"/>
        <pt x="371" y="269" on="0"/>
        <pt x="418" y="269" on="1"/>
        <pt x="423" y="269" on="0"/>
        <pt x="432" y="269" on="0"/>
        <pt x="437" y="270" on="1"/>
        <pt x="437" y="455" on="1"/>
      </contour>
      <contour>
        <pt x="274" y="939" on="1"/>
        <pt x="274" y="983" on="0"/>
        <pt x="329" y="1026" on="0"/>
        <pt x="362" y="1026" on="1"/>
        <pt x="399" y="1026" on="0"/>
        <pt x="446" y="979" on="0"/>
        <pt x="446" y="942" on="1"/>
        <pt x="446" y="901" on="0"/>
        <pt x="393" y="854" on="0"/>
        <pt x="358" y="854" on="1"/>
        <pt x="342" y="854" on="0"/>
        <pt x="312" y="865" on="0"/>
        <pt x="288" y="886" on="0"/>
        <pt x="274" y="918" on="0"/>
      </contour>
    </TTGlyph>
    <TTGlyph name="H" xMin="26" yMin="0" xMax="506" yMax="818">
      <contour>
        <pt x="506" y="818" on="1"/>
        <pt x="503" y="755" on="0"/>
        <pt x="500" y="643" on="0"/>
        <pt x="498" y="534" on="0"/>
        <pt x="497" y="423" on="0"/>
        <pt x="497" y="360" on="1"/>
        <pt x="497" y="286" on="0"/>
        <pt x="498" y="112" on="0"/>
        <pt x="499" y="0" on="1"/>
        <pt x="333" y="0" on="1"/>
        <pt x="335" y="60" on="0"/>
        <pt x="337" y="191" on="0"/>
        <pt x="338" y="275" on="1"/>
        <pt x="190" y="275" on="1"/>
        <pt x="190" y="216" on="0"/>
        <pt x="191" y="81" on="0"/>
        <pt x="192" y="0" on="1"/>
        <pt x="26" y="0" on="1"/>
        <pt x="27" y="44" on="0"/>
        <pt x="29" y="136" on="0"/>
        <pt x="31" y="242" on="0"/>
        <pt x="31" y="368" on="0"/>
        <pt x="31" y="445" on="1"/>
        <pt x="31" y="513" on="0"/>
        <pt x="31" y="612" on="0"/>
        <pt x="30" y="694" on="0"/>
        <pt x="30" y="771" on="0"/>
        <pt x="30" y="818" on="1"/>
        <pt x="199" y="818" on="1"/>
        <pt x="195" y="735" on="0"/>
        <pt x="191" y="594" on="0"/>
        <pt x="190" y="522" on="1"/>
        <pt x="338" y="522" on="1"/>
        <pt x="338" y="568" on="0"/>
        <pt x="338" y="643" on="0"/>
        <pt x="337" y="712" on="0"/>
        <pt x="337" y="779" on="0"/>
        <pt x="337" y="818" on="1"/>
      </contour>
    </TTGlyph>
    <TTGlyph name="Hbar" xMin="-4" yMin="0" xMax="544" yMax="818">
      <contour>
        <pt x="509" y="818" on="1"/>
        <pt x="506" y="771" on="0"/>
        <pt x="506" y="729" on="1"/>
        <pt x="544" y="729" on="1"/>
        <pt x="544" y="647" on="1"/>
        <pt x="504" y="647" on="1"/>
        <pt x="502" y="577" on="0"/>
        <pt x="501" y="440" on="0"/>
        <pt x="501" y="360" on="1"/>
        <pt x="501" y="286" on="0"/>
        <pt x="502" y="112" on="0"/>
        <pt x="503" y="0" on="1"/>
        <pt x="337" y="0" on="1"/>
        <pt x="339" y="60" on="0"/>
        <pt x="341" y="191" on="0"/>
        <pt x="342" y="275" on="1"/>
        <pt x="194" y="275" on="1"/>
        <pt x="194" y="216" on="0"/>
        <pt x="195" y="81" on="0"/>
        <pt x="196" y="0" on="1"/>
        <pt x="30" y="0" on="1"/>
        <pt x="31" y="44" on="0"/>
        <pt x="33" y="136" on="0"/>
        <pt x="35" y="242" on="0"/>
        <pt x="35" y="368" on="0"/>
        <pt x="35" y="445" on="1"/>
        <pt x="35" y="511" on="0"/>
        <pt x="34" y="606" on="0"/>
        <pt x="34" y="647" on="1"/>
        <pt x="-4" y="647" on="1"/>
        <pt x="-4" y="729" on="1"/>
        <pt x="34" y="729" on="1"/>
        <pt x="34" y="818" on="1"/>
        <pt x="202" y="818" on="1"/>
        <pt x="200" y="795" on="0"/>
        <pt x="200" y="750" on="0"/>
        <pt x="199" y="729" on="1"/>
        <pt x="341" y="729" on="1"/>
        <pt x="341" y="818" on="1"/>
      </contour>
      <contour>
        <pt x="342" y="522" on="1"/>
        <pt x="342" y="558" on="0"/>
        <pt x="341" y="619" on="0"/>
        <pt x="341" y="647" on="1"/>
        <pt x="196" y="647" on="1"/>
        <pt x="195" y="615" on="0"/>
        <pt x="194" y="554" on="0"/>
        <pt x="194" y="522" on="1"/>
      </contour>
    </TTGlyph>
    <TTGlyph name="Hcircumflex" xMin="26" yMin="0" xMax="506" yMax="1045">
      <contour>
        <pt x="506" y="818" on="1"/>
        <pt x="503" y="755" on="0"/>
        <pt x="500" y="643" on="0"/>
        <pt x="498" y="534" on="0"/>
        <pt x="497" y="423" on="0"/>
        <pt x="497" y="360" on="1"/>
        <pt x="497" y="286" on="0"/>
        <pt x="498" y="112" on="0"/>
        <pt x="499" y="0" on="1"/>
        <pt x="333" y="0" on="1"/>
        <pt x="335" y="60" on="0"/>
        <pt x="337" y="191" on="0"/>
        <pt x="338" y="275" on="1"/>
        <pt x="190" y="275" on="1"/>
        <pt x="190" y="216" on="0"/>
        <pt x="191" y="81" on="0"/>
        <pt x="192" y="0" on="1"/>
        <pt x="26" y="0" on="1"/>
        <pt x="27" y="44" on="0"/>
        <pt x="29" y="136" on="0"/>
        <pt x="31" y="242" on="0"/>
        <pt x="31" y="368" on="0"/>
        <pt x="31" y="445" on="1"/>
        <pt x="31" y="513" on="0"/>
        <pt x="31" y="612" on="0"/>
        <pt x="30" y="694" on="0"/>
        <pt x="30" y="771" on="0"/>
        <pt x="30" y="818" on="1"/>
        <pt x="199" y="818" on="1"/>
        <pt x="195" y="735" on="0"/>
        <pt x="191" y="594" on="0"/>
        <pt x="190" y="522" on="1"/>
        <pt x="338" y="522" on="1"/>
        <pt x="338" y="568" on="0"/>
        <pt x="338" y="643" on="0"/>
        <pt x="337" y="712" on="0"/>
        <pt x="337" y="779" on="0"/>
        <pt x="337" y="818" on="1"/>
      </contour>
      <contour>
        <pt x="265" y="1045" on="1"/>
        <pt x="436" y="932" on="1"/>
        <pt x="406" y="864" on="1"/>
        <pt x="265" y="932" on="1"/>
        <pt x="124" y="864" on="1"/>
        <pt x="94" y="932" on="1"/>
      </contour>
    </TTGlyph>
    <TTGlyph name="Hdotbelow" xMin="26" yMin="-205" xMax="506" yMax="818">
      <contour>
        <pt x="506" y="818" on="1"/>
        <pt x="503" y="755" on="0"/>
        <pt x="500" y="643" on="0"/>
        <pt x="498" y="534" on="0"/>
        <pt x="497" y="423" on="0"/>
        <pt x="497" y="360" on="1"/>
        <pt x="497" y="286" on="0"/>
        <pt x="498" y="112" on="0"/>
        <pt x="499" y="0" on="1"/>
        <pt x="333" y="0" on="1"/>
        <pt x="335" y="60" on="0"/>
        <pt x="337" y="191" on="0"/>
        <pt x="338" y="275" on="1"/>
        <pt x="190" y="275" on="1"/>
        <pt x="190" y="216" on="0"/>
        <pt x="191" y="81" on="0"/>
        <pt x="192" y="0" on="1"/>
        <pt x="26" y="0" on="1"/>
        <pt x="27" y="44" on="0"/>
        <pt x="29" y="136" on="0"/>
        <pt x="31" y="242" on="0"/>
        <pt x="31" y="368" on="0"/>
        <pt x="31" y="445" on="1"/>
        <pt x="31" y="513" on="0"/>
        <pt x="31" y="612" on="0"/>
        <pt x="30" y="694" on="0"/>
        <pt x="30" y="771" on="0"/>
        <pt x="30" y="818" on="1"/>
        <pt x="199" y="818" on="1"/>
        <pt x="195" y="735" on="0"/>
        <pt x="191" y="594" on="0"/>
        <pt x="190" y="522" on="1"/>
        <pt x="338" y="522" on="1"/>
        <pt x="338" y="568" on="0"/>
        <pt x="338" y="643" on="0"/>
        <pt x="337" y="712" on="0"/>
        <pt x="337" y="779" on="0"/>
        <pt x="337" y="818" on="1"/>
      </contour>
      <contour>
        <pt x="265" y="-52" on="1"/>
        <pt x="301" y="-52" on="0"/>
        <pt x="340" y="-100" on="0"/>
        <pt x="340" y="-129" on="1"/>
        <pt x="340" y="-158" on="0"/>
        <pt x="301" y="-205" on="0"/>
        <pt x="265" y="-205" on="1"/>
        <pt x="229" y="-205" on="0"/>
        <pt x="190" y="-158" on="0"/>
        <pt x="190" y="-129" on="1"/>
        <pt x="190" y="-100" on="0"/>
        <pt x="229" y="-52" on="0"/>
      </contour>
    </TTGlyph>
    <TTGlyph name="I" xMin="21" yMin="0" xMax="333" yMax="818">
      <contour>
        <pt x="99" y="283" on="1"/>
        <pt x="99" y="445" on="1"/>
        <pt x="99" y="509" on="0"/>
        <pt x="98" y="599" on="0"/>
        <pt x="98" y="637" on="1"/>
        <pt x="24" y="637" on="1"/>
        <pt x="23" y="660" on="0"/>
        <pt x="21" y="704" on="0"/>
        <pt x="21" y="727" on="1"/>
        <pt x="21" y="750" on="0"/>
        <pt x="23" y="796" on="0"/>
        <pt x="24" y="818" on="1"/>
        <pt x="332" y="818" on="1"/>
        <pt x="333" y="795" on="0"/>
        <pt x="333" y="750" on="0"/>
        <pt x="333" y="727" on="1"/>
        <pt x="333" y="704" on="0"/>
        <pt x="333" y="660" on="0"/>
        <pt x="332" y="637" on="1"/>
        <pt x="259" y="637" on="1"/>
        <pt x="257" y="570" on="0"/>
        <pt x="256" y="440" on="0"/>
        <pt x="256" y="360" on="1"/>
        <pt x="256" y="283" on="1"/>
        <pt x="332" y="283" on="1"/>
        <pt x="333" y="247" on="0"/>
        <pt x="333" y="177" on="0"/>
        <pt x="333" y="141" on="1"/>
        <pt x="333" y="106" on="0"/>
        <pt x="333" y="35" on="0"/>
        <pt x="332" y="0" on="1"/>
        <pt x="24" y="0" on="1"/>
        <pt x="23" y="35" on="0"/>
        <pt x="21" y="106" on="0"/>
        <pt x="21" y="141" on="1"/>
        <pt x="21" y="177" on="0"/>
        <pt x="23" y="247" on="0"/>
        <pt x="24" y="283" on="1"/>
      </contour>
    </TTGlyph>
    <TTGlyph name="IJ" xMin="21" yMin="-11" xMax="718" yMax="818">
      <contour>
        <pt x="99" y="283" on="1"/>
        <pt x="99" y="445" on="1"/>
        <pt x="99" y="509" on="0"/>
        <pt x="98" y="599" on="0"/>
        <pt x="98" y="637" on="1"/>
        <pt x="24" y="637" on="1"/>
        <pt x="23" y="660" on="0"/>
        <pt x="21" y="704" on="0"/>
        <pt x="21" y="727" on="1"/>
        <pt x="21" y="750" on="0"/>
        <pt x="23" y="796" on="0"/>
        <pt x="24" y="818" on="1"/>
        <pt x="332" y="818" on="1"/>
        <pt x="333" y="795" on="0"/>
        <pt x="333" y="750" on="0"/>
        <pt x="333" y="727" on="1"/>
        <pt x="333" y="704" on="0"/>
        <pt x="333" y="660" on="0"/>
        <pt x="332" y="637" on="1"/>
        <pt x="259" y="637" on="1"/>
        <pt x="257" y="570" on="0"/>
        <pt x="256" y="440" on="0"/>
        <pt x="256" y="360" on="1"/>
        <pt x="256" y="283" on="1"/>
        <pt x="332" y="283" on="1"/>
        <pt x="333" y="247" on="0"/>
        <pt x="333" y="177" on="0"/>
        <pt x="333" y="141" on="1"/>
        <pt x="333" y="106" on="0"/>
        <pt x="333" y="35" on="0"/>
        <pt x="332" y="0" on="1"/>
        <pt x="24" y="0" on="1"/>
        <pt x="23" y="35" on="0"/>
        <pt x="21" y="106" on="0"/>
        <pt x="21" y="141" on="1"/>
        <pt x="21" y="177" on="0"/>
        <pt x="23" y="247" on="0"/>
        <pt x="24" y="283" on="1"/>
      </contour>
      <contour>
        <pt x="718" y="428" on="1"/>
        <pt x="718" y="357" on="0"/>
        <pt x="717" y="263" on="0"/>
        <pt x="715" y="203" on="0"/>
        <pt x="711" y="169" on="0"/>
        <pt x="709" y="156" on="1"/>
        <pt x="696" y="81" on="0"/>
        <pt x="593" y="-11" on="0"/>
        <pt x="499" y="-11" on="1"/>
        <pt x="475" y="-11" on="0"/>
        <pt x="406" y="-4" on="0"/>
        <pt x="373" y="5" on="1"/>
        <pt x="371" y="39" on="0"/>
        <pt x="369" y="110" on="0"/>
        <pt x="369" y="145" on="1"/>
        <pt x="369" y="181" on="0"/>
        <pt x="371" y="253" on="0"/>
        <pt x="373" y="289" on="1"/>
        <pt x="398" y="278" on="0"/>
        <pt x="438" y="268" on="0"/>
        <pt x="460" y="268" on="1"/>
        <pt x="491" y="268" on="0"/>
        <pt x="530" y="289" on="0"/>
        <pt x="553" y="333" on="0"/>
        <pt x="561" y="403" on="0"/>
        <pt x="561" y="451" on="1"/>
        <pt x="561" y="647" on="1"/>
        <pt x="422" y="647" on="1"/>
        <pt x="422" y="818" on="1"/>
        <pt x="718" y="818" on="1"/>
      </contour>
    </TTGlyph>
    <TTGlyph name="Iacute" xMin="21" yMin="0" xMax="335" yMax="1040">
      <contour>
        <pt x="99" y="283" on="1"/>
        <pt x="99" y="445" on="1"/>
        <pt x="99" y="509" on="0"/>
        <pt x="98" y="599" on="0"/>
        <pt x="98" y="637" on="1"/>
        <pt x="24" y="637" on="1"/>
        <pt x="23" y="660" on="0"/>
        <pt x="21" y="704" on="0"/>
        <pt x="21" y="727" on="1"/>
        <pt x="21" y="750" on="0"/>
        <pt x="23" y="796" on="0"/>
        <pt x="24" y="818" on="1"/>
        <pt x="332" y="818" on="1"/>
        <pt x="333" y="795" on="0"/>
        <pt x="333" y="750" on="0"/>
        <pt x="333" y="727" on="1"/>
        <pt x="333" y="704" on="0"/>
        <pt x="333" y="660" on="0"/>
        <pt x="332" y="637" on="1"/>
        <pt x="259" y="637" on="1"/>
        <pt x="257" y="570" on="0"/>
        <pt x="256" y="440" on="0"/>
        <pt x="256" y="360" on="1"/>
        <pt x="256" y="283" on="1"/>
        <pt x="332" y="283" on="1"/>
        <pt x="333" y="247" on="0"/>
        <pt x="333" y="177" on="0"/>
        <pt x="333" y="141" on="1"/>
        <pt x="333" y="106" on="0"/>
        <pt x="333" y="35" on="0"/>
        <pt x="332" y="0" on="1"/>
        <pt x="24" y="0" on="1"/>
        <pt x="23" y="35" on="0"/>
        <pt x="21" y="106" on="0"/>
        <pt x="21" y="141" on="1"/>
        <pt x="21" y="177" on="0"/>
        <pt x="23" y="247" on="0"/>
        <pt x="24" y="283" on="1"/>
      </contour>
      <contour>
        <pt x="189" y="1040" on="1"/>
        <pt x="335" y="1040" on="1"/>
        <pt x="207" y="849" on="1"/>
        <pt x="116" y="849" on="1"/>
      </contour>
    </TTGlyph>
    <TTGlyph name="Ibreve" xMin="21" yMin="0" xMax="333" yMax="1016">
      <contour>
        <pt x="99" y="283" on="1"/>
        <pt x="99" y="445" on="1"/>
        <pt x="99" y="509" on="0"/>
        <pt x="98" y="599" on="0"/>
        <pt x="98" y="637" on="1"/>
        <pt x="24" y="637" on="1"/>
        <pt x="23" y="660" on="0"/>
        <pt x="21" y="704" on="0"/>
        <pt x="21" y="727" on="1"/>
        <pt x="21" y="750" on="0"/>
        <pt x="23" y="796" on="0"/>
        <pt x="24" y="818" on="1"/>
        <pt x="332" y="818" on="1"/>
        <pt x="333" y="795" on="0"/>
        <pt x="333" y="750" on="0"/>
        <pt x="333" y="727" on="1"/>
        <pt x="333" y="704" on="0"/>
        <pt x="333" y="660" on="0"/>
        <pt x="332" y="637" on="1"/>
        <pt x="259" y="637" on="1"/>
        <pt x="257" y="570" on="0"/>
        <pt x="256" y="440" on="0"/>
        <pt x="256" y="360" on="1"/>
        <pt x="256" y="283" on="1"/>
        <pt x="332" y="283" on="1"/>
        <pt x="333" y="247" on="0"/>
        <pt x="333" y="177" on="0"/>
        <pt x="333" y="141" on="1"/>
        <pt x="333" y="106" on="0"/>
        <pt x="333" y="35" on="0"/>
        <pt x="332" y="0" on="1"/>
        <pt x="24" y="0" on="1"/>
        <pt x="23" y="35" on="0"/>
        <pt x="21" y="106" on="0"/>
        <pt x="21" y="141" on="1"/>
        <pt x="21" y="177" on="0"/>
        <pt x="23" y="247" on="0"/>
        <pt x="24" y="283" on="1"/>
      </contour>
      <contour>
        <pt x="325" y="1016" on="1"/>
        <pt x="325" y="981" on="0"/>
        <pt x="300" y="927" on="0"/>
        <pt x="260" y="891" on="0"/>
        <pt x="207" y="872" on="0"/>
        <pt x="179" y="872" on="1"/>
        <pt x="150" y="872" on="0"/>
        <pt x="98" y="891" on="0"/>
        <pt x="58" y="927" on="0"/>
        <pt x="33" y="981" on="0"/>
        <pt x="33" y="1016" on="1"/>
        <pt x="102" y="1016" on="1"/>
        <pt x="104" y="978" on="0"/>
        <pt x="147" y="932" on="0"/>
        <pt x="179" y="932" on="1"/>
        <pt x="211" y="932" on="0"/>
        <pt x="254" y="978" on="0"/>
        <pt x="256" y="1016" on="1"/>
      </contour>
    </TTGlyph>
    <TTGlyph name="Icircumflex" xMin="8" yMin="0" xMax="350" yMax="1045">
      <contour>
        <pt x="99" y="283" on="1"/>
        <pt x="99" y="445" on="1"/>
        <pt x="99" y="509" on="0"/>
        <pt x="98" y="599" on="0"/>
        <pt x="98" y="637" on="1"/>
        <pt x="24" y="637" on="1"/>
        <pt x="23" y="660" on="0"/>
        <pt x="21" y="704" on="0"/>
        <pt x="21" y="727" on="1"/>
        <pt x="21" y="750" on="0"/>
        <pt x="23" y="796" on="0"/>
        <pt x="24" y="818" on="1"/>
        <pt x="332" y="818" on="1"/>
        <pt x="333" y="795" on="0"/>
        <pt x="333" y="750" on="0"/>
        <pt x="333" y="727" on="1"/>
        <pt x="333" y="704" on="0"/>
        <pt x="333" y="660" on="0"/>
        <pt x="332" y="637" on="1"/>
        <pt x="259" y="637" on="1"/>
        <pt x="257" y="570" on="0"/>
        <pt x="256" y="440" on="0"/>
        <pt x="256" y="360" on="1"/>
        <pt x="256" y="283" on="1"/>
        <pt x="332" y="283" on="1"/>
        <pt x="333" y="247" on="0"/>
        <pt x="333" y="177" on="0"/>
        <pt x="333" y="141" on="1"/>
        <pt x="333" y="106" on="0"/>
        <pt x="333" y="35" on="0"/>
        <pt x="332" y="0" on="1"/>
        <pt x="24" y="0" on="1"/>
        <pt x="23" y="35" on="0"/>
        <pt x="21" y="106" on="0"/>
        <pt x="21" y="141" on="1"/>
        <pt x="21" y="177" on="0"/>
        <pt x="23" y="247" on="0"/>
        <pt x="24" y="283" on="1"/>
      </contour>
      <contour>
        <pt x="179" y="1045" on="1"/>
        <pt x="350" y="932" on="1"/>
        <pt x="320" y="864" on="1"/>
        <pt x="179" y="932" on="1"/>
        <pt x="38" y="864" on="1"/>
        <pt x="8" y="932" on="1"/>
      </contour>
    </TTGlyph>
    <TTGlyph name="Idieresis" xMin="13" yMin="0" xMax="345" yMax="1012">
      <contour>
        <pt x="99" y="283" on="1"/>
        <pt x="99" y="445" on="1"/>
        <pt x="99" y="509" on="0"/>
        <pt x="98" y="599" on="0"/>
        <pt x="98" y="637" on="1"/>
        <pt x="24" y="637" on="1"/>
        <pt x="23" y="660" on="0"/>
        <pt x="21" y="704" on="0"/>
        <pt x="21" y="727" on="1"/>
        <pt x="21" y="750" on="0"/>
        <pt x="23" y="796" on="0"/>
        <pt x="24" y="818" on="1"/>
        <pt x="332" y="818" on="1"/>
        <pt x="333" y="795" on="0"/>
        <pt x="333" y="750" on="0"/>
        <pt x="333" y="727" on="1"/>
        <pt x="333" y="704" on="0"/>
        <pt x="333" y="660" on="0"/>
        <pt x="332" y="637" on="1"/>
        <pt x="259" y="637" on="1"/>
        <pt x="257" y="570" on="0"/>
        <pt x="256" y="440" on="0"/>
        <pt x="256" y="360" on="1"/>
        <pt x="256" y="283" on="1"/>
        <pt x="332" y="283" on="1"/>
        <pt x="333" y="247" on="0"/>
        <pt x="333" y="177" on="0"/>
        <pt x="333" y="141" on="1"/>
        <pt x="333" y="106" on="0"/>
        <pt x="333" y="35" on="0"/>
        <pt x="332" y="0" on="1"/>
        <pt x="24" y="0" on="1"/>
        <pt x="23" y="35" on="0"/>
        <pt x="21" y="106" on="0"/>
        <pt x="21" y="141" on="1"/>
        <pt x="21" y="177" on="0"/>
        <pt x="23" y="247" on="0"/>
        <pt x="24" y="283" on="1"/>
      </contour>
      <contour>
        <pt x="13" y="939" on="1"/>
        <pt x="13" y="978" on="0"/>
        <pt x="60" y="1012" on="0"/>
        <pt x="87" y="1012" on="1"/>
        <pt x="119" y="1012" on="0"/>
        <pt x="156" y="970" on="0"/>
        <pt x="156" y="939" on="1"/>
        <pt x="156" y="907" on="0"/>
        <pt x="117" y="866" on="0"/>
        <pt x="88" y="866" on="1"/>
        <pt x="76" y="866" on="0"/>
        <pt x="50" y="874" on="0"/>
        <pt x="27" y="891" on="0"/>
        <pt x="13" y="919" on="0"/>
      </contour>
      <contour>
        <pt x="202" y="940" on="1"/>
        <pt x="202" y="959" on="0"/>
        <pt x="215" y="986" on="0"/>
        <pt x="236" y="1004" on="0"/>
        <pt x="262" y="1012" on="0"/>
        <pt x="275" y="1012" on="1"/>
        <pt x="307" y="1012" on="0"/>
        <pt x="345" y="970" on="0"/>
        <pt x="345" y="939" on="1"/>
        <pt x="345" y="907" on="0"/>
        <pt x="306" y="866" on="0"/>
        <pt x="277" y="866" on="1"/>
        <pt x="265" y="866" on="0"/>
        <pt x="239" y="874" on="0"/>
        <pt x="216" y="891" on="0"/>
        <pt x="202" y="919" on="0"/>
      </contour>
    </TTGlyph>
    <TTGlyph name="Idotaccent" xMin="21" yMin="0" xMax="333" yMax="1026">
      <contour>
        <pt x="99" y="283" on="1"/>
        <pt x="99" y="445" on="1"/>
        <pt x="99" y="509" on="0"/>
        <pt x="98" y="599" on="0"/>
        <pt x="98" y="637" on="1"/>
        <pt x="24" y="637" on="1"/>
        <pt x="23" y="660" on="0"/>
        <pt x="21" y="704" on="0"/>
        <pt x="21" y="727" on="1"/>
        <pt x="21" y="750" on="0"/>
        <pt x="23" y="796" on="0"/>
        <pt x="24" y="818" on="1"/>
        <pt x="332" y="818" on="1"/>
        <pt x="333" y="795" on="0"/>
        <pt x="333" y="750" on="0"/>
        <pt x="333" y="727" on="1"/>
        <pt x="333" y="704" on="0"/>
        <pt x="333" y="660" on="0"/>
        <pt x="332" y="637" on="1"/>
        <pt x="259" y="637" on="1"/>
        <pt x="257" y="570" on="0"/>
        <pt x="256" y="440" on="0"/>
        <pt x="256" y="360" on="1"/>
        <pt x="256" y="283" on="1"/>
        <pt x="332" y="283" on="1"/>
        <pt x="333" y="247" on="0"/>
        <pt x="333" y="177" on="0"/>
        <pt x="333" y="141" on="1"/>
        <pt x="333" y="106" on="0"/>
        <pt x="333" y="35" on="0"/>
        <pt x="332" y="0" on="1"/>
        <pt x="24" y="0" on="1"/>
        <pt x="23" y="35" on="0"/>
        <pt x="21" y="106" on="0"/>
        <pt x="21" y="141" on="1"/>
        <pt x="21" y="177" on="0"/>
        <pt x="23" y="247" on="0"/>
        <pt x="24" y="283" on="1"/>
      </contour>
      <contour>
        <pt x="93" y="939" on="1"/>
        <pt x="93" y="983" on="0"/>
        <pt x="148" y="1026" on="0"/>
        <pt x="181" y="1026" on="1"/>
        <pt x="218" y="1026" on="0"/>
        <pt x="265" y="979" on="0"/>
        <pt x="265" y="942" on="1"/>
        <pt x="265" y="901" on="0"/>
        <pt x="212" y="854" on="0"/>
        <pt x="177" y="854" on="1"/>
        <pt x="161" y="854" on="0"/>
        <pt x="131" y="865" on="0"/>
        <pt x="107" y="886" on="0"/>
        <pt x="93" y="918" on="0"/>
      </contour>
    </TTGlyph>
    <TTGlyph name="Idotbelow" xMin="21" yMin="-205" xMax="333" yMax="818">
      <contour>
        <pt x="99" y="283" on="1"/>
        <pt x="99" y="445" on="1"/>
        <pt x="99" y="509" on="0"/>
        <pt x="98" y="599" on="0"/>
        <pt x="98" y="637" on="1"/>
        <pt x="24" y="637" on="1"/>
        <pt x="23" y="660" on="0"/>
        <pt x="21" y="704" on="0"/>
        <pt x="21" y="727" on="1"/>
        <pt x="21" y="750" on="0"/>
        <pt x="23" y="796" on="0"/>
        <pt x="24" y="818" on="1"/>
        <pt x="332" y="818" on="1"/>
        <pt x="333" y="795" on="0"/>
        <pt x="333" y="750" on="0"/>
        <pt x="333" y="727" on="1"/>
        <pt x="333" y="704" on="0"/>
        <pt x="333" y="660" on="0"/>
        <pt x="332" y="637" on="1"/>
        <pt x="259" y="637" on="1"/>
        <pt x="257" y="570" on="0"/>
        <pt x="256" y="440" on="0"/>
        <pt x="256" y="360" on="1"/>
        <pt x="256" y="283" on="1"/>
        <pt x="332" y="283" on="1"/>
        <pt x="333" y="247" on="0"/>
        <pt x="333" y="177" on="0"/>
        <pt x="333" y="141" on="1"/>
        <pt x="333" y="106" on="0"/>
        <pt x="333" y="35" on="0"/>
        <pt x="332" y="0" on="1"/>
        <pt x="24" y="0" on="1"/>
        <pt x="23" y="35" on="0"/>
        <pt x="21" y="106" on="0"/>
        <pt x="21" y="141" on="1"/>
        <pt x="21" y="177" on="0"/>
        <pt x="23" y="247" on="0"/>
        <pt x="24" y="283" on="1"/>
      </contour>
      <contour>
        <pt x="179" y="-52" on="1"/>
        <pt x="215" y="-52" on="0"/>
        <pt x="254" y="-100" on="0"/>
        <pt x="254" y="-129" on="1"/>
        <pt x="254" y="-158" on="0"/>
        <pt x="215" y="-205" on="0"/>
        <pt x="179" y="-205" on="1"/>
        <pt x="143" y="-205" on="0"/>
        <pt x="104" y="-158" on="0"/>
        <pt x="104" y="-129" on="1"/>
        <pt x="104" y="-100" on="0"/>
        <pt x="143" y="-52" on="0"/>
      </contour>
    </TTGlyph>
    <TTGlyph name="Igrave" xMin="21" yMin="0" xMax="333" yMax="1040">
      <contour>
        <pt x="99" y="283" on="1"/>
        <pt x="99" y="445" on="1"/>
        <pt x="99" y="509" on="0"/>
        <pt x="98" y="599" on="0"/>
        <pt x="98" y="637" on="1"/>
        <pt x="24" y="637" on="1"/>
        <pt x="23" y="660" on="0"/>
        <pt x="21" y="704" on="0"/>
        <pt x="21" y="727" on="1"/>
        <pt x="21" y="750" on="0"/>
        <pt x="23" y="796" on="0"/>
        <pt x="24" y="818" on="1"/>
        <pt x="332" y="818" on="1"/>
        <pt x="333" y="795" on="0"/>
        <pt x="333" y="750" on="0"/>
        <pt x="333" y="727" on="1"/>
        <pt x="333" y="704" on="0"/>
        <pt x="333" y="660" on="0"/>
        <pt x="332" y="637" on="1"/>
        <pt x="259" y="637" on="1"/>
        <pt x="257" y="570" on="0"/>
        <pt x="256" y="440" on="0"/>
        <pt x="256" y="360" on="1"/>
        <pt x="256" y="283" on="1"/>
        <pt x="332" y="283" on="1"/>
        <pt x="333" y="247" on="0"/>
        <pt x="333" y="177" on="0"/>
        <pt x="333" y="141" on="1"/>
        <pt x="333" y="106" on="0"/>
        <pt x="333" y="35" on="0"/>
        <pt x="332" y="0" on="1"/>
        <pt x="24" y="0" on="1"/>
        <pt x="23" y="35" on="0"/>
        <pt x="21" y="106" on="0"/>
        <pt x="21" y="141" on="1"/>
        <pt x="21" y="177" on="0"/>
        <pt x="23" y="247" on="0"/>
        <pt x="24" y="283" on="1"/>
      </contour>
      <contour>
        <pt x="242" y="849" on="1"/>
        <pt x="151" y="849" on="1"/>
        <pt x="23" y="1040" on="1"/>
        <pt x="169" y="1040" on="1"/>
      </contour>
    </TTGlyph>
    <TTGlyph name="Imacron" xMin="21" yMin="0" xMax="352" yMax="995">
      <contour>
        <pt x="99" y="283" on="1"/>
        <pt x="99" y="445" on="1"/>
        <pt x="99" y="509" on="0"/>
        <pt x="98" y="599" on="0"/>
        <pt x="98" y="637" on="1"/>
        <pt x="24" y="637" on="1"/>
        <pt x="23" y="660" on="0"/>
        <pt x="21" y="704" on="0"/>
        <pt x="21" y="727" on="1"/>
        <pt x="21" y="750" on="0"/>
        <pt x="23" y="796" on="0"/>
        <pt x="24" y="818" on="1"/>
        <pt x="332" y="818" on="1"/>
        <pt x="333" y="795" on="0"/>
        <pt x="333" y="750" on="0"/>
        <pt x="333" y="727" on="1"/>
        <pt x="333" y="704" on="0"/>
        <pt x="333" y="660" on="0"/>
        <pt x="332" y="637" on="1"/>
        <pt x="259" y="637" on="1"/>
        <pt x="257" y="570" on="0"/>
        <pt x="256" y="440" on="0"/>
        <pt x="256" y="360" on="1"/>
        <pt x="256" y="283" on="1"/>
        <pt x="332" y="283" on="1"/>
        <pt x="333" y="247" on="0"/>
        <pt x="333" y="177" on="0"/>
        <pt x="333" y="141" on="1"/>
        <pt x="333" y="106" on="0"/>
        <pt x="333" y="35" on="0"/>
        <pt x="332" y="0" on="1"/>
        <pt x="24" y="0" on="1"/>
        <pt x="23" y="35" on="0"/>
        <pt x="21" y="106" on="0"/>
        <pt x="21" y="141" on="1"/>
        <pt x="21" y="177" on="0"/>
        <pt x="23" y="247" on="0"/>
        <pt x="24" y="283" on="1"/>
      </contour>
      <contour>
        <pt x="352" y="995" on="1"/>
        <pt x="352" y="901" on="1"/>
        <pt x="22" y="901" on="1"/>
        <pt x="22" y="995" on="1"/>
      </contour>
    </TTGlyph>
    <TTGlyph name="Iogonek" xMin="21" yMin="-205" xMax="333" yMax="818">
      <contour>
        <pt x="271" y="-183" on="1"/>
        <pt x="208" y="-205" on="0"/>
        <pt x="165" y="-205" on="1"/>
        <pt x="125" y="-205" on="0"/>
        <pt x="79" y="-167" on="0"/>
        <pt x="79" y="-135" on="1"/>
        <pt x="79" y="-106" on="0"/>
        <pt x="118" y="-35" on="0"/>
        <pt x="153" y="0" on="1"/>
        <pt x="24" y="0" on="1"/>
        <pt x="23" y="35" on="0"/>
        <pt x="21" y="106" on="0"/>
        <pt x="21" y="141" on="1"/>
        <pt x="21" y="177" on="0"/>
        <pt x="23" y="247" on="0"/>
        <pt x="24" y="283" on="1"/>
        <pt x="99" y="283" on="1"/>
        <pt x="99" y="445" on="1"/>
        <pt x="99" y="509" on="0"/>
        <pt x="98" y="599" on="0"/>
        <pt x="98" y="637" on="1"/>
        <pt x="24" y="637" on="1"/>
        <pt x="23" y="660" on="0"/>
        <pt x="21" y="704" on="0"/>
        <pt x="21" y="727" on="1"/>
        <pt x="21" y="750" on="0"/>
        <pt x="23" y="796" on="0"/>
        <pt x="24" y="818" on="1"/>
        <pt x="332" y="818" on="1"/>
        <pt x="333" y="795" on="0"/>
        <pt x="333" y="750" on="0"/>
        <pt x="333" y="727" on="1"/>
        <pt x="333" y="704" on="0"/>
        <pt x="333" y="660" on="0"/>
        <pt x="332" y="637" on="1"/>
        <pt x="259" y="637" on="1"/>
        <pt x="257" y="570" on="0"/>
        <pt x="256" y="440" on="0"/>
        <pt x="256" y="360" on="1"/>
        <pt x="256" y="283" on="1"/>
        <pt x="332" y="283" on="1"/>
        <pt x="333" y="247" on="0"/>
        <pt x="333" y="177" on="0"/>
        <pt x="333" y="141" on="1"/>
        <pt x="333" y="106" on="0"/>
        <pt x="333" y="35" on="0"/>
        <pt x="332" y="0" on="1"/>
        <pt x="238" y="0" on="1"/>
        <pt x="208" y="-28" on="0"/>
        <pt x="169" y="-91" on="0"/>
        <pt x="169" y="-111" on="1"/>
        <pt x="169" y="-132" on="0"/>
        <pt x="191" y="-132" on="1"/>
        <pt x="205" y="-132" on="0"/>
        <pt x="245" y="-124" on="0"/>
        <pt x="264" y="-116" on="1"/>
      </contour>
    </TTGlyph>
    <TTGlyph name="Itilde" xMin="-3" yMin="0" xMax="376" yMax="1017">
      <contour>
        <pt x="99" y="283" on="1"/>
        <pt x="99" y="445" on="1"/>
        <pt x="99" y="509" on="0"/>
        <pt x="98" y="599" on="0"/>
        <pt x="98" y="637" on="1"/>
        <pt x="24" y="637" on="1"/>
        <pt x="23" y="660" on="0"/>
        <pt x="21" y="704" on="0"/>
        <pt x="21" y="727" on="1"/>
        <pt x="21" y="750" on="0"/>
        <pt x="23" y="796" on="0"/>
        <pt x="24" y="818" on="1"/>
        <pt x="332" y="818" on="1"/>
        <pt x="333" y="795" on="0"/>
        <pt x="333" y="750" on="0"/>
        <pt x="333" y="727" on="1"/>
        <pt x="333" y="704" on="0"/>
        <pt x="333" y="660" on="0"/>
        <pt x="332" y="637" on="1"/>
        <pt x="259" y="637" on="1"/>
        <pt x="257" y="570" on="0"/>
        <pt x="256" y="440" on="0"/>
        <pt x="256" y="360" on="1"/>
        <pt x="256" y="283" on="1"/>
        <pt x="332" y="283" on="1"/>
        <pt x="333" y="247" on="0"/>
        <pt x="333" y="177" on="0"/>
        <pt x="333" y="141" on="1"/>
        <pt x="333" y="106" on="0"/>
        <pt x="333" y="35" on="0"/>
        <pt x="332" y="0" on="1"/>
        <pt x="24" y="0" on="1"/>
        <pt x="23" y="35" on="0"/>
        <pt x="21" y="106" on="0"/>
        <pt x="21" y="141" on="1"/>
        <pt x="21" y="177" on="0"/>
        <pt x="23" y="247" on="0"/>
        <pt x="24" y="283" on="1"/>
      </contour>
      <contour>
        <pt x="-3" y="989" on="1"/>
        <pt x="23" y="1004" on="0"/>
        <pt x="68" y="1017" on="0"/>
        <pt x="89" y="1017" on="1"/>
        <pt x="117" y="1017" on="0"/>
        <pt x="164" y="999" on="0"/>
        <pt x="208" y="978" on="0"/>
        <pt x="251" y="960" on="0"/>
        <pt x="275" y="960" on="1"/>
        <pt x="296" y="960" on="0"/>
        <pt x="347" y="981" on="0"/>
        <pt x="376" y="1007" on="1"/>
        <pt x="376" y="899" on="1"/>
        <pt x="347" y="877" on="0"/>
        <pt x="296" y="860" on="0"/>
        <pt x="274" y="860" on="1"/>
        <pt x="247" y="860" on="0"/>
        <pt x="201" y="878" on="0"/>
        <pt x="156" y="900" on="0"/>
        <pt x="112" y="918" on="0"/>
        <pt x="88" y="918" on="1"/>
        <pt x="67" y="918" on="0"/>
        <pt x="23" y="901" on="0"/>
        <pt x="-3" y="879" on="1"/>
      </contour>
    </TTGlyph>
    <TTGlyph name="J" xMin="3" yMin="-11" xMax="352" yMax="818">
      <contour>
        <pt x="352" y="428" on="1"/>
        <pt x="352" y="357" on="0"/>
        <pt x="351" y="263" on="0"/>
        <pt x="349" y="203" on="0"/>
        <pt x="345" y="169" on="0"/>
        <pt x="343" y="156" on="1"/>
        <pt x="330" y="81" on="0"/>
        <pt x="227" y="-11" on="0"/>
        <pt x="133" y="-11" on="1"/>
        <pt x="109" y="-11" on="0"/>
        <pt x="40" y="-4" on="0"/>
        <pt x="7" y="5" on="1"/>
        <pt x="5" y="39" on="0"/>
        <pt x="3" y="110" on="0"/>
        <pt x="3" y="145" on="1"/>
        <pt x="3" y="181" on="0"/>
        <pt x="5" y="253" on="0"/>
        <pt x="7" y="289" on="1"/>
        <pt x="32" y="278" on="0"/>
        <pt x="72" y="268" on="0"/>
        <pt x="94" y="268" on="1"/>
        <pt x="125" y="268" on="0"/>
        <pt x="164" y="289" on="0"/>
        <pt x="187" y="333" on="0"/>
        <pt x="195" y="403" on="0"/>
        <pt x="195" y="451" on="1"/>
        <pt x="195" y="647" on="1"/>
        <pt x="56" y="647" on="1"/>
        <pt x="56" y="818" on="1"/>
        <pt x="352" y="818" on="1"/>
      </contour>
    </TTGlyph>
    <TTGlyph name="Jcircumflex" xMin="3" yMin="-11" xMax="372" yMax="1045">
      <contour>
        <pt x="352" y="428" on="1"/>
        <pt x="352" y="357" on="0"/>
        <pt x="351" y="263" on="0"/>
        <pt x="349" y="203" on="0"/>
        <pt x="345" y="169" on="0"/>
        <pt x="343" y="156" on="1"/>
        <pt x="330" y="81" on="0"/>
        <pt x="227" y="-11" on="0"/>
        <pt x="133" y="-11" on="1"/>
        <pt x="109" y="-11" on="0"/>
        <pt x="40" y="-4" on="0"/>
        <pt x="7" y="5" on="1"/>
        <pt x="5" y="39" on="0"/>
        <pt x="3" y="110" on="0"/>
        <pt x="3" y="145" on="1"/>
        <pt x="3" y="181" on="0"/>
        <pt x="5" y="253" on="0"/>
        <pt x="7" y="289" on="1"/>
        <pt x="32" y="278" on="0"/>
        <pt x="72" y="268" on="0"/>
        <pt x="94" y="268" on="1"/>
        <pt x="125" y="268" on="0"/>
        <pt x="164" y="289" on="0"/>
        <pt x="187" y="333" on="0"/>
        <pt x="195" y="403" on="0"/>
        <pt x="195" y="451" on="1"/>
        <pt x="195" y="647" on="1"/>
        <pt x="56" y="647" on="1"/>
        <pt x="56" y="818" on="1"/>
        <pt x="352" y="818" on="1"/>
      </contour>
      <contour>
        <pt x="201" y="1045" on="1"/>
        <pt x="372" y="932" on="1"/>
        <pt x="342" y="864" on="1"/>
        <pt x="201" y="932" on="1"/>
        <pt x="60" y="864" on="1"/>
        <pt x="30" y="932" on="1"/>
      </contour>
    </TTGlyph>
    <TTGlyph name="K" xMin="26" yMin="0" xMax="580" yMax="819">
      <contour>
        <pt x="209" y="818" on="1"/>
        <pt x="206" y="758" on="0"/>
        <pt x="203" y="666" on="0"/>
        <pt x="201" y="582" on="0"/>
        <pt x="200" y="493" on="0"/>
        <pt x="200" y="436" on="1"/>
        <pt x="204" y="436" on="1"/>
        <pt x="382" y="819" on="1"/>
        <pt x="568" y="819" on="1"/>
        <pt x="372" y="420" on="1"/>
        <pt x="580" y="0" on="1"/>
        <pt x="393" y="0" on="1"/>
        <pt x="204" y="396" on="1"/>
        <pt x="200" y="396" on="1"/>
        <pt x="200" y="359" on="0"/>
        <pt x="200" y="265" on="0"/>
        <pt x="201" y="162" on="0"/>
        <pt x="202" y="53" on="0"/>
        <pt x="202" y="0" on="1"/>
        <pt x="26" y="0" on="1"/>
        <pt x="27" y="44" on="0"/>
        <pt x="29" y="139" on="0"/>
        <pt x="31" y="250" on="0"/>
        <pt x="31" y="379" on="0"/>
        <pt x="31" y="457" on="1"/>
        <pt x="31" y="525" on="0"/>
        <pt x="31" y="620" on="0"/>
        <pt x="30" y="698" on="0"/>
        <pt x="30" y="771" on="0"/>
        <pt x="30" y="818" on="1"/>
      </contour>
    </TTGlyph>
    <TTGlyph name="Kcommaaccent" xMin="26" yMin="-205" xMax="580" yMax="819">
      <contour>
        <pt x="209" y="818" on="1"/>
        <pt x="206" y="758" on="0"/>
        <pt x="203" y="666" on="0"/>
        <pt x="201" y="582" on="0"/>
        <pt x="200" y="493" on="0"/>
        <pt x="200" y="436" on="1"/>
        <pt x="204" y="436" on="1"/>
        <pt x="382" y="819" on="1"/>
        <pt x="568" y="819" on="1"/>
        <pt x="372" y="420" on="1"/>
        <pt x="580" y="0" on="1"/>
        <pt x="393" y="0" on="1"/>
        <pt x="204" y="396" on="1"/>
        <pt x="200" y="396" on="1"/>
        <pt x="200" y="359" on="0"/>
        <pt x="200" y="265" on="0"/>
        <pt x="201" y="162" on="0"/>
        <pt x="202" y="53" on="0"/>
        <pt x="202" y="0" on="1"/>
        <pt x="26" y="0" on="1"/>
        <pt x="27" y="44" on="0"/>
        <pt x="29" y="139" on="0"/>
        <pt x="31" y="250" on="0"/>
        <pt x="31" y="379" on="0"/>
        <pt x="31" y="457" on="1"/>
        <pt x="31" y="525" on="0"/>
        <pt x="31" y="620" on="0"/>
        <pt x="30" y="698" on="0"/>
        <pt x="30" y="771" on="0"/>
        <pt x="30" y="818" on="1"/>
      </contour>
      <contour>
        <pt x="346" y="-55" on="1"/>
        <pt x="286" y="-205" on="1"/>
        <pt x="190" y="-205" on="1"/>
        <pt x="214" y="-55" on="1"/>
      </contour>
    </TTGlyph>
    <TTGlyph name="L" xMin="26" yMin="0" xMax="353" yMax="818">
      <contour>
        <pt x="200" y="818" on="1"/>
        <pt x="197" y="681" on="0"/>
        <pt x="194" y="503" on="0"/>
        <pt x="192" y="382" on="0"/>
        <pt x="192" y="300" on="0"/>
        <pt x="192" y="258" on="1"/>
        <pt x="349" y="264" on="1"/>
        <pt x="351" y="231" on="0"/>
        <pt x="353" y="167" on="0"/>
        <pt x="353" y="135" on="1"/>
        <pt x="353" y="102" on="0"/>
        <pt x="351" y="35" on="0"/>
        <pt x="349" y="0" on="1"/>
        <pt x="26" y="0" on="1"/>
        <pt x="29" y="140" on="0"/>
        <pt x="32" y="434" on="0"/>
        <pt x="32" y="574" on="1"/>
        <pt x="32" y="639" on="0"/>
        <pt x="32" y="761" on="0"/>
        <pt x="31" y="818" on="1"/>
      </contour>
    </TTGlyph>
    <TTGlyph name="Lacute" xMin="26" yMin="0" xMax="353" yMax="1040">
      <contour>
        <pt x="200" y="818" on="1"/>
        <pt x="197" y="681" on="0"/>
        <pt x="194" y="503" on="0"/>
        <pt x="192" y="382" on="0"/>
        <pt x="192" y="300" on="0"/>
        <pt x="192" y="258" on="1"/>
        <pt x="349" y="264" on="1"/>
        <pt x="351" y="231" on="0"/>
        <pt x="353" y="167" on="0"/>
        <pt x="353" y="135" on="1"/>
        <pt x="353" y="102" on="0"/>
        <pt x="351" y="35" on="0"/>
        <pt x="349" y="0" on="1"/>
        <pt x="26" y="0" on="1"/>
        <pt x="29" y="140" on="0"/>
        <pt x="32" y="434" on="0"/>
        <pt x="32" y="574" on="1"/>
        <pt x="32" y="639" on="0"/>
        <pt x="32" y="761" on="0"/>
        <pt x="31" y="818" on="1"/>
      </contour>
      <contour>
        <pt x="124" y="1040" on="1"/>
        <pt x="270" y="1040" on="1"/>
        <pt x="142" y="849" on="1"/>
        <pt x="51" y="849" on="1"/>
      </contour>
    </TTGlyph>
    <TTGlyph name="Lcaron" xMin="26" yMin="0" xMax="385" yMax="841">
      <contour>
        <pt x="200" y="818" on="1"/>
        <pt x="197" y="681" on="0"/>
        <pt x="194" y="503" on="0"/>
        <pt x="192" y="382" on="0"/>
        <pt x="192" y="300" on="0"/>
        <pt x="192" y="258" on="1"/>
        <pt x="349" y="264" on="1"/>
        <pt x="351" y="231" on="0"/>
        <pt x="353" y="167" on="0"/>
        <pt x="353" y="135" on="1"/>
        <pt x="353" y="102" on="0"/>
        <pt x="351" y="35" on="0"/>
        <pt x="349" y="0" on="1"/>
        <pt x="26" y="0" on="1"/>
        <pt x="29" y="140" on="0"/>
        <pt x="32" y="434" on="0"/>
        <pt x="32" y="574" on="1"/>
        <pt x="32" y="639" on="0"/>
        <pt x="32" y="761" on="0"/>
        <pt x="31" y="818" on="1"/>
      </contour>
      <contour>
        <pt x="281" y="841" on="1"/>
        <pt x="385" y="841" on="1"/>
        <pt x="342" y="640" on="1"/>
        <pt x="263" y="640" on="1"/>
      </contour>
    </TTGlyph>
    <TTGlyph name="Lcommaaccent" xMin="26" yMin="-205" xMax="353" yMax="818">
      <contour>
        <pt x="200" y="818" on="1"/>
        <pt x="197" y="681" on="0"/>
        <pt x="194" y="503" on="0"/>
        <pt x="192" y="382" on="0"/>
        <pt x="192" y="300" on="0"/>
        <pt x="192" y="258" on="1"/>
        <pt x="349" y="264" on="1"/>
        <pt x="351" y="231" on="0"/>
        <pt x="353" y="167" on="0"/>
        <pt x="353" y="135" on="1"/>
        <pt x="353" y="102" on="0"/>
        <pt x="351" y="35" on="0"/>
        <pt x="349" y="0" on="1"/>
        <pt x="26" y="0" on="1"/>
        <pt x="29" y="140" on="0"/>
        <pt x="32" y="434" on="0"/>
        <pt x="32" y="574" on="1"/>
        <pt x="32" y="639" on="0"/>
        <pt x="32" y="761" on="0"/>
        <pt x="31" y="818" on="1"/>
      </contour>
      <contour>
        <pt x="258" y="-55" on="1"/>
        <pt x="198" y="-205" on="1"/>
        <pt x="102" y="-205" on="1"/>
        <pt x="126" y="-55" on="1"/>
      </contour>
    </TTGlyph>
    <TTGlyph name="Ldot" xMin="26" yMin="0" xMax="446" yMax="818">
      <contour>
        <pt x="200" y="818" on="1"/>
        <pt x="197" y="681" on="0"/>
        <pt x="194" y="503" on="0"/>
        <pt x="192" y="382" on="0"/>
        <pt x="192" y="300" on="0"/>
        <pt x="192" y="258" on="1"/>
        <pt x="349" y="264" on="1"/>
        <pt x="351" y="231" on="0"/>
        <pt x="353" y="167" on="0"/>
        <pt x="353" y="135" on="1"/>
        <pt x="353" y="102" on="0"/>
        <pt x="351" y="35" on="0"/>
        <pt x="349" y="0" on="1"/>
        <pt x="26" y="0" on="1"/>
        <pt x="29" y="140" on="0"/>
        <pt x="32" y="434" on="0"/>
        <pt x="32" y="574" on="1"/>
        <pt x="32" y="639" on="0"/>
        <pt x="32" y="761" on="0"/>
        <pt x="31" y="818" on="1"/>
      </contour>
      <contour>
        <pt x="341" y="564" on="1"/>
        <pt x="366" y="564" on="0"/>
        <pt x="405" y="544" on="0"/>
        <pt x="432" y="513" on="0"/>
        <pt x="446" y="476" on="0"/>
        <pt x="446" y="459" on="1"/>
        <pt x="446" y="437" on="0"/>
        <pt x="429" y="397" on="0"/>
        <pt x="400" y="367" on="0"/>
        <pt x="361" y="349" on="0"/>
        <pt x="340" y="349" on="1"/>
        <pt x="313" y="349" on="0"/>
        <pt x="273" y="366" on="0"/>
        <pt x="247" y="395" on="0"/>
        <pt x="234" y="431" on="0"/>
        <pt x="234" y="450" on="1"/>
        <pt x="234" y="470" on="0"/>
        <pt x="248" y="511" on="0"/>
        <pt x="275" y="544" on="0"/>
        <pt x="315" y="564" on="0"/>
      </contour>
    </TTGlyph>
    <TTGlyph name="Lslash" xMin="4" yMin="0" xMax="355" yMax="818">
      <contour>
        <pt x="201" y="818" on="1"/>
        <pt x="198" y="765" on="0"/>
        <pt x="196" y="610" on="0"/>
        <pt x="196" y="527" on="1"/>
        <pt x="300" y="562" on="1"/>
        <pt x="300" y="450" on="1"/>
        <pt x="194" y="414" on="1"/>
        <pt x="194" y="258" on="1"/>
        <pt x="351" y="264" on="1"/>
        <pt x="353" y="231" on="0"/>
        <pt x="355" y="167" on="0"/>
        <pt x="355" y="135" on="1"/>
        <pt x="355" y="102" on="0"/>
        <pt x="353" y="35" on="0"/>
        <pt x="351" y="0" on="1"/>
        <pt x="28" y="0" on="1"/>
        <pt x="30" y="87" on="0"/>
        <pt x="32" y="269" on="0"/>
        <pt x="33" y="360" on="1"/>
        <pt x="4" y="350" on="1"/>
        <pt x="4" y="462" on="1"/>
        <pt x="34" y="472" on="1"/>
        <pt x="34" y="542" on="0"/>
        <pt x="34" y="647" on="0"/>
        <pt x="34" y="727" on="0"/>
        <pt x="33" y="789" on="0"/>
        <pt x="33" y="818" on="1"/>
      </contour>
    </TTGlyph>
    <TTGlyph name="M" xMin="27" yMin="0" xMax="668" yMax="818">
      <contour>
        <pt x="518" y="501" on="1"/>
        <pt x="389" y="35" on="1"/>
        <pt x="296" y="35" on="1"/>
        <pt x="175" y="488" on="1"/>
        <pt x="176" y="366" on="0"/>
        <pt x="183" y="118" on="0"/>
        <pt x="185" y="0" on="1"/>
        <pt x="27" y="0" on="1"/>
        <pt x="29" y="103" on="0"/>
        <pt x="31" y="306" on="0"/>
        <pt x="31" y="409" on="1"/>
        <pt x="31" y="512" on="0"/>
        <pt x="29" y="715" on="0"/>
        <pt x="27" y="818" on="1"/>
        <pt x="241" y="818" on="1"/>
        <pt x="347" y="349" on="1"/>
        <pt x="466" y="818" on="1"/>
        <pt x="668" y="818" on="1"/>
        <pt x="665" y="614" on="0"/>
        <pt x="665" y="409" on="1"/>
        <pt x="665" y="204" on="0"/>
        <pt x="668" y="0" on="1"/>
        <pt x="508" y="0" on="1"/>
      </contour>
    </TTGlyph>
    <TTGlyph name="N" xMin="27" yMin="0" xMax="569" yMax="818">
      <contour>
        <pt x="426" y="818" on="1"/>
        <pt x="569" y="818" on="1"/>
        <pt x="566" y="614" on="0"/>
        <pt x="566" y="409" on="1"/>
        <pt x="566" y="204" on="0"/>
        <pt x="569" y="0" on="1"/>
        <pt x="376" y="0" on="1"/>
        <pt x="164" y="489" on="1"/>
        <pt x="164" y="0" on="1"/>
        <pt x="27" y="0" on="1"/>
        <pt x="29" y="103" on="0"/>
        <pt x="31" y="306" on="0"/>
        <pt x="31" y="409" on="1"/>
        <pt x="31" y="512" on="0"/>
        <pt x="29" y="715" on="0"/>
        <pt x="27" y="818" on="1"/>
        <pt x="229" y="818" on="1"/>
        <pt x="426" y="330" on="1"/>
      </contour>
    </TTGlyph>
    <TTGlyph name="Nacute" xMin="27" yMin="0" xMax="569" yMax="1040">
      <contour>
        <pt x="426" y="818" on="1"/>
        <pt x="569" y="818" on="1"/>
        <pt x="566" y="614" on="0"/>
        <pt x="566" y="409" on="1"/>
        <pt x="566" y="204" on="0"/>
        <pt x="569" y="0" on="1"/>
        <pt x="376" y="0" on="1"/>
        <pt x="164" y="489" on="1"/>
        <pt x="164" y="0" on="1"/>
        <pt x="27" y="0" on="1"/>
        <pt x="29" y="103" on="0"/>
        <pt x="31" y="306" on="0"/>
        <pt x="31" y="409" on="1"/>
        <pt x="31" y="512" on="0"/>
        <pt x="29" y="715" on="0"/>
        <pt x="27" y="818" on="1"/>
        <pt x="229" y="818" on="1"/>
        <pt x="426" y="330" on="1"/>
      </contour>
      <contour>
        <pt x="310" y="1040" on="1"/>
        <pt x="456" y="1040" on="1"/>
        <pt x="328" y="849" on="1"/>
        <pt x="237" y="849" on="1"/>
      </contour>
    </TTGlyph>
    <TTGlyph name="Ncaron" xMin="27" yMin="0" xMax="569" yMax="1045">
      <contour>
        <pt x="426" y="818" on="1"/>
        <pt x="569" y="818" on="1"/>
        <pt x="566" y="614" on="0"/>
        <pt x="566" y="409" on="1"/>
        <pt x="566" y="204" on="0"/>
        <pt x="569" y="0" on="1"/>
        <pt x="376" y="0" on="1"/>
        <pt x="164" y="489" on="1"/>
        <pt x="164" y="0" on="1"/>
        <pt x="27" y="0" on="1"/>
        <pt x="29" y="103" on="0"/>
        <pt x="31" y="306" on="0"/>
        <pt x="31" y="409" on="1"/>
        <pt x="31" y="512" on="0"/>
        <pt x="29" y="715" on="0"/>
        <pt x="27" y="818" on="1"/>
        <pt x="229" y="818" on="1"/>
        <pt x="426" y="330" on="1"/>
      </contour>
      <contour>
        <pt x="129" y="977" on="1"/>
        <pt x="159" y="1045" on="1"/>
        <pt x="300" y="976" on="1"/>
        <pt x="441" y="1045" on="1"/>
        <pt x="471" y="977" on="1"/>
        <pt x="300" y="863" on="1"/>
      </contour>
    </TTGlyph>
    <TTGlyph name="Ncommaaccent" xMin="27" yMin="-205" xMax="569" yMax="818">
      <contour>
        <pt x="426" y="818" on="1"/>
        <pt x="569" y="818" on="1"/>
        <pt x="566" y="614" on="0"/>
        <pt x="566" y="409" on="1"/>
        <pt x="566" y="204" on="0"/>
        <pt x="569" y="0" on="1"/>
        <pt x="376" y="0" on="1"/>
        <pt x="164" y="489" on="1"/>
        <pt x="164" y="0" on="1"/>
        <pt x="27" y="0" on="1"/>
        <pt x="29" y="103" on="0"/>
        <pt x="31" y="306" on="0"/>
        <pt x="31" y="409" on="1"/>
        <pt x="31" y="512" on="0"/>
        <pt x="29" y="715" on="0"/>
        <pt x="27" y="818" on="1"/>
        <pt x="229" y="818" on="1"/>
        <pt x="426" y="330" on="1"/>
      </contour>
      <contour>
        <pt x="345" y="-55" on="1"/>
        <pt x="285" y="-205" on="1"/>
        <pt x="189" y="-205" on="1"/>
        <pt x="213" y="-55" on="1"/>
      </contour>
    </TTGlyph>
    <TTGlyph name="Ndotaccent" xMin="27" yMin="0" xMax="569" yMax="1026">
      <contour>
        <pt x="426" y="818" on="1"/>
        <pt x="569" y="818" on="1"/>
        <pt x="566" y="614" on="0"/>
        <pt x="566" y="409" on="1"/>
        <pt x="566" y="204" on="0"/>
        <pt x="569" y="0" on="1"/>
        <pt x="376" y="0" on="1"/>
        <pt x="164" y="489" on="1"/>
        <pt x="164" y="0" on="1"/>
        <pt x="27" y="0" on="1"/>
        <pt x="29" y="103" on="0"/>
        <pt x="31" y="306" on="0"/>
        <pt x="31" y="409" on="1"/>
        <pt x="31" y="512" on="0"/>
        <pt x="29" y="715" on="0"/>
        <pt x="27" y="818" on="1"/>
        <pt x="229" y="818" on="1"/>
        <pt x="426" y="330" on="1"/>
      </contour>
      <contour>
        <pt x="214" y="939" on="1"/>
        <pt x="214" y="983" on="0"/>
        <pt x="269" y="1026" on="0"/>
        <pt x="302" y="1026" on="1"/>
        <pt x="339" y="1026" on="0"/>
        <pt x="386" y="979" on="0"/>
        <pt x="386" y="942" on="1"/>
        <pt x="386" y="901" on="0"/>
        <pt x="333" y="854" on="0"/>
        <pt x="298" y="854" on="1"/>
        <pt x="282" y="854" on="0"/>
        <pt x="252" y="865" on="0"/>
        <pt x="228" y="886" on="0"/>
        <pt x="214" y="918" on="0"/>
      </contour>
    </TTGlyph>
    <TTGlyph name="Ntilde" xMin="27" yMin="0" xMax="569" yMax="1017">
      <contour>
        <pt x="426" y="818" on="1"/>
        <pt x="569" y="818" on="1"/>
        <pt x="566" y="614" on="0"/>
        <pt x="566" y="409" on="1"/>
        <pt x="566" y="204" on="0"/>
        <pt x="569" y="0" on="1"/>
        <pt x="376" y="0" on="1"/>
        <pt x="164" y="489" on="1"/>
        <pt x="164" y="0" on="1"/>
        <pt x="27" y="0" on="1"/>
        <pt x="29" y="103" on="0"/>
        <pt x="31" y="306" on="0"/>
        <pt x="31" y="409" on="1"/>
        <pt x="31" y="512" on="0"/>
        <pt x="29" y="715" on="0"/>
        <pt x="27" y="818" on="1"/>
        <pt x="229" y="818" on="1"/>
        <pt x="426" y="330" on="1"/>
      </contour>
      <contour>
        <pt x="118" y="989" on="1"/>
        <pt x="144" y="1004" on="0"/>
        <pt x="189" y="1017" on="0"/>
        <pt x="210" y="1017" on="1"/>
        <pt x="238" y="1017" on="0"/>
        <pt x="285" y="999" on="0"/>
        <pt x="329" y="978" on="0"/>
        <pt x="372" y="960" on="0"/>
        <pt x="396" y="960" on="1"/>
        <pt x="417" y="960" on="0"/>
        <pt x="468" y="981" on="0"/>
        <pt x="497" y="1007" on="1"/>
        <pt x="497" y="899" on="1"/>
        <pt x="468" y="877" on="0"/>
        <pt x="417" y="860" on="0"/>
        <pt x="395" y="860" on="1"/>
        <pt x="368" y="860" on="0"/>
        <pt x="322" y="878" on="0"/>
        <pt x="277" y="900" on="0"/>
        <pt x="233" y="918" on="0"/>
        <pt x="209" y="918" on="1"/>
        <pt x="188" y="918" on="0"/>
        <pt x="144" y="901" on="0"/>
        <pt x="118" y="879" on="1"/>
      </contour>
    </TTGlyph>
    <TTGlyph name="O" xMin="13" yMin="-11" xMax="595" yMax="830">
      <contour>
        <pt x="304" y="830" on="1"/>
        <pt x="453" y="830" on="0"/>
        <pt x="595" y="618" on="0"/>
        <pt x="595" y="416" on="1"/>
        <pt x="595" y="211" on="0"/>
        <pt x="456" y="-11" on="0"/>
        <pt x="304" y="-11" on="1"/>
        <pt x="229" y="-11" on="0"/>
        <pt x="119" y="46" on="0"/>
        <pt x="47" y="155" on="0"/>
        <pt x="13" y="314" on="0"/>
        <pt x="13" y="416" on="1"/>
        <pt x="13" y="621" on="0"/>
        <pt x="155" y="830" on="0"/>
      </contour>
      <contour>
        <pt x="304" y="247" on="1"/>
        <pt x="336" y="247" on="0"/>
        <pt x="385" y="276" on="0"/>
        <pt x="417" y="327" on="0"/>
        <pt x="433" y="398" on="0"/>
        <pt x="433" y="441" on="1"/>
        <pt x="433" y="484" on="0"/>
        <pt x="417" y="557" on="0"/>
        <pt x="385" y="611" on="0"/>
        <pt x="336" y="641" on="0"/>
        <pt x="304" y="641" on="1"/>
        <pt x="272" y="641" on="0"/>
        <pt x="225" y="610" on="0"/>
        <pt x="192" y="556" on="0"/>
        <pt x="176" y="483" on="0"/>
        <pt x="176" y="441" on="1"/>
        <pt x="176" y="398" on="0"/>
        <pt x="192" y="327" on="0"/>
        <pt x="225" y="276" on="0"/>
        <pt x="272" y="247" on="0"/>
      </contour>
    </TTGlyph>
    <TTGlyph name="OE" xMin="13" yMin="-11" xMax="794" yMax="830">
      <contour>
        <pt x="794" y="-3" on="1"/>
        <pt x="766" y="-2" on="0"/>
        <pt x="677" y="-1" on="0"/>
        <pt x="576" y="0" on="0"/>
        <pt x="474" y="1" on="0"/>
        <pt x="434" y="1" on="1"/>
        <pt x="434" y="11" on="0"/>
        <pt x="435" y="39" on="0"/>
        <pt x="435" y="56" on="1"/>
        <pt x="408" y="23" on="0"/>
        <pt x="339" y="-11" on="0"/>
        <pt x="294" y="-11" on="1"/>
        <pt x="221" y="-11" on="0"/>
        <pt x="115" y="46" on="0"/>
        <pt x="46" y="155" on="0"/>
        <pt x="13" y="314" on="0"/>
        <pt x="13" y="416" on="1"/>
        <pt x="13" y="621" on="0"/>
        <pt x="151" y="830" on="0"/>
        <pt x="294" y="830" on="1"/>
        <pt x="337" y="830" on="0"/>
        <pt x="405" y="803" on="0"/>
        <pt x="434" y="777" on="1"/>
        <pt x="434" y="817" on="1"/>
        <pt x="473" y="817" on="0"/>
        <pt x="564" y="818" on="0"/>
        <pt x="658" y="819" on="0"/>
        <pt x="749" y="821" on="0"/>
        <pt x="790" y="822" on="1"/>
        <pt x="790" y="809" on="0"/>
        <pt x="791" y="790" on="0"/>
        <pt x="791" y="773" on="1"/>
        <pt x="791" y="748" on="0"/>
        <pt x="789" y="688" on="0"/>
        <pt x="787" y="659" on="1"/>
        <pt x="596" y="659" on="1"/>
        <pt x="596" y="533" on="1"/>
        <pt x="761" y="533" on="1"/>
        <pt x="761" y="384" on="1"/>
        <pt x="596" y="384" on="1"/>
        <pt x="596" y="265" on="1"/>
        <pt x="790" y="265" on="1"/>
        <pt x="791" y="242" on="0"/>
        <pt x="793" y="194" on="0"/>
        <pt x="794" y="134" on="0"/>
        <pt x="794" y="53" on="0"/>
      </contour>
      <contour>
        <pt x="304" y="247" on="1"/>
        <pt x="336" y="247" on="0"/>
        <pt x="385" y="276" on="0"/>
        <pt x="417" y="327" on="0"/>
        <pt x="433" y="398" on="0"/>
        <pt x="433" y="441" on="1"/>
        <pt x="433" y="484" on="0"/>
        <pt x="417" y="557" on="0"/>
        <pt x="385" y="611" on="0"/>
        <pt x="336" y="641" on="0"/>
        <pt x="304" y="641" on="1"/>
        <pt x="272" y="641" on="0"/>
        <pt x="225" y="610" on="0"/>
        <pt x="192" y="556" on="0"/>
        <pt x="176" y="483" on="0"/>
        <pt x="176" y="441" on="1"/>
        <pt x="176" y="398" on="0"/>
        <pt x="192" y="327" on="0"/>
        <pt x="225" y="276" on="0"/>
        <pt x="272" y="247" on="0"/>
      </contour>
    </TTGlyph>
    <TTGlyph name="Oacute" xMin="13" yMin="-11" xMax="595" yMax="1040">
      <contour>
        <pt x="304" y="830" on="1"/>
        <pt x="453" y="830" on="0"/>
        <pt x="595" y="618" on="0"/>
        <pt x="595" y="416" on="1"/>
        <pt x="595" y="211" on="0"/>
        <pt x="456" y="-11" on="0"/>
        <pt x="304" y="-11" on="1"/>
        <pt x="229" y="-11" on="0"/>
        <pt x="119" y="46" on="0"/>
        <pt x="47" y="155" on="0"/>
        <pt x="13" y="314" on="0"/>
        <pt x="13" y="416" on="1"/>
        <pt x="13" y="621" on="0"/>
        <pt x="155" y="830" on="0"/>
      </contour>
      <contour>
        <pt x="304" y="247" on="1"/>
        <pt x="336" y="247" on="0"/>
        <pt x="385" y="276" on="0"/>
        <pt x="417" y="327" on="0"/>
        <pt x="433" y="398" on="0"/>
        <pt x="433" y="441" on="1"/>
        <pt x="433" y="484" on="0"/>
        <pt x="417" y="557" on="0"/>
        <pt x="385" y="611" on="0"/>
        <pt x="336" y="641" on="0"/>
        <pt x="304" y="641" on="1"/>
        <pt x="272" y="641" on="0"/>
        <pt x="225" y="610" on="0"/>
        <pt x="192" y="556" on="0"/>
        <pt x="176" y="483" on="0"/>
        <pt x="176" y="441" on="1"/>
        <pt x="176" y="398" on="0"/>
        <pt x="192" y="327" on="0"/>
        <pt x="225" y="276" on="0"/>
        <pt x="272" y="247" on="0"/>
      </contour>
      <contour>
        <pt x="314" y="1040" on="1"/>
        <pt x="460" y="1040" on="1"/>
        <pt x="332" y="849" on="1"/>
        <pt x="241" y="849" on="1"/>
      </contour>
    </TTGlyph>
    <TTGlyph name="Obreve" xMin="13" yMin="-11" xMax="595" yMax="1016">
      <contour>
        <pt x="304" y="830" on="1"/>
        <pt x="453" y="830" on="0"/>
        <pt x="595" y="618" on="0"/>
        <pt x="595" y="416" on="1"/>
        <pt x="595" y="211" on="0"/>
        <pt x="456" y="-11" on="0"/>
        <pt x="304" y="-11" on="1"/>
        <pt x="229" y="-11" on="0"/>
        <pt x="119" y="46" on="0"/>
        <pt x="47" y="155" on="0"/>
        <pt x="13" y="314" on="0"/>
        <pt x="13" y="416" on="1"/>
        <pt x="13" y="621" on="0"/>
        <pt x="155" y="830" on="0"/>
      </contour>
      <contour>
        <pt x="304" y="247" on="1"/>
        <pt x="336" y="247" on="0"/>
        <pt x="385" y="276" on="0"/>
        <pt x="417" y="327" on="0"/>
        <pt x="433" y="398" on="0"/>
        <pt x="433" y="441" on="1"/>
        <pt x="433" y="484" on="0"/>
        <pt x="417" y="557" on="0"/>
        <pt x="385" y="611" on="0"/>
        <pt x="336" y="641" on="0"/>
        <pt x="304" y="641" on="1"/>
        <pt x="272" y="641" on="0"/>
        <pt x="225" y="610" on="0"/>
        <pt x="192" y="556" on="0"/>
        <pt x="176" y="483" on="0"/>
        <pt x="176" y="441" on="1"/>
        <pt x="176" y="398" on="0"/>
        <pt x="192" y="327" on="0"/>
        <pt x="225" y="276" on="0"/>
        <pt x="272" y="247" on="0"/>
      </contour>
      <contour>
        <pt x="450" y="1016" on="1"/>
        <pt x="450" y="981" on="0"/>
        <pt x="425" y="927" on="0"/>
        <pt x="385" y="891" on="0"/>
        <pt x="332" y="872" on="0"/>
        <pt x="304" y="872" on="1"/>
        <pt x="275" y="872" on="0"/>
        <pt x="223" y="891" on="0"/>
        <pt x="183" y="927" on="0"/>
        <pt x="158" y="981" on="0"/>
        <pt x="158" y="1016" on="1"/>
        <pt x="227" y="1016" on="1"/>
        <pt x="229" y="978" on="0"/>
        <pt x="272" y="932" on="0"/>
        <pt x="304" y="932" on="1"/>
        <pt x="336" y="932" on="0"/>
        <pt x="379" y="978" on="0"/>
        <pt x="381" y="1016" on="1"/>
      </contour>
    </TTGlyph>
    <TTGlyph name="Ocircumflex" xMin="13" yMin="-11" xMax="595" yMax="1045">
      <contour>
        <pt x="304" y="830" on="1"/>
        <pt x="453" y="830" on="0"/>
        <pt x="595" y="618" on="0"/>
        <pt x="595" y="416" on="1"/>
        <pt x="595" y="211" on="0"/>
        <pt x="456" y="-11" on="0"/>
        <pt x="304" y="-11" on="1"/>
        <pt x="229" y="-11" on="0"/>
        <pt x="119" y="46" on="0"/>
        <pt x="47" y="155" on="0"/>
        <pt x="13" y="314" on="0"/>
        <pt x="13" y="416" on="1"/>
        <pt x="13" y="621" on="0"/>
        <pt x="155" y="830" on="0"/>
      </contour>
      <contour>
        <pt x="304" y="247" on="1"/>
        <pt x="336" y="247" on="0"/>
        <pt x="385" y="276" on="0"/>
        <pt x="417" y="327" on="0"/>
        <pt x="433" y="398" on="0"/>
        <pt x="433" y="441" on="1"/>
        <pt x="433" y="484" on="0"/>
        <pt x="417" y="557" on="0"/>
        <pt x="385" y="611" on="0"/>
        <pt x="336" y="641" on="0"/>
        <pt x="304" y="641" on="1"/>
        <pt x="272" y="641" on="0"/>
        <pt x="225" y="610" on="0"/>
        <pt x="192" y="556" on="0"/>
        <pt x="176" y="483" on="0"/>
        <pt x="176" y="441" on="1"/>
        <pt x="176" y="398" on="0"/>
        <pt x="192" y="327" on="0"/>
        <pt x="225" y="276" on="0"/>
        <pt x="272" y="247" on="0"/>
      </contour>
      <contour>
        <pt x="304" y="1045" on="1"/>
        <pt x="475" y="932" on="1"/>
        <pt x="445" y="864" on="1"/>
        <pt x="304" y="932" on="1"/>
        <pt x="163" y="864" on="1"/>
        <pt x="133" y="932" on="1"/>
      </contour>
    </TTGlyph>
    <TTGlyph name="Odieresis" xMin="13" yMin="-11" xMax="595" yMax="1012">
      <contour>
        <pt x="304" y="830" on="1"/>
        <pt x="453" y="830" on="0"/>
        <pt x="595" y="618" on="0"/>
        <pt x="595" y="416" on="1"/>
        <pt x="595" y="211" on="0"/>
        <pt x="456" y="-11" on="0"/>
        <pt x="304" y="-11" on="1"/>
        <pt x="229" y="-11" on="0"/>
        <pt x="119" y="46" on="0"/>
        <pt x="47" y="155" on="0"/>
        <pt x="13" y="314" on="0"/>
        <pt x="13" y="416" on="1"/>
        <pt x="13" y="621" on="0"/>
        <pt x="155" y="830" on="0"/>
      </contour>
      <contour>
        <pt x="304" y="247" on="1"/>
        <pt x="336" y="247" on="0"/>
        <pt x="385" y="276" on="0"/>
        <pt x="417" y="327" on="0"/>
        <pt x="433" y="398" on="0"/>
        <pt x="433" y="441" on="1"/>
        <pt x="433" y="484" on="0"/>
        <pt x="417" y="557" on="0"/>
        <pt x="385" y="611" on="0"/>
        <pt x="336" y="641" on="0"/>
        <pt x="304" y="641" on="1"/>
        <pt x="272" y="641" on="0"/>
        <pt x="225" y="610" on="0"/>
        <pt x="192" y="556" on="0"/>
        <pt x="176" y="483" on="0"/>
        <pt x="176" y="441" on="1"/>
        <pt x="176" y="398" on="0"/>
        <pt x="192" y="327" on="0"/>
        <pt x="225" y="276" on="0"/>
        <pt x="272" y="247" on="0"/>
      </contour>
      <contour>
        <pt x="138" y="939" on="1"/>
        <pt x="138" y="978" on="0"/>
        <pt x="185" y="1012" on="0"/>
        <pt x="212" y="1012" on="1"/>
        <pt x="244" y="1012" on="0"/>
        <pt x="281" y="970" on="0"/>
        <pt x="281" y="939" on="1"/>
        <pt x="281" y="907" on="0"/>
        <pt x="242" y="866" on="0"/>
        <pt x="213" y="866" on="1"/>
        <pt x="201" y="866" on="0"/>
        <pt x="175" y="874" on="0"/>
        <pt x="152" y="891" on="0"/>
        <pt x="138" y="919" on="0"/>
      </contour>
      <contour>
        <pt x="327" y="940" on="1"/>
        <pt x="327" y="959" on="0"/>
        <pt x="340" y="986" on="0"/>
        <pt x="361" y="1004" on="0"/>
        <pt x="387" y="1012" on="0"/>
        <pt x="400" y="1012" on="1"/>
        <pt x="432" y="1012" on="0"/>
        <pt x="470" y="970" on="0"/>
        <pt x="470" y="939" on="1"/>
        <pt x="470" y="907" on="0"/>
        <pt x="431" y="866" on="0"/>
        <pt x="402" y="866" on="1"/>
        <pt x="390" y="866" on="0"/>
        <pt x="364" y="874" on="0"/>
        <pt x="341" y="891" on="0"/>
        <pt x="327" y="919" on="0"/>
      </contour>
    </TTGlyph>
    <TTGlyph name="Odotbelow" xMin="13" yMin="-205" xMax="595" yMax="830">
      <contour>
        <pt x="304" y="830" on="1"/>
        <pt x="453" y="830" on="0"/>
        <pt x="595" y="618" on="0"/>
        <pt x="595" y="416" on="1"/>
        <pt x="595" y="211" on="0"/>
        <pt x="456" y="-11" on="0"/>
        <pt x="304" y="-11" on="1"/>
        <pt x="229" y="-11" on="0"/>
        <pt x="119" y="46" on="0"/>
        <pt x="47" y="155" on="0"/>
        <pt x="13" y="314" on="0"/>
        <pt x="13" y="416" on="1"/>
        <pt x="13" y="621" on="0"/>
        <pt x="155" y="830" on="0"/>
      </contour>
      <contour>
        <pt x="304" y="247" on="1"/>
        <pt x="336" y="247" on="0"/>
        <pt x="385" y="276" on="0"/>
        <pt x="417" y="327" on="0"/>
        <pt x="433" y="398" on="0"/>
        <pt x="433" y="441" on="1"/>
        <pt x="433" y="484" on="0"/>
        <pt x="417" y="557" on="0"/>
        <pt x="385" y="611" on="0"/>
        <pt x="336" y="641" on="0"/>
        <pt x="304" y="641" on="1"/>
        <pt x="272" y="641" on="0"/>
        <pt x="225" y="610" on="0"/>
        <pt x="192" y="556" on="0"/>
        <pt x="176" y="483" on="0"/>
        <pt x="176" y="441" on="1"/>
        <pt x="176" y="398" on="0"/>
        <pt x="192" y="327" on="0"/>
        <pt x="225" y="276" on="0"/>
        <pt x="272" y="247" on="0"/>
      </contour>
      <contour>
        <pt x="305" y="-52" on="1"/>
        <pt x="341" y="-52" on="0"/>
        <pt x="380" y="-100" on="0"/>
        <pt x="380" y="-129" on="1"/>
        <pt x="380" y="-158" on="0"/>
        <pt x="341" y="-205" on="0"/>
        <pt x="305" y="-205" on="1"/>
        <pt x="269" y="-205" on="0"/>
        <pt x="230" y="-158" on="0"/>
        <pt x="230" y="-129" on="1"/>
        <pt x="230" y="-100" on="0"/>
        <pt x="269" y="-52" on="0"/>
      </contour>
    </TTGlyph>
    <TTGlyph name="Ograve" xMin="13" yMin="-11" xMax="595" yMax="1040">
      <contour>
        <pt x="304" y="830" on="1"/>
        <pt x="453" y="830" on="0"/>
        <pt x="595" y="618" on="0"/>
        <pt x="595" y="416" on="1"/>
        <pt x="595" y="211" on="0"/>
        <pt x="456" y="-11" on="0"/>
        <pt x="304" y="-11" on="1"/>
        <pt x="229" y="-11" on="0"/>
        <pt x="119" y="46" on="0"/>
        <pt x="47" y="155" on="0"/>
        <pt x="13" y="314" on="0"/>
        <pt x="13" y="416" on="1"/>
        <pt x="13" y="621" on="0"/>
        <pt x="155" y="830" on="0"/>
      </contour>
      <contour>
        <pt x="304" y="247" on="1"/>
        <pt x="336" y="247" on="0"/>
        <pt x="385" y="276" on="0"/>
        <pt x="417" y="327" on="0"/>
        <pt x="433" y="398" on="0"/>
        <pt x="433" y="441" on="1"/>
        <pt x="433" y="484" on="0"/>
        <pt x="417" y="557" on="0"/>
        <pt x="385" y="611" on="0"/>
        <pt x="336" y="641" on="0"/>
        <pt x="304" y="641" on="1"/>
        <pt x="272" y="641" on="0"/>
        <pt x="225" y="610" on="0"/>
        <pt x="192" y="556" on="0"/>
        <pt x="176" y="483" on="0"/>
        <pt x="176" y="441" on="1"/>
        <pt x="176" y="398" on="0"/>
        <pt x="192" y="327" on="0"/>
        <pt x="225" y="276" on="0"/>
        <pt x="272" y="247" on="0"/>
      </contour>
      <contour>
        <pt x="367" y="849" on="1"/>
        <pt x="276" y="849" on="1"/>
        <pt x="148" y="1040" on="1"/>
        <pt x="294" y="1040" on="1"/>
      </contour>
    </TTGlyph>
    <TTGlyph name="Ohungarumlaut" xMin="13" yMin="-11" xMax="595" yMax="1040">
      <contour>
        <pt x="304" y="830" on="1"/>
        <pt x="453" y="830" on="0"/>
        <pt x="595" y="618" on="0"/>
        <pt x="595" y="416" on="1"/>
        <pt x="595" y="211" on="0"/>
        <pt x="456" y="-11" on="0"/>
        <pt x="304" y="-11" on="1"/>
        <pt x="229" y="-11" on="0"/>
        <pt x="119" y="46" on="0"/>
        <pt x="47" y="155" on="0"/>
        <pt x="13" y="314" on="0"/>
        <pt x="13" y="416" on="1"/>
        <pt x="13" y="621" on="0"/>
        <pt x="155" y="830" on="0"/>
      </contour>
      <contour>
        <pt x="304" y="247" on="1"/>
        <pt x="336" y="247" on="0"/>
        <pt x="385" y="276" on="0"/>
        <pt x="417" y="327" on="0"/>
        <pt x="433" y="398" on="0"/>
        <pt x="433" y="441" on="1"/>
        <pt x="433" y="484" on="0"/>
        <pt x="417" y="557" on="0"/>
        <pt x="385" y="611" on="0"/>
        <pt x="336" y="641" on="0"/>
        <pt x="304" y="641" on="1"/>
        <pt x="272" y="641" on="0"/>
        <pt x="225" y="610" on="0"/>
        <pt x="192" y="556" on="0"/>
        <pt x="176" y="483" on="0"/>
        <pt x="176" y="441" on="1"/>
        <pt x="176" y="398" on="0"/>
        <pt x="192" y="327" on="0"/>
        <pt x="225" y="276" on="0"/>
        <pt x="272" y="247" on="0"/>
      </contour>
      <contour>
        <pt x="244" y="1040" on="1"/>
        <pt x="354" y="1040" on="1"/>
        <pt x="260" y="849" on="1"/>
        <pt x="179" y="849" on="1"/>
      </contour>
      <contour>
        <pt x="414" y="1040" on="1"/>
        <pt x="524" y="1040" on="1"/>
        <pt x="430" y="849" on="1"/>
        <pt x="349" y="849" on="1"/>
      </contour>
    </TTGlyph>
    <TTGlyph name="Omacron" xMin="13" yMin="-11" xMax="595" yMax="995">
      <contour>
        <pt x="304" y="830" on="1"/>
        <pt x="453" y="830" on="0"/>
        <pt x="595" y="618" on="0"/>
        <pt x="595" y="416" on="1"/>
        <pt x="595" y="211" on="0"/>
        <pt x="456" y="-11" on="0"/>
        <pt x="304" y="-11" on="1"/>
        <pt x="229" y="-11" on="0"/>
        <pt x="119" y="46" on="0"/>
        <pt x="47" y="155" on="0"/>
        <pt x="13" y="314" on="0"/>
        <pt x="13" y="416" on="1"/>
        <pt x="13" y="621" on="0"/>
        <pt x="155" y="830" on="0"/>
      </contour>
      <contour>
        <pt x="304" y="247" on="1"/>
        <pt x="336" y="247" on="0"/>
        <pt x="385" y="276" on="0"/>
        <pt x="417" y="327" on="0"/>
        <pt x="433" y="398" on="0"/>
        <pt x="433" y="441" on="1"/>
        <pt x="433" y="484" on="0"/>
        <pt x="417" y="557" on="0"/>
        <pt x="385" y="611" on="0"/>
        <pt x="336" y="641" on="0"/>
        <pt x="304" y="641" on="1"/>
        <pt x="272" y="641" on="0"/>
        <pt x="225" y="610" on="0"/>
        <pt x="192" y="556" on="0"/>
        <pt x="176" y="483" on="0"/>
        <pt x="176" y="441" on="1"/>
        <pt x="176" y="398" on="0"/>
        <pt x="192" y="327" on="0"/>
        <pt x="225" y="276" on="0"/>
        <pt x="272" y="247" on="0"/>
      </contour>
      <contour>
        <pt x="477" y="995" on="1"/>
        <pt x="477" y="901" on="1"/>
        <pt x="147" y="901" on="1"/>
        <pt x="147" y="995" on="1"/>
      </contour>
    </TTGlyph>
    <TTGlyph name="Oogonek" xMin="13" yMin="-205" xMax="595" yMax="830">
      <contour>
        <pt x="397" y="-183" on="1"/>
        <pt x="334" y="-205" on="0"/>
        <pt x="291" y="-205" on="1"/>
        <pt x="251" y="-205" on="0"/>
        <pt x="205" y="-167" on="0"/>
        <pt x="205" y="-135" on="1"/>
        <pt x="205" y="-108" on="0"/>
        <pt x="238" y="-42" on="0"/>
        <pt x="269" y="-9" on="1"/>
        <pt x="136" y="3" on="0"/>
        <pt x="13" y="223" on="0"/>
        <pt x="13" y="416" on="1"/>
        <pt x="13" y="621" on="0"/>
        <pt x="155" y="830" on="0"/>
        <pt x="304" y="830" on="1"/>
        <pt x="453" y="830" on="0"/>
        <pt x="595" y="618" on="0"/>
        <pt x="595" y="416" on="1"/>
        <pt x="595" y="229" on="0"/>
        <pt x="481" y="12" on="0"/>
        <pt x="356" y="-7" on="1"/>
        <pt x="329" y="-33" on="0"/>
        <pt x="295" y="-91" on="0"/>
        <pt x="295" y="-111" on="1"/>
        <pt x="295" y="-132" on="0"/>
        <pt x="317" y="-132" on="1"/>
        <pt x="331" y="-132" on="0"/>
        <pt x="371" y="-124" on="0"/>
        <pt x="390" y="-116" on="1"/>
      </contour>
      <contour>
        <pt x="304" y="247" on="1"/>
        <pt x="336" y="247" on="0"/>
        <pt x="385" y="276" on="0"/>
        <pt x="417" y="327" on="0"/>
        <pt x="433" y="398" on="0"/>
        <pt x="433" y="441" on="1"/>
        <pt x="433" y="484" on="0"/>
        <pt x="417" y="557" on="0"/>
        <pt x="385" y="611" on="0"/>
        <pt x="336" y="641" on="0"/>
        <pt x="304" y="641" on="1"/>
        <pt x="272" y="641" on="0"/>
        <pt x="225" y="610" on="0"/>
        <pt x="192" y="556" on="0"/>
        <pt x="176" y="483" on="0"/>
        <pt x="176" y="441" on="1"/>
        <pt x="176" y="398" on="0"/>
        <pt x="192" y="327" on="0"/>
        <pt x="225" y="276" on="0"/>
        <pt x="272" y="247" on="0"/>
      </contour>
    </TTGlyph>
    <TTGlyph name="Oslash" xMin="-14" yMin="-11" xMax="632" yMax="830">
      <contour>
        <pt x="309" y="830" on="1"/>
        <pt x="369" y="830" on="0"/>
        <pt x="463" y="795" on="0"/>
        <pt x="498" y="761" on="1"/>
        <pt x="536" y="818" on="1"/>
        <pt x="632" y="818" on="1"/>
        <pt x="547" y="692" on="1"/>
        <pt x="600" y="592" on="0"/>
        <pt x="600" y="416" on="1"/>
        <pt x="600" y="211" on="0"/>
        <pt x="461" y="-11" on="0"/>
        <pt x="309" y="-11" on="1"/>
        <pt x="249" y="-11" on="0"/>
        <pt x="156" y="24" on="0"/>
        <pt x="121" y="58" on="1"/>
        <pt x="82" y="0" on="1"/>
        <pt x="-14" y="0" on="1"/>
        <pt x="72" y="128" on="1"/>
        <pt x="44" y="182" on="0"/>
        <pt x="18" y="325" on="0"/>
        <pt x="18" y="416" on="1"/>
        <pt x="18" y="621" on="0"/>
        <pt x="160" y="830" on="0"/>
      </contour>
      <contour>
        <pt x="181" y="441" on="1"/>
        <pt x="181" y="370" on="0"/>
        <pt x="202" y="322" on="1"/>
        <pt x="391" y="603" on="1"/>
        <pt x="359" y="641" on="0"/>
        <pt x="309" y="641" on="1"/>
        <pt x="277" y="641" on="0"/>
        <pt x="230" y="610" on="0"/>
        <pt x="197" y="556" on="0"/>
        <pt x="181" y="483" on="0"/>
      </contour>
      <contour>
        <pt x="309" y="247" on="1"/>
        <pt x="341" y="247" on="0"/>
        <pt x="390" y="276" on="0"/>
        <pt x="422" y="327" on="0"/>
        <pt x="438" y="398" on="0"/>
        <pt x="438" y="441" on="1"/>
        <pt x="438" y="481" on="0"/>
        <pt x="430" y="518" on="1"/>
        <pt x="256" y="259" on="1"/>
        <pt x="280" y="247" on="0"/>
      </contour>
    </TTGlyph>
    <TTGlyph name="Oslashacute" xMin="-14" yMin="-11" xMax="632" yMax="1040">
      <contour>
        <pt x="309" y="830" on="1"/>
        <pt x="369" y="830" on="0"/>
        <pt x="463" y="795" on="0"/>
        <pt x="498" y="761" on="1"/>
        <pt x="536" y="818" on="1"/>
        <pt x="632" y="818" on="1"/>
        <pt x="547" y="692" on="1"/>
        <pt x="600" y="592" on="0"/>
        <pt x="600" y="416" on="1"/>
        <pt x="600" y="211" on="0"/>
        <pt x="461" y="-11" on="0"/>
        <pt x="309" y="-11" on="1"/>
        <pt x="249" y="-11" on="0"/>
        <pt x="156" y="24" on="0"/>
        <pt x="121" y="58" on="1"/>
        <pt x="82" y="0" on="1"/>
        <pt x="-14" y="0" on="1"/>
        <pt x="72" y="128" on="1"/>
        <pt x="44" y="182" on="0"/>
        <pt x="18" y="325" on="0"/>
        <pt x="18" y="416" on="1"/>
        <pt x="18" y="621" on="0"/>
        <pt x="160" y="830" on="0"/>
      </contour>
      <contour>
        <pt x="181" y="441" on="1"/>
        <pt x="181" y="370" on="0"/>
        <pt x="202" y="322" on="1"/>
        <pt x="391" y="603" on="1"/>
        <pt x="359" y="641" on="0"/>
        <pt x="309" y="641" on="1"/>
        <pt x="277" y="641" on="0"/>
        <pt x="230" y="610" on="0"/>
        <pt x="197" y="556" on="0"/>
        <pt x="181" y="483" on="0"/>
      </contour>
      <contour>
        <pt x="319" y="1040" on="1"/>
        <pt x="465" y="1040" on="1"/>
        <pt x="337" y="849" on="1"/>
        <pt x="246" y="849" on="1"/>
      </contour>
      <contour>
        <pt x="309" y="247" on="1"/>
        <pt x="341" y="247" on="0"/>
        <pt x="390" y="276" on="0"/>
        <pt x="422" y="327" on="0"/>
        <pt x="438" y="398" on="0"/>
        <pt x="438" y="441" on="1"/>
        <pt x="438" y="481" on="0"/>
        <pt x="430" y="518" on="1"/>
        <pt x="256" y="259" on="1"/>
        <pt x="280" y="247" on="0"/>
      </contour>
    </TTGlyph>
    <TTGlyph name="Otilde" xMin="13" yMin="-11" xMax="595" yMax="1017">
      <contour>
        <pt x="304" y="830" on="1"/>
        <pt x="453" y="830" on="0"/>
        <pt x="595" y="618" on="0"/>
        <pt x="595" y="416" on="1"/>
        <pt x="595" y="211" on="0"/>
        <pt x="456" y="-11" on="0"/>
        <pt x="304" y="-11" on="1"/>
        <pt x="229" y="-11" on="0"/>
        <pt x="119" y="46" on="0"/>
        <pt x="47" y="155" on="0"/>
        <pt x="13" y="314" on="0"/>
        <pt x="13" y="416" on="1"/>
        <pt x="13" y="621" on="0"/>
        <pt x="155" y="830" on="0"/>
      </contour>
      <contour>
        <pt x="304" y="247" on="1"/>
        <pt x="336" y="247" on="0"/>
        <pt x="385" y="276" on="0"/>
        <pt x="417" y="327" on="0"/>
        <pt x="433" y="398" on="0"/>
        <pt x="433" y="441" on="1"/>
        <pt x="433" y="484" on="0"/>
        <pt x="417" y="557" on="0"/>
        <pt x="385" y="611" on="0"/>
        <pt x="336" y="641" on="0"/>
        <pt x="304" y="641" on="1"/>
        <pt x="272" y="641" on="0"/>
        <pt x="225" y="610" on="0"/>
        <pt x="192" y="556" on="0"/>
        <pt x="176" y="483" on="0"/>
        <pt x="176" y="441" on="1"/>
        <pt x="176" y="398" on="0"/>
        <pt x="192" y="327" on="0"/>
        <pt x="225" y="276" on="0"/>
        <pt x="272" y="247" on="0"/>
      </contour>
      <contour>
        <pt x="122" y="989" on="1"/>
        <pt x="148" y="1004" on="0"/>
        <pt x="193" y="1017" on="0"/>
        <pt x="214" y="1017" on="1"/>
        <pt x="242" y="1017" on="0"/>
        <pt x="289" y="999" on="0"/>
        <pt x="333" y="978" on="0"/>
        <pt x="376" y="960" on="0"/>
        <pt x="400" y="960" on="1"/>
        <pt x="421" y="960" on="0"/>
        <pt x="472" y="981" on="0"/>
        <pt x="501" y="1007" on="1"/>
        <pt x="501" y="899" on="1"/>
        <pt x="472" y="877" on="0"/>
        <pt x="421" y="860" on="0"/>
        <pt x="399" y="860" on="1"/>
        <pt x="372" y="860" on="0"/>
        <pt x="326" y="878" on="0"/>
        <pt x="281" y="900" on="0"/>
        <pt x="237" y="918" on="0"/>
        <pt x="213" y="918" on="1"/>
        <pt x="192" y="918" on="0"/>
        <pt x="148" y="901" on="0"/>
        <pt x="122" y="879" on="1"/>
      </contour>
    </TTGlyph>
    <TTGlyph name="P" xMin="27" yMin="0" xMax="553" yMax="830">
      <contour>
        <pt x="198" y="460" on="1"/>
        <pt x="216" y="455" on="0"/>
        <pt x="249" y="452" on="0"/>
        <pt x="261" y="452" on="1"/>
        <pt x="280" y="452" on="0"/>
        <pt x="315" y="461" on="0"/>
        <pt x="341" y="483" on="0"/>
        <pt x="357" y="520" on="0"/>
        <pt x="357" y="549" on="1"/>
        <pt x="357" y="579" on="0"/>
        <pt x="340" y="618" on="0"/>
        <pt x="312" y="640" on="0"/>
        <pt x="275" y="648" on="0"/>
        <pt x="255" y="648" on="1"/>
        <pt x="226" y="648" on="0"/>
        <pt x="198" y="642" on="1"/>
      </contour>
      <contour>
        <pt x="27" y="0" on="1"/>
        <pt x="30" y="95" on="0"/>
        <pt x="32" y="284" on="0"/>
        <pt x="32" y="369" on="1"/>
        <pt x="32" y="490" on="0"/>
        <pt x="29" y="708" on="0"/>
        <pt x="27" y="818" on="1"/>
        <pt x="76" y="823" on="0"/>
        <pt x="175" y="830" on="0"/>
        <pt x="223" y="830" on="1"/>
        <pt x="292" y="830" on="0"/>
        <pt x="412" y="808" on="0"/>
        <pt x="501" y="749" on="0"/>
        <pt x="553" y="644" on="0"/>
        <pt x="553" y="562" on="1"/>
        <pt x="553" y="486" on="0"/>
        <pt x="509" y="379" on="0"/>
        <pt x="430" y="312" on="0"/>
        <pt x="320" y="282" on="0"/>
        <pt x="253" y="282" on="1"/>
        <pt x="236" y="282" on="0"/>
        <pt x="211" y="284" on="0"/>
        <pt x="196" y="286" on="1"/>
        <pt x="196" y="214" on="0"/>
        <pt x="198" y="72" on="0"/>
        <pt x="203" y="0" on="1"/>
      </contour>
    </TTGlyph>
    <TTGlyph name="Q" xMin="13" yMin="-160" xMax="595" yMax="830">
      <contour>
        <pt x="304" y="830" on="1"/>
        <pt x="453" y="830" on="0"/>
        <pt x="595" y="618" on="0"/>
        <pt x="595" y="416" on="1"/>
        <pt x="595" y="242" on="0"/>
        <pt x="512" y="62" on="0"/>
        <pt x="434" y="43" on="1"/>
        <pt x="464" y="32" on="0"/>
        <pt x="531" y="20" on="0"/>
        <pt x="577" y="20" on="1"/>
        <pt x="520" y="-160" on="1"/>
        <pt x="482" y="-159" on="0"/>
        <pt x="417" y="-134" on="0"/>
        <pt x="365" y="-93" on="0"/>
        <pt x="324" y="-40" on="0"/>
        <pt x="309" y="-11" on="1"/>
        <pt x="304" y="-11" on="1"/>
        <pt x="229" y="-11" on="0"/>
        <pt x="119" y="46" on="0"/>
        <pt x="47" y="155" on="0"/>
        <pt x="13" y="314" on="0"/>
        <pt x="13" y="416" on="1"/>
        <pt x="13" y="621" on="0"/>
        <pt x="155" y="830" on="0"/>
      </contour>
      <contour>
        <pt x="304" y="247" on="1"/>
        <pt x="336" y="247" on="0"/>
        <pt x="385" y="276" on="0"/>
        <pt x="417" y="327" on="0"/>
        <pt x="433" y="398" on="0"/>
        <pt x="433" y="441" on="1"/>
        <pt x="433" y="484" on="0"/>
        <pt x="417" y="557" on="0"/>
        <pt x="385" y="611" on="0"/>
        <pt x="336" y="641" on="0"/>
        <pt x="304" y="641" on="1"/>
        <pt x="272" y="641" on="0"/>
        <pt x="225" y="610" on="0"/>
        <pt x="192" y="556" on="0"/>
        <pt x="176" y="483" on="0"/>
        <pt x="176" y="441" on="1"/>
        <pt x="176" y="398" on="0"/>
        <pt x="192" y="327" on="0"/>
        <pt x="225" y="276" on="0"/>
        <pt x="272" y="247" on="0"/>
      </contour>
    </TTGlyph>
    <TTGlyph name="R" xMin="27" yMin="0" xMax="589" yMax="830">
      <contour>
        <pt x="27" y="0" on="1"/>
        <pt x="30" y="95" on="0"/>
        <pt x="32" y="284" on="0"/>
        <pt x="32" y="369" on="1"/>
        <pt x="32" y="490" on="0"/>
        <pt x="29" y="708" on="0"/>
        <pt x="27" y="818" on="1"/>
        <pt x="76" y="823" on="0"/>
        <pt x="175" y="830" on="0"/>
        <pt x="226" y="830" on="1"/>
        <pt x="299" y="830" on="0"/>
        <pt x="427" y="809" on="0"/>
        <pt x="521" y="752" on="0"/>
        <pt x="576" y="652" on="0"/>
        <pt x="576" y="573" on="1"/>
        <pt x="576" y="475" on="0"/>
        <pt x="495" y="363" on="0"/>
        <pt x="426" y="335" on="1"/>
        <pt x="589" y="0" on="1"/>
        <pt x="411" y="0" on="1"/>
        <pt x="278" y="305" on="1"/>
        <pt x="237" y="302" on="0"/>
        <pt x="193" y="302" on="1"/>
        <pt x="193" y="225" on="0"/>
        <pt x="195" y="77" on="0"/>
        <pt x="200" y="0" on="1"/>
      </contour>
      <contour>
        <pt x="193" y="454" on="1"/>
        <pt x="224" y="451" on="0"/>
        <pt x="250" y="451" on="1"/>
        <pt x="318" y="451" on="0"/>
        <pt x="375" y="502" on="0"/>
        <pt x="375" y="553" on="1"/>
        <pt x="375" y="584" on="0"/>
        <pt x="358" y="622" on="0"/>
        <pt x="329" y="644" on="0"/>
        <pt x="290" y="652" on="0"/>
        <pt x="268" y="652" on="1"/>
        <pt x="252" y="652" on="0"/>
        <pt x="213" y="649" on="0"/>
        <pt x="193" y="646" on="1"/>
      </contour>
    </TTGlyph>
    <TTGlyph name="Racute" xMin="27" yMin="0" xMax="589" yMax="1040">
      <contour>
        <pt x="27" y="0" on="1"/>
        <pt x="30" y="95" on="0"/>
        <pt x="32" y="284" on="0"/>
        <pt x="32" y="369" on="1"/>
        <pt x="32" y="490" on="0"/>
        <pt x="29" y="708" on="0"/>
        <pt x="27" y="818" on="1"/>
        <pt x="76" y="823" on="0"/>
        <pt x="175" y="830" on="0"/>
        <pt x="226" y="830" on="1"/>
        <pt x="299" y="830" on="0"/>
        <pt x="427" y="809" on="0"/>
        <pt x="521" y="752" on="0"/>
        <pt x="576" y="652" on="0"/>
        <pt x="576" y="573" on="1"/>
        <pt x="576" y="475" on="0"/>
        <pt x="495" y="363" on="0"/>
        <pt x="426" y="335" on="1"/>
        <pt x="589" y="0" on="1"/>
        <pt x="411" y="0" on="1"/>
        <pt x="278" y="305" on="1"/>
        <pt x="237" y="302" on="0"/>
        <pt x="193" y="302" on="1"/>
        <pt x="193" y="225" on="0"/>
        <pt x="195" y="77" on="0"/>
        <pt x="200" y="0" on="1"/>
      </contour>
      <contour>
        <pt x="193" y="454" on="1"/>
        <pt x="224" y="451" on="0"/>
        <pt x="250" y="451" on="1"/>
        <pt x="318" y="451" on="0"/>
        <pt x="375" y="502" on="0"/>
        <pt x="375" y="553" on="1"/>
        <pt x="375" y="584" on="0"/>
        <pt x="358" y="622" on="0"/>
        <pt x="329" y="644" on="0"/>
        <pt x="290" y="652" on="0"/>
        <pt x="268" y="652" on="1"/>
        <pt x="252" y="652" on="0"/>
        <pt x="213" y="649" on="0"/>
        <pt x="193" y="646" on="1"/>
      </contour>
      <contour>
        <pt x="290" y="1040" on="1"/>
        <pt x="436" y="1040" on="1"/>
        <pt x="308" y="849" on="1"/>
        <pt x="217" y="849" on="1"/>
      </contour>
    </TTGlyph>
    <TTGlyph name="Rcaron" xMin="27" yMin="0" xMax="589" yMax="1045">
      <contour>
        <pt x="27" y="0" on="1"/>
        <pt x="30" y="95" on="0"/>
        <pt x="32" y="284" on="0"/>
        <pt x="32" y="369" on="1"/>
        <pt x="32" y="490" on="0"/>
        <pt x="29" y="708" on="0"/>
        <pt x="27" y="818" on="1"/>
        <pt x="76" y="823" on="0"/>
        <pt x="175" y="830" on="0"/>
        <pt x="226" y="830" on="1"/>
        <pt x="299" y="830" on="0"/>
        <pt x="427" y="809" on="0"/>
        <pt x="521" y="752" on="0"/>
        <pt x="576" y="652" on="0"/>
        <pt x="576" y="573" on="1"/>
        <pt x="576" y="475" on="0"/>
        <pt x="495" y="363" on="0"/>
        <pt x="426" y="335" on="1"/>
        <pt x="589" y="0" on="1"/>
        <pt x="411" y="0" on="1"/>
        <pt x="278" y="305" on="1"/>
        <pt x="237" y="302" on="0"/>
        <pt x="193" y="302" on="1"/>
        <pt x="193" y="225" on="0"/>
        <pt x="195" y="77" on="0"/>
        <pt x="200" y="0" on="1"/>
      </contour>
      <contour>
        <pt x="193" y="454" on="1"/>
        <pt x="224" y="451" on="0"/>
        <pt x="250" y="451" on="1"/>
        <pt x="318" y="451" on="0"/>
        <pt x="375" y="502" on="0"/>
        <pt x="375" y="553" on="1"/>
        <pt x="375" y="584" on="0"/>
        <pt x="358" y="622" on="0"/>
        <pt x="329" y="644" on="0"/>
        <pt x="290" y="652" on="0"/>
        <pt x="268" y="652" on="1"/>
        <pt x="252" y="652" on="0"/>
        <pt x="213" y="649" on="0"/>
        <pt x="193" y="646" on="1"/>
      </contour>
      <contour>
        <pt x="109" y="977" on="1"/>
        <pt x="139" y="1045" on="1"/>
        <pt x="280" y="976" on="1"/>
        <pt x="421" y="1045" on="1"/>
        <pt x="451" y="977" on="1"/>
        <pt x="280" y="863" on="1"/>
      </contour>
    </TTGlyph>
    <TTGlyph name="Rcommaaccent" xMin="27" yMin="-205" xMax="589" yMax="830">
      <contour>
        <pt x="27" y="0" on="1"/>
        <pt x="30" y="95" on="0"/>
        <pt x="32" y="284" on="0"/>
        <pt x="32" y="369" on="1"/>
        <pt x="32" y="490" on="0"/>
        <pt x="29" y="708" on="0"/>
        <pt x="27" y="818" on="1"/>
        <pt x="76" y="823" on="0"/>
        <pt x="175" y="830" on="0"/>
        <pt x="226" y="830" on="1"/>
        <pt x="299" y="830" on="0"/>
        <pt x="427" y="809" on="0"/>
        <pt x="521" y="752" on="0"/>
        <pt x="576" y="652" on="0"/>
        <pt x="576" y="573" on="1"/>
        <pt x="576" y="475" on="0"/>
        <pt x="495" y="363" on="0"/>
        <pt x="426" y="335" on="1"/>
        <pt x="589" y="0" on="1"/>
        <pt x="411" y="0" on="1"/>
        <pt x="278" y="305" on="1"/>
        <pt x="237" y="302" on="0"/>
        <pt x="193" y="302" on="1"/>
        <pt x="193" y="225" on="0"/>
        <pt x="195" y="77" on="0"/>
        <pt x="200" y="0" on="1"/>
      </contour>
      <contour>
        <pt x="193" y="454" on="1"/>
        <pt x="224" y="451" on="0"/>
        <pt x="250" y="451" on="1"/>
        <pt x="318" y="451" on="0"/>
        <pt x="375" y="502" on="0"/>
        <pt x="375" y="553" on="1"/>
        <pt x="375" y="584" on="0"/>
        <pt x="358" y="622" on="0"/>
        <pt x="329" y="644" on="0"/>
        <pt x="290" y="652" on="0"/>
        <pt x="268" y="652" on="1"/>
        <pt x="252" y="652" on="0"/>
        <pt x="213" y="649" on="0"/>
        <pt x="193" y="646" on="1"/>
      </contour>
      <contour>
        <pt x="367" y="-55" on="1"/>
        <pt x="307" y="-205" on="1"/>
        <pt x="211" y="-205" on="1"/>
        <pt x="235" y="-55" on="1"/>
      </contour>
    </TTGlyph>
    <TTGlyph name="Rdotbelow" xMin="27" yMin="-205" xMax="589" yMax="830">
      <contour>
        <pt x="27" y="0" on="1"/>
        <pt x="30" y="95" on="0"/>
        <pt x="32" y="284" on="0"/>
        <pt x="32" y="369" on="1"/>
        <pt x="32" y="490" on="0"/>
        <pt x="29" y="708" on="0"/>
        <pt x="27" y="818" on="1"/>
        <pt x="76" y="823" on="0"/>
        <pt x="175" y="830" on="0"/>
        <pt x="226" y="830" on="1"/>
        <pt x="299" y="830" on="0"/>
        <pt x="427" y="809" on="0"/>
        <pt x="521" y="752" on="0"/>
        <pt x="576" y="652" on="0"/>
        <pt x="576" y="573" on="1"/>
        <pt x="576" y="475" on="0"/>
        <pt x="495" y="363" on="0"/>
        <pt x="426" y="335" on="1"/>
        <pt x="589" y="0" on="1"/>
        <pt x="411" y="0" on="1"/>
        <pt x="278" y="305" on="1"/>
        <pt x="237" y="302" on="0"/>
        <pt x="193" y="302" on="1"/>
        <pt x="193" y="225" on="0"/>
        <pt x="195" y="77" on="0"/>
        <pt x="200" y="0" on="1"/>
      </contour>
      <contour>
        <pt x="193" y="454" on="1"/>
        <pt x="224" y="451" on="0"/>
        <pt x="250" y="451" on="1"/>
        <pt x="318" y="451" on="0"/>
        <pt x="375" y="502" on="0"/>
        <pt x="375" y="553" on="1"/>
        <pt x="375" y="584" on="0"/>
        <pt x="358" y="622" on="0"/>
        <pt x="329" y="644" on="0"/>
        <pt x="290" y="652" on="0"/>
        <pt x="268" y="652" on="1"/>
        <pt x="252" y="652" on="0"/>
        <pt x="213" y="649" on="0"/>
        <pt x="193" y="646" on="1"/>
      </contour>
      <contour>
        <pt x="296" y="-52" on="1"/>
        <pt x="332" y="-52" on="0"/>
        <pt x="371" y="-100" on="0"/>
        <pt x="371" y="-129" on="1"/>
        <pt x="371" y="-158" on="0"/>
        <pt x="332" y="-205" on="0"/>
        <pt x="296" y="-205" on="1"/>
        <pt x="260" y="-205" on="0"/>
        <pt x="221" y="-158" on="0"/>
        <pt x="221" y="-129" on="1"/>
        <pt x="221" y="-100" on="0"/>
        <pt x="260" y="-52" on="0"/>
      </contour>
    </TTGlyph>
    <TTGlyph name="S" xMin="11" yMin="-11" xMax="455" yMax="830">
      <contour>
        <pt x="17" y="615" on="1"/>
        <pt x="17" y="679" on="0"/>
        <pt x="66" y="762" on="0"/>
        <pt x="141" y="811" on="0"/>
        <pt x="232" y="830" on="0"/>
        <pt x="274" y="830" on="1"/>
        <pt x="286" y="830" on="0"/>
        <pt x="323" y="828" on="0"/>
        <pt x="364" y="824" on="0"/>
        <pt x="407" y="817" on="0"/>
        <pt x="426" y="811" on="1"/>
        <pt x="428" y="785" on="0"/>
        <pt x="430" y="740" on="0"/>
        <pt x="430" y="711" on="1"/>
        <pt x="430" y="682" on="0"/>
        <pt x="428" y="629" on="0"/>
        <pt x="426" y="605" on="1"/>
        <pt x="418" y="606" on="0"/>
        <pt x="393" y="610" on="0"/>
        <pt x="366" y="612" on="0"/>
        <pt x="339" y="614" on="0"/>
        <pt x="327" y="614" on="1"/>
        <pt x="279" y="614" on="0"/>
        <pt x="235" y="584" on="0"/>
        <pt x="235" y="558" on="1"/>
        <pt x="235" y="543" on="0"/>
        <pt x="249" y="516" on="0"/>
        <pt x="272" y="492" on="0"/>
        <pt x="301" y="470" on="0"/>
        <pt x="316" y="460" on="1"/>
        <pt x="340" y="443" on="0"/>
        <pt x="389" y="402" on="0"/>
        <pt x="429" y="345" on="0"/>
        <pt x="455" y="270" on="0"/>
        <pt x="455" y="221" on="1"/>
        <pt x="455" y="157" on="0"/>
        <pt x="411" y="69" on="0"/>
        <pt x="342" y="14" on="0"/>
        <pt x="257" y="-11" on="0"/>
        <pt x="215" y="-11" on="1"/>
        <pt x="196" y="-11" on="0"/>
        <pt x="141" y="-6" on="0"/>
        <pt x="85" y="3" on="0"/>
        <pt x="35" y="16" on="0"/>
        <pt x="20" y="25" on="1"/>
        <pt x="16" y="43" on="0"/>
        <pt x="11" y="81" on="0"/>
        <pt x="11" y="104" on="1"/>
        <pt x="11" y="120" on="0"/>
        <pt x="14" y="166" on="0"/>
        <pt x="18" y="214" on="0"/>
        <pt x="23" y="258" on="0"/>
        <pt x="25" y="273" on="1"/>
        <pt x="36" y="267" on="0"/>
        <pt x="78" y="252" on="0"/>
        <pt x="127" y="238" on="0"/>
        <pt x="177" y="228" on="0"/>
        <pt x="196" y="228" on="1"/>
        <pt x="228" y="228" on="0"/>
        <pt x="260" y="255" on="0"/>
        <pt x="260" y="278" on="1"/>
        <pt x="260" y="303" on="0"/>
        <pt x="224" y="342" on="0"/>
        <pt x="170" y="380" on="0"/>
        <pt x="107" y="423" on="0"/>
        <pt x="53" y="481" on="0"/>
        <pt x="17" y="560" on="0"/>
      </contour>
    </TTGlyph>
    <TTGlyph name="Sacute" xMin="11" yMin="-11" xMax="455" yMax="1040">
      <contour>
        <pt x="17" y="615" on="1"/>
        <pt x="17" y="679" on="0"/>
        <pt x="66" y="762" on="0"/>
        <pt x="141" y="811" on="0"/>
        <pt x="232" y="830" on="0"/>
        <pt x="274" y="830" on="1"/>
        <pt x="286" y="830" on="0"/>
        <pt x="323" y="828" on="0"/>
        <pt x="364" y="824" on="0"/>
        <pt x="407" y="817" on="0"/>
        <pt x="426" y="811" on="1"/>
        <pt x="428" y="785" on="0"/>
        <pt x="430" y="740" on="0"/>
        <pt x="430" y="711" on="1"/>
        <pt x="430" y="682" on="0"/>
        <pt x="428" y="629" on="0"/>
        <pt x="426" y="605" on="1"/>
        <pt x="418" y="606" on="0"/>
        <pt x="393" y="610" on="0"/>
        <pt x="366" y="612" on="0"/>
        <pt x="339" y="614" on="0"/>
        <pt x="327" y="614" on="1"/>
        <pt x="279" y="614" on="0"/>
        <pt x="235" y="584" on="0"/>
        <pt x="235" y="558" on="1"/>
        <pt x="235" y="543" on="0"/>
        <pt x="249" y="516" on="0"/>
        <pt x="272" y="492" on="0"/>
        <pt x="301" y="470" on="0"/>
        <pt x="316" y="460" on="1"/>
        <pt x="340" y="443" on="0"/>
        <pt x="389" y="402" on="0"/>
        <pt x="429" y="345" on="0"/>
        <pt x="455" y="270" on="0"/>
        <pt x="455" y="221" on="1"/>
        <pt x="455" y="157" on="0"/>
        <pt x="411" y="69" on="0"/>
        <pt x="342" y="14" on="0"/>
        <pt x="257" y="-11" on="0"/>
        <pt x="215" y="-11" on="1"/>
        <pt x="196" y="-11" on="0"/>
        <pt x="141" y="-6" on="0"/>
        <pt x="85" y="3" on="0"/>
        <pt x="35" y="16" on="0"/>
        <pt x="20" y="25" on="1"/>
        <pt x="16" y="43" on="0"/>
        <pt x="11" y="81" on="0"/>
        <pt x="11" y="104" on="1"/>
        <pt x="11" y="120" on="0"/>
        <pt x="14" y="166" on="0"/>
        <pt x="18" y="214" on="0"/>
        <pt x="23" y="258" on="0"/>
        <pt x="25" y="273" on="1"/>
        <pt x="36" y="267" on="0"/>
        <pt x="78" y="252" on="0"/>
        <pt x="127" y="238" on="0"/>
        <pt x="177" y="228" on="0"/>
        <pt x="196" y="228" on="1"/>
        <pt x="228" y="228" on="0"/>
        <pt x="260" y="255" on="0"/>
        <pt x="260" y="278" on="1"/>
        <pt x="260" y="303" on="0"/>
        <pt x="224" y="342" on="0"/>
        <pt x="170" y="380" on="0"/>
        <pt x="107" y="423" on="0"/>
        <pt x="53" y="481" on="0"/>
        <pt x="17" y="560" on="0"/>
      </contour>
      <contour>
        <pt x="284" y="1040" on="1"/>
        <pt x="430" y="1040" on="1"/>
        <pt x="302" y="849" on="1"/>
        <pt x="211" y="849" on="1"/>
      </contour>
    </TTGlyph>
    <TTGlyph name="Scaron" xMin="11" yMin="-11" xMax="455" yMax="1045">
      <contour>
        <pt x="17" y="615" on="1"/>
        <pt x="17" y="679" on="0"/>
        <pt x="66" y="762" on="0"/>
        <pt x="141" y="811" on="0"/>
        <pt x="232" y="830" on="0"/>
        <pt x="274" y="830" on="1"/>
        <pt x="286" y="830" on="0"/>
        <pt x="323" y="828" on="0"/>
        <pt x="364" y="824" on="0"/>
        <pt x="407" y="817" on="0"/>
        <pt x="426" y="811" on="1"/>
        <pt x="428" y="785" on="0"/>
        <pt x="430" y="740" on="0"/>
        <pt x="430" y="711" on="1"/>
        <pt x="430" y="682" on="0"/>
        <pt x="428" y="629" on="0"/>
        <pt x="426" y="605" on="1"/>
        <pt x="418" y="606" on="0"/>
        <pt x="393" y="610" on="0"/>
        <pt x="366" y="612" on="0"/>
        <pt x="339" y="614" on="0"/>
        <pt x="327" y="614" on="1"/>
        <pt x="279" y="614" on="0"/>
        <pt x="235" y="584" on="0"/>
        <pt x="235" y="558" on="1"/>
        <pt x="235" y="543" on="0"/>
        <pt x="249" y="516" on="0"/>
        <pt x="272" y="492" on="0"/>
        <pt x="301" y="470" on="0"/>
        <pt x="316" y="460" on="1"/>
        <pt x="340" y="443" on="0"/>
        <pt x="389" y="402" on="0"/>
        <pt x="429" y="345" on="0"/>
        <pt x="455" y="270" on="0"/>
        <pt x="455" y="221" on="1"/>
        <pt x="455" y="157" on="0"/>
        <pt x="411" y="69" on="0"/>
        <pt x="342" y="14" on="0"/>
        <pt x="257" y="-11" on="0"/>
        <pt x="215" y="-11" on="1"/>
        <pt x="196" y="-11" on="0"/>
        <pt x="141" y="-6" on="0"/>
        <pt x="85" y="3" on="0"/>
        <pt x="35" y="16" on="0"/>
        <pt x="20" y="25" on="1"/>
        <pt x="16" y="43" on="0"/>
        <pt x="11" y="81" on="0"/>
        <pt x="11" y="104" on="1"/>
        <pt x="11" y="120" on="0"/>
        <pt x="14" y="166" on="0"/>
        <pt x="18" y="214" on="0"/>
        <pt x="23" y="258" on="0"/>
        <pt x="25" y="273" on="1"/>
        <pt x="36" y="267" on="0"/>
        <pt x="78" y="252" on="0"/>
        <pt x="127" y="238" on="0"/>
        <pt x="177" y="228" on="0"/>
        <pt x="196" y="228" on="1"/>
        <pt x="228" y="228" on="0"/>
        <pt x="260" y="255" on="0"/>
        <pt x="260" y="278" on="1"/>
        <pt x="260" y="303" on="0"/>
        <pt x="224" y="342" on="0"/>
        <pt x="170" y="380" on="0"/>
        <pt x="107" y="423" on="0"/>
        <pt x="53" y="481" on="0"/>
        <pt x="17" y="560" on="0"/>
      </contour>
      <contour>
        <pt x="103" y="977" on="1"/>
        <pt x="133" y="1045" on="1"/>
        <pt x="274" y="976" on="1"/>
        <pt x="415" y="1045" on="1"/>
        <pt x="445" y="977" on="1"/>
        <pt x="274" y="863" on="1"/>
      </contour>
    </TTGlyph>
    <TTGlyph name="Schwa" xMin="13" yMin="-11" xMax="606" yMax="831">
      <contour>
        <pt x="13" y="295" on="1"/>
        <pt x="13" y="328" on="0"/>
        <pt x="21" y="400" on="0"/>
        <pt x="29" y="438" on="1"/>
        <pt x="394" y="438" on="1"/>
        <pt x="388" y="531" on="0"/>
        <pt x="302" y="610" on="0"/>
        <pt x="208" y="610" on="1"/>
        <pt x="129" y="610" on="0"/>
        <pt x="52" y="587" on="1"/>
        <pt x="44" y="617" on="0"/>
        <pt x="36" y="688" on="0"/>
        <pt x="36" y="728" on="1"/>
        <pt x="36" y="745" on="0"/>
        <pt x="38" y="778" on="0"/>
        <pt x="40" y="793" on="1"/>
        <pt x="62" y="801" on="0"/>
        <pt x="117" y="815" on="0"/>
        <pt x="176" y="825" on="0"/>
        <pt x="235" y="831" on="0"/>
        <pt x="259" y="831" on="1"/>
        <pt x="338" y="831" on="0"/>
        <pt x="466" y="770" on="0"/>
        <pt x="557" y="660" on="0"/>
        <pt x="606" y="506" on="0"/>
        <pt x="606" y="413" on="1"/>
        <pt x="606" y="321" on="0"/>
        <pt x="558" y="165" on="0"/>
        <pt x="471" y="52" on="0"/>
        <pt x="350" y="-11" on="0"/>
        <pt x="277" y="-11" on="1"/>
        <pt x="217" y="-11" on="0"/>
        <pt x="120" y="32" on="0"/>
        <pt x="51" y="112" on="0"/>
        <pt x="13" y="225" on="0"/>
      </contour>
      <contour>
        <pt x="283" y="202" on="1"/>
        <pt x="373" y="202" on="0"/>
        <pt x="390" y="331" on="1"/>
        <pt x="195" y="331" on="1"/>
        <pt x="195" y="202" on="0"/>
      </contour>
    </TTGlyph>
    <TTGlyph name="Scircumflex" xMin="11" yMin="-11" xMax="455" yMax="1045">
      <contour>
        <pt x="17" y="615" on="1"/>
        <pt x="17" y="679" on="0"/>
        <pt x="66" y="762" on="0"/>
        <pt x="141" y="811" on="0"/>
        <pt x="232" y="830" on="0"/>
        <pt x="274" y="830" on="1"/>
        <pt x="286" y="830" on="0"/>
        <pt x="323" y="828" on="0"/>
        <pt x="364" y="824" on="0"/>
        <pt x="407" y="817" on="0"/>
        <pt x="426" y="811" on="1"/>
        <pt x="428" y="785" on="0"/>
        <pt x="430" y="740" on="0"/>
        <pt x="430" y="711" on="1"/>
        <pt x="430" y="682" on="0"/>
        <pt x="428" y="629" on="0"/>
        <pt x="426" y="605" on="1"/>
        <pt x="418" y="606" on="0"/>
        <pt x="393" y="610" on="0"/>
        <pt x="366" y="612" on="0"/>
        <pt x="339" y="614" on="0"/>
        <pt x="327" y="614" on="1"/>
        <pt x="279" y="614" on="0"/>
        <pt x="235" y="584" on="0"/>
        <pt x="235" y="558" on="1"/>
        <pt x="235" y="543" on="0"/>
        <pt x="249" y="516" on="0"/>
        <pt x="272" y="492" on="0"/>
        <pt x="301" y="470" on="0"/>
        <pt x="316" y="460" on="1"/>
        <pt x="340" y="443" on="0"/>
        <pt x="389" y="402" on="0"/>
        <pt x="429" y="345" on="0"/>
        <pt x="455" y="270" on="0"/>
        <pt x="455" y="221" on="1"/>
        <pt x="455" y="157" on="0"/>
        <pt x="411" y="69" on="0"/>
        <pt x="342" y="14" on="0"/>
        <pt x="257" y="-11" on="0"/>
        <pt x="215" y="-11" on="1"/>
        <pt x="196" y="-11" on="0"/>
        <pt x="141" y="-6" on="0"/>
        <pt x="85" y="3" on="0"/>
        <pt x="35" y="16" on="0"/>
        <pt x="20" y="25" on="1"/>
        <pt x="16" y="43" on="0"/>
        <pt x="11" y="81" on="0"/>
        <pt x="11" y="104" on="1"/>
        <pt x="11" y="120" on="0"/>
        <pt x="14" y="166" on="0"/>
        <pt x="18" y="214" on="0"/>
        <pt x="23" y="258" on="0"/>
        <pt x="25" y="273" on="1"/>
        <pt x="36" y="267" on="0"/>
        <pt x="78" y="252" on="0"/>
        <pt x="127" y="238" on="0"/>
        <pt x="177" y="228" on="0"/>
        <pt x="196" y="228" on="1"/>
        <pt x="228" y="228" on="0"/>
        <pt x="260" y="255" on="0"/>
        <pt x="260" y="278" on="1"/>
        <pt x="260" y="303" on="0"/>
        <pt x="224" y="342" on="0"/>
        <pt x="170" y="380" on="0"/>
        <pt x="107" y="423" on="0"/>
        <pt x="53" y="481" on="0"/>
        <pt x="17" y="560" on="0"/>
      </contour>
      <contour>
        <pt x="274" y="1045" on="1"/>
        <pt x="445" y="932" on="1"/>
        <pt x="415" y="864" on="1"/>
        <pt x="274" y="932" on="1"/>
        <pt x="133" y="864" on="1"/>
        <pt x="103" y="932" on="1"/>
      </contour>
    </TTGlyph>
    <TTGlyph name="Sdotbelow" xMin="11" yMin="-205" xMax="455" yMax="830">
      <contour>
        <pt x="17" y="615" on="1"/>
        <pt x="17" y="679" on="0"/>
        <pt x="66" y="762" on="0"/>
        <pt x="141" y="811" on="0"/>
        <pt x="232" y="830" on="0"/>
        <pt x="274" y="830" on="1"/>
        <pt x="286" y="830" on="0"/>
        <pt x="323" y="828" on="0"/>
        <pt x="364" y="824" on="0"/>
        <pt x="407" y="817" on="0"/>
        <pt x="426" y="811" on="1"/>
        <pt x="428" y="785" on="0"/>
        <pt x="430" y="740" on="0"/>
        <pt x="430" y="711" on="1"/>
        <pt x="430" y="682" on="0"/>
        <pt x="428" y="629" on="0"/>
        <pt x="426" y="605" on="1"/>
        <pt x="418" y="606" on="0"/>
        <pt x="393" y="610" on="0"/>
        <pt x="366" y="612" on="0"/>
        <pt x="339" y="614" on="0"/>
        <pt x="327" y="614" on="1"/>
        <pt x="279" y="614" on="0"/>
        <pt x="235" y="584" on="0"/>
        <pt x="235" y="558" on="1"/>
        <pt x="235" y="543" on="0"/>
        <pt x="249" y="516" on="0"/>
        <pt x="272" y="492" on="0"/>
        <pt x="301" y="470" on="0"/>
        <pt x="316" y="460" on="1"/>
        <pt x="340" y="443" on="0"/>
        <pt x="389" y="402" on="0"/>
        <pt x="429" y="345" on="0"/>
        <pt x="455" y="270" on="0"/>
        <pt x="455" y="221" on="1"/>
        <pt x="455" y="157" on="0"/>
        <pt x="411" y="69" on="0"/>
        <pt x="342" y="14" on="0"/>
        <pt x="257" y="-11" on="0"/>
        <pt x="215" y="-11" on="1"/>
        <pt x="196" y="-11" on="0"/>
        <pt x="141" y="-6" on="0"/>
        <pt x="85" y="3" on="0"/>
        <pt x="35" y="16" on="0"/>
        <pt x="20" y="25" on="1"/>
        <pt x="16" y="43" on="0"/>
        <pt x="11" y="81" on="0"/>
        <pt x="11" y="104" on="1"/>
        <pt x="11" y="120" on="0"/>
        <pt x="14" y="166" on="0"/>
        <pt x="18" y="214" on="0"/>
        <pt x="23" y="258" on="0"/>
        <pt x="25" y="273" on="1"/>
        <pt x="36" y="267" on="0"/>
        <pt x="78" y="252" on="0"/>
        <pt x="127" y="238" on="0"/>
        <pt x="177" y="228" on="0"/>
        <pt x="196" y="228" on="1"/>
        <pt x="228" y="228" on="0"/>
        <pt x="260" y="255" on="0"/>
        <pt x="260" y="278" on="1"/>
        <pt x="260" y="303" on="0"/>
        <pt x="224" y="342" on="0"/>
        <pt x="170" y="380" on="0"/>
        <pt x="107" y="423" on="0"/>
        <pt x="53" y="481" on="0"/>
        <pt x="17" y="560" on="0"/>
      </contour>
      <contour>
        <pt x="216" y="-52" on="1"/>
        <pt x="252" y="-52" on="0"/>
        <pt x="291" y="-100" on="0"/>
        <pt x="291" y="-129" on="1"/>
        <pt x="291" y="-158" on="0"/>
        <pt x="252" y="-205" on="0"/>
        <pt x="216" y="-205" on="1"/>
        <pt x="180" y="-205" on="0"/>
        <pt x="141" y="-158" on="0"/>
        <pt x="141" y="-129" on="1"/>
        <pt x="141" y="-100" on="0"/>
        <pt x="180" y="-52" on="0"/>
      </contour>
    </TTGlyph>
    <TTGlyph name="T" xMin="11" yMin="0" xMax="408" yMax="818">
      <contour>
        <pt x="408" y="633" on="1"/>
        <pt x="293" y="633" on="1"/>
        <pt x="291" y="544" on="0"/>
        <pt x="289" y="361" on="0"/>
        <pt x="289" y="255" on="1"/>
        <pt x="289" y="187" on="0"/>
        <pt x="289" y="104" on="0"/>
        <pt x="289" y="51" on="0"/>
        <pt x="290" y="18" on="0"/>
        <pt x="290" y="0" on="1"/>
        <pt x="122" y="0" on="1"/>
        <pt x="123" y="44" on="0"/>
        <pt x="125" y="139" on="0"/>
        <pt x="126" y="250" on="0"/>
        <pt x="127" y="379" on="0"/>
        <pt x="127" y="457" on="1"/>
        <pt x="127" y="514" on="0"/>
        <pt x="127" y="598" on="0"/>
        <pt x="126" y="633" on="1"/>
        <pt x="11" y="633" on="1"/>
        <pt x="11" y="818" on="1"/>
        <pt x="408" y="818" on="1"/>
      </contour>
    </TTGlyph>
    <TTGlyph name="Tbar" xMin="17" yMin="0" xMax="414" yMax="818">
      <contour>
        <pt x="414" y="633" on="1"/>
        <pt x="296" y="633" on="1"/>
        <pt x="296" y="489" on="1"/>
        <pt x="404" y="489" on="1"/>
        <pt x="404" y="397" on="1"/>
        <pt x="296" y="397" on="1"/>
        <pt x="296" y="0" on="1"/>
        <pt x="128" y="0" on="1"/>
        <pt x="129" y="39" on="0"/>
        <pt x="130" y="125" on="0"/>
        <pt x="132" y="221" on="0"/>
        <pt x="133" y="332" on="0"/>
        <pt x="133" y="397" on="1"/>
        <pt x="27" y="397" on="1"/>
        <pt x="27" y="489" on="1"/>
        <pt x="132" y="489" on="1"/>
        <pt x="132" y="633" on="1"/>
        <pt x="17" y="633" on="1"/>
        <pt x="17" y="818" on="1"/>
        <pt x="414" y="818" on="1"/>
      </contour>
    </TTGlyph>
    <TTGlyph name="Tcaron" xMin="11" yMin="0" xMax="408" yMax="1045">
      <contour>
        <pt x="408" y="633" on="1"/>
        <pt x="293" y="633" on="1"/>
        <pt x="291" y="544" on="0"/>
        <pt x="289" y="361" on="0"/>
        <pt x="289" y="255" on="1"/>
        <pt x="289" y="187" on="0"/>
        <pt x="289" y="104" on="0"/>
        <pt x="289" y="51" on="0"/>
        <pt x="290" y="18" on="0"/>
        <pt x="290" y="0" on="1"/>
        <pt x="122" y="0" on="1"/>
        <pt x="123" y="44" on="0"/>
        <pt x="125" y="139" on="0"/>
        <pt x="126" y="250" on="0"/>
        <pt x="127" y="379" on="0"/>
        <pt x="127" y="457" on="1"/>
        <pt x="127" y="514" on="0"/>
        <pt x="127" y="598" on="0"/>
        <pt x="126" y="633" on="1"/>
        <pt x="11" y="633" on="1"/>
        <pt x="11" y="818" on="1"/>
        <pt x="408" y="818" on="1"/>
      </contour>
      <contour>
        <pt x="43" y="977" on="1"/>
        <pt x="73" y="1045" on="1"/>
        <pt x="214" y="976" on="1"/>
        <pt x="355" y="1045" on="1"/>
        <pt x="385" y="977" on="1"/>
        <pt x="214" y="863" on="1"/>
      </contour>
    </TTGlyph>
    <TTGlyph name="Tdotbelow" xMin="11" yMin="-205" xMax="408" yMax="818">
      <contour>
        <pt x="408" y="633" on="1"/>
        <pt x="293" y="633" on="1"/>
        <pt x="291" y="544" on="0"/>
        <pt x="289" y="361" on="0"/>
        <pt x="289" y="255" on="1"/>
        <pt x="289" y="187" on="0"/>
        <pt x="289" y="104" on="0"/>
        <pt x="289" y="51" on="0"/>
        <pt x="290" y="18" on="0"/>
        <pt x="290" y="0" on="1"/>
        <pt x="122" y="0" on="1"/>
        <pt x="123" y="44" on="0"/>
        <pt x="125" y="139" on="0"/>
        <pt x="126" y="250" on="0"/>
        <pt x="127" y="379" on="0"/>
        <pt x="127" y="457" on="1"/>
        <pt x="127" y="514" on="0"/>
        <pt x="127" y="598" on="0"/>
        <pt x="126" y="633" on="1"/>
        <pt x="11" y="633" on="1"/>
        <pt x="11" y="818" on="1"/>
        <pt x="408" y="818" on="1"/>
      </contour>
      <contour>
        <pt x="201" y="-52" on="1"/>
        <pt x="237" y="-52" on="0"/>
        <pt x="276" y="-100" on="0"/>
        <pt x="276" y="-129" on="1"/>
        <pt x="276" y="-158" on="0"/>
        <pt x="237" y="-205" on="0"/>
        <pt x="201" y="-205" on="1"/>
        <pt x="165" y="-205" on="0"/>
        <pt x="126" y="-158" on="0"/>
        <pt x="126" y="-129" on="1"/>
        <pt x="126" y="-100" on="0"/>
        <pt x="165" y="-52" on="0"/>
      </contour>
    </TTGlyph>
    <TTGlyph name="Thorn" xMin="28" yMin="0" xMax="554" yMax="818">
      <contour>
        <pt x="186" y="307" on="1"/>
        <pt x="204" y="302" on="0"/>
        <pt x="238" y="299" on="0"/>
        <pt x="250" y="299" on="1"/>
        <pt x="269" y="299" on="0"/>
        <pt x="304" y="308" on="0"/>
        <pt x="330" y="330" on="0"/>
        <pt x="345" y="368" on="0"/>
        <pt x="345" y="397" on="1"/>
        <pt x="345" y="427" on="0"/>
        <pt x="328" y="465" on="0"/>
        <pt x="300" y="487" on="0"/>
        <pt x="263" y="495" on="0"/>
        <pt x="243" y="495" on="1"/>
        <pt x="229" y="495" on="0"/>
        <pt x="201" y="492" on="0"/>
        <pt x="186" y="490" on="1"/>
      </contour>
      <contour>
        <pt x="197" y="818" on="1"/>
        <pt x="195" y="801" on="0"/>
        <pt x="192" y="760" on="0"/>
        <pt x="191" y="721" on="0"/>
        <pt x="190" y="689" on="0"/>
        <pt x="190" y="681" on="1"/>
        <pt x="259" y="681" on="0"/>
        <pt x="390" y="665" on="0"/>
        <pt x="492" y="607" on="0"/>
        <pt x="554" y="496" on="0"/>
        <pt x="554" y="400" on="1"/>
        <pt x="554" y="317" on="0"/>
        <pt x="494" y="213" on="0"/>
        <pt x="393" y="155" on="0"/>
        <pt x="261" y="135" on="0"/>
        <pt x="190" y="135" on="1"/>
        <pt x="190" y="112" on="0"/>
        <pt x="190" y="88" on="0"/>
        <pt x="191" y="73" on="0"/>
        <pt x="192" y="64" on="0"/>
        <pt x="193" y="49" on="0"/>
        <pt x="195" y="23" on="0"/>
        <pt x="197" y="0" on="1"/>
        <pt x="28" y="0" on="1"/>
        <pt x="28" y="109" on="0"/>
        <pt x="29" y="246" on="0"/>
        <pt x="31" y="334" on="0"/>
        <pt x="32" y="392" on="0"/>
        <pt x="32" y="423" on="1"/>
        <pt x="32" y="453" on="0"/>
        <pt x="32" y="514" on="0"/>
        <pt x="31" y="601" on="0"/>
        <pt x="29" y="725" on="0"/>
        <pt x="28" y="818" on="1"/>
      </contour>
    </TTGlyph>
    <TTGlyph name="U" xMin="20" yMin="-11" xMax="576" yMax="819">
      <contour>
        <pt x="566" y="819" on="1"/>
        <pt x="568" y="673" on="0"/>
        <pt x="576" y="460" on="0"/>
        <pt x="576" y="385" on="1"/>
        <pt x="576" y="336" on="0"/>
        <pt x="570" y="239" on="0"/>
        <pt x="550" y="151" on="0"/>
        <pt x="513" y="76" on="0"/>
        <pt x="452" y="20" on="0"/>
        <pt x="362" y="-11" on="0"/>
        <pt x="300" y="-11" on="1"/>
        <pt x="236" y="-11" on="0"/>
        <pt x="145" y="22" on="0"/>
        <pt x="83" y="78" on="0"/>
        <pt x="46" y="155" on="0"/>
        <pt x="26" y="243" on="0"/>
        <pt x="20" y="337" on="0"/>
        <pt x="20" y="384" on="1"/>
        <pt x="20" y="421" on="0"/>
        <pt x="22" y="505" on="0"/>
        <pt x="26" y="609" on="0"/>
        <pt x="31" y="737" on="0"/>
        <pt x="34" y="818" on="1"/>
        <pt x="210" y="818" on="1"/>
        <pt x="207" y="728" on="0"/>
        <pt x="203" y="603" on="0"/>
        <pt x="200" y="519" on="0"/>
        <pt x="199" y="470" on="0"/>
        <pt x="198" y="444" on="0"/>
        <pt x="198" y="433" on="0"/>
        <pt x="198" y="430" on="1"/>
        <pt x="198" y="333" on="0"/>
        <pt x="242" y="235" on="0"/>
        <pt x="299" y="235" on="1"/>
        <pt x="357" y="235" on="0"/>
        <pt x="398" y="341" on="0"/>
        <pt x="398" y="449" on="1"/>
        <pt x="398" y="454" on="0"/>
        <pt x="398" y="467" on="0"/>
        <pt x="397" y="495" on="0"/>
        <pt x="396" y="542" on="0"/>
        <pt x="393" y="621" on="0"/>
        <pt x="389" y="736" on="0"/>
        <pt x="386" y="818" on="1"/>
      </contour>
    </TTGlyph>
    <TTGlyph name="Uacute" xMin="20" yMin="-11" xMax="576" yMax="1040">
      <contour>
        <pt x="566" y="819" on="1"/>
        <pt x="568" y="673" on="0"/>
        <pt x="576" y="460" on="0"/>
        <pt x="576" y="385" on="1"/>
        <pt x="576" y="336" on="0"/>
        <pt x="570" y="239" on="0"/>
        <pt x="550" y="151" on="0"/>
        <pt x="513" y="76" on="0"/>
        <pt x="452" y="20" on="0"/>
        <pt x="362" y="-11" on="0"/>
        <pt x="300" y="-11" on="1"/>
        <pt x="236" y="-11" on="0"/>
        <pt x="145" y="22" on="0"/>
        <pt x="83" y="78" on="0"/>
        <pt x="46" y="155" on="0"/>
        <pt x="26" y="243" on="0"/>
        <pt x="20" y="337" on="0"/>
        <pt x="20" y="384" on="1"/>
        <pt x="20" y="421" on="0"/>
        <pt x="22" y="505" on="0"/>
        <pt x="26" y="609" on="0"/>
        <pt x="31" y="737" on="0"/>
        <pt x="34" y="818" on="1"/>
        <pt x="210" y="818" on="1"/>
        <pt x="207" y="728" on="0"/>
        <pt x="203" y="603" on="0"/>
        <pt x="200" y="519" on="0"/>
        <pt x="199" y="470" on="0"/>
        <pt x="198" y="444" on="0"/>
        <pt x="198" y="433" on="0"/>
        <pt x="198" y="430" on="1"/>
        <pt x="198" y="333" on="0"/>
        <pt x="242" y="235" on="0"/>
        <pt x="299" y="235" on="1"/>
        <pt x="357" y="235" on="0"/>
        <pt x="398" y="341" on="0"/>
        <pt x="398" y="449" on="1"/>
        <pt x="398" y="454" on="0"/>
        <pt x="398" y="467" on="0"/>
        <pt x="397" y="495" on="0"/>
        <pt x="396" y="542" on="0"/>
        <pt x="393" y="621" on="0"/>
        <pt x="389" y="736" on="0"/>
        <pt x="386" y="818" on="1"/>
      </contour>
      <contour>
        <pt x="309" y="1040" on="1"/>
        <pt x="455" y="1040" on="1"/>
        <pt x="327" y="849" on="1"/>
        <pt x="236" y="849" on="1"/>
      </contour>
    </TTGlyph>
    <TTGlyph name="Ubreve" xMin="20" yMin="-11" xMax="576" yMax="1016">
      <contour>
        <pt x="566" y="819" on="1"/>
        <pt x="568" y="673" on="0"/>
        <pt x="576" y="460" on="0"/>
        <pt x="576" y="385" on="1"/>
        <pt x="576" y="336" on="0"/>
        <pt x="570" y="239" on="0"/>
        <pt x="550" y="151" on="0"/>
        <pt x="513" y="76" on="0"/>
        <pt x="452" y="20" on="0"/>
        <pt x="362" y="-11" on="0"/>
        <pt x="300" y="-11" on="1"/>
        <pt x="236" y="-11" on="0"/>
        <pt x="145" y="22" on="0"/>
        <pt x="83" y="78" on="0"/>
        <pt x="46" y="155" on="0"/>
        <pt x="26" y="243" on="0"/>
        <pt x="20" y="337" on="0"/>
        <pt x="20" y="384" on="1"/>
        <pt x="20" y="421" on="0"/>
        <pt x="22" y="505" on="0"/>
        <pt x="26" y="609" on="0"/>
        <pt x="31" y="737" on="0"/>
        <pt x="34" y="818" on="1"/>
        <pt x="210" y="818" on="1"/>
        <pt x="207" y="728" on="0"/>
        <pt x="203" y="603" on="0"/>
        <pt x="200" y="519" on="0"/>
        <pt x="199" y="470" on="0"/>
        <pt x="198" y="444" on="0"/>
        <pt x="198" y="433" on="0"/>
        <pt x="198" y="430" on="1"/>
        <pt x="198" y="333" on="0"/>
        <pt x="242" y="235" on="0"/>
        <pt x="299" y="235" on="1"/>
        <pt x="357" y="235" on="0"/>
        <pt x="398" y="341" on="0"/>
        <pt x="398" y="449" on="1"/>
        <pt x="398" y="454" on="0"/>
        <pt x="398" y="467" on="0"/>
        <pt x="397" y="495" on="0"/>
        <pt x="396" y="542" on="0"/>
        <pt x="393" y="621" on="0"/>
        <pt x="389" y="736" on="0"/>
        <pt x="386" y="818" on="1"/>
      </contour>
      <contour>
        <pt x="445" y="1016" on="1"/>
        <pt x="445" y="981" on="0"/>
        <pt x="420" y="927" on="0"/>
        <pt x="380" y="891" on="0"/>
        <pt x="327" y="872" on="0"/>
        <pt x="299" y="872" on="1"/>
        <pt x="270" y="872" on="0"/>
        <pt x="218" y="891" on="0"/>
        <pt x="178" y="927" on="0"/>
        <pt x="153" y="981" on="0"/>
        <pt x="153" y="1016" on="1"/>
        <pt x="222" y="1016" on="1"/>
        <pt x="224" y="978" on="0"/>
        <pt x="267" y="932" on="0"/>
        <pt x="299" y="932" on="1"/>
        <pt x="331" y="932" on="0"/>
        <pt x="374" y="978" on="0"/>
        <pt x="376" y="1016" on="1"/>
      </contour>
    </TTGlyph>
    <TTGlyph name="Ucircumflex" xMin="20" yMin="-11" xMax="576" yMax="1045">
      <contour>
        <pt x="566" y="819" on="1"/>
        <pt x="568" y="673" on="0"/>
        <pt x="576" y="460" on="0"/>
        <pt x="576" y="385" on="1"/>
        <pt x="576" y="336" on="0"/>
        <pt x="570" y="239" on="0"/>
        <pt x="550" y="151" on="0"/>
        <pt x="513" y="76" on="0"/>
        <pt x="452" y="20" on="0"/>
        <pt x="362" y="-11" on="0"/>
        <pt x="300" y="-11" on="1"/>
        <pt x="236" y="-11" on="0"/>
        <pt x="145" y="22" on="0"/>
        <pt x="83" y="78" on="0"/>
        <pt x="46" y="155" on="0"/>
        <pt x="26" y="243" on="0"/>
        <pt x="20" y="337" on="0"/>
        <pt x="20" y="384" on="1"/>
        <pt x="20" y="421" on="0"/>
        <pt x="22" y="505" on="0"/>
        <pt x="26" y="609" on="0"/>
        <pt x="31" y="737" on="0"/>
        <pt x="34" y="818" on="1"/>
        <pt x="210" y="818" on="1"/>
        <pt x="207" y="728" on="0"/>
        <pt x="203" y="603" on="0"/>
        <pt x="200" y="519" on="0"/>
        <pt x="199" y="470" on="0"/>
        <pt x="198" y="444" on="0"/>
        <pt x="198" y="433" on="0"/>
        <pt x="198" y="430" on="1"/>
        <pt x="198" y="333" on="0"/>
        <pt x="242" y="235" on="0"/>
        <pt x="299" y="235" on="1"/>
        <pt x="357" y="235" on="0"/>
        <pt x="398" y="341" on="0"/>
        <pt x="398" y="449" on="1"/>
        <pt x="398" y="454" on="0"/>
        <pt x="398" y="467" on="0"/>
        <pt x="397" y="495" on="0"/>
        <pt x="396" y="542" on="0"/>
        <pt x="393" y="621" on="0"/>
        <pt x="389" y="736" on="0"/>
        <pt x="386" y="818" on="1"/>
      </contour>
      <contour>
        <pt x="299" y="1045" on="1"/>
        <pt x="470" y="932" on="1"/>
        <pt x="440" y="864" on="1"/>
        <pt x="299" y="932" on="1"/>
        <pt x="158" y="864" on="1"/>
        <pt x="128" y="932" on="1"/>
      </contour>
    </TTGlyph>
</ttFont>
